%TF.GenerationSoftware,KiCad,Pcbnew,9.0.0*%
%TF.CreationDate,2025-12-15T13:56:06-05:00*%
%TF.ProjectId,LightDisc,4c696768-7444-4697-9363-2e6b69636164,rev?*%
%TF.SameCoordinates,Original*%
%TF.FileFunction,Copper,L1,Top*%
%TF.FilePolarity,Positive*%
%FSLAX46Y46*%
G04 Gerber Fmt 4.6, Leading zero omitted, Abs format (unit mm)*
G04 Created by KiCad (PCBNEW 9.0.0) date 2025-12-15 13:56:06*
%MOMM*%
%LPD*%
G01*
G04 APERTURE LIST*
G04 Aperture macros list*
%AMRoundRect*
0 Rectangle with rounded corners*
0 $1 Rounding radius*
0 $2 $3 $4 $5 $6 $7 $8 $9 X,Y pos of 4 corners*
0 Add a 4 corners polygon primitive as box body*
4,1,4,$2,$3,$4,$5,$6,$7,$8,$9,$2,$3,0*
0 Add four circle primitives for the rounded corners*
1,1,$1+$1,$2,$3*
1,1,$1+$1,$4,$5*
1,1,$1+$1,$6,$7*
1,1,$1+$1,$8,$9*
0 Add four rect primitives between the rounded corners*
20,1,$1+$1,$2,$3,$4,$5,0*
20,1,$1+$1,$4,$5,$6,$7,0*
20,1,$1+$1,$6,$7,$8,$9,0*
20,1,$1+$1,$8,$9,$2,$3,0*%
%AMHorizOval*
0 Thick line with rounded ends*
0 $1 width*
0 $2 $3 position (X,Y) of the first rounded end (center of the circle)*
0 $4 $5 position (X,Y) of the second rounded end (center of the circle)*
0 Add line between two ends*
20,1,$1,$2,$3,$4,$5,0*
0 Add two circle primitives to create the rounded ends*
1,1,$1,$2,$3*
1,1,$1,$4,$5*%
G04 Aperture macros list end*
%TA.AperFunction,Conductor*%
%ADD10C,0.200000*%
%TD*%
%TA.AperFunction,SMDPad,CuDef*%
%ADD11RoundRect,0.125000X-0.125000X0.125000X-0.125000X-0.125000X0.125000X-0.125000X0.125000X0.125000X0*%
%TD*%
%TA.AperFunction,ComponentPad*%
%ADD12RoundRect,0.250000X-0.600000X-0.725000X0.600000X-0.725000X0.600000X0.725000X-0.600000X0.725000X0*%
%TD*%
%TA.AperFunction,ComponentPad*%
%ADD13O,1.700000X1.950000*%
%TD*%
%TA.AperFunction,SMDPad,CuDef*%
%ADD14R,1.498600X3.987800*%
%TD*%
%TA.AperFunction,SMDPad,CuDef*%
%ADD15RoundRect,0.125000X0.125000X-0.125000X0.125000X0.125000X-0.125000X0.125000X-0.125000X-0.125000X0*%
%TD*%
%TA.AperFunction,SMDPad,CuDef*%
%ADD16R,0.952500X0.457200*%
%TD*%
%TA.AperFunction,SMDPad,CuDef*%
%ADD17RoundRect,0.250000X-0.450000X0.262500X-0.450000X-0.262500X0.450000X-0.262500X0.450000X0.262500X0*%
%TD*%
%TA.AperFunction,SMDPad,CuDef*%
%ADD18RoundRect,0.225000X0.250000X-0.225000X0.250000X0.225000X-0.250000X0.225000X-0.250000X-0.225000X0*%
%TD*%
%TA.AperFunction,SMDPad,CuDef*%
%ADD19RoundRect,0.225000X-0.250000X0.225000X-0.250000X-0.225000X0.250000X-0.225000X0.250000X0.225000X0*%
%TD*%
%TA.AperFunction,ComponentPad*%
%ADD20RoundRect,0.250000X-0.901392X-0.270402X0.097057X-0.936058X0.901392X0.270402X-0.097057X0.936058X0*%
%TD*%
%TA.AperFunction,ComponentPad*%
%ADD21HorizOval,1.700000X-0.069339X-0.104005X0.069339X0.104005X0*%
%TD*%
%TA.AperFunction,ComponentPad*%
%ADD22RoundRect,0.250000X-0.936060X0.097041X-0.270386X-0.901397X0.936060X-0.097041X0.270386X0.901397X0*%
%TD*%
%TA.AperFunction,ComponentPad*%
%ADD23HorizOval,1.700000X-0.104004X-0.069341X0.104004X0.069341X0*%
%TD*%
%TA.AperFunction,ComponentPad*%
%ADD24R,1.700000X1.700000*%
%TD*%
%TA.AperFunction,ComponentPad*%
%ADD25O,1.700000X1.700000*%
%TD*%
%TA.AperFunction,SMDPad,CuDef*%
%ADD26RoundRect,0.225000X-0.225000X-0.250000X0.225000X-0.250000X0.225000X0.250000X-0.225000X0.250000X0*%
%TD*%
%TA.AperFunction,SMDPad,CuDef*%
%ADD27RoundRect,0.225000X-0.335876X-0.017678X-0.017678X-0.335876X0.335876X0.017678X0.017678X0.335876X0*%
%TD*%
%TA.AperFunction,SMDPad,CuDef*%
%ADD28RoundRect,0.250000X-0.262500X-0.450000X0.262500X-0.450000X0.262500X0.450000X-0.262500X0.450000X0*%
%TD*%
%TA.AperFunction,SMDPad,CuDef*%
%ADD29R,3.987800X1.498600*%
%TD*%
%TA.AperFunction,ComponentPad*%
%ADD30C,1.701800*%
%TD*%
%TA.AperFunction,SMDPad,CuDef*%
%ADD31R,0.457200X0.952500*%
%TD*%
%TA.AperFunction,SMDPad,CuDef*%
%ADD32RoundRect,0.250000X-0.312500X-0.625000X0.312500X-0.625000X0.312500X0.625000X-0.312500X0.625000X0*%
%TD*%
%TA.AperFunction,SMDPad,CuDef*%
%ADD33RoundRect,0.250000X-0.625000X0.312500X-0.625000X-0.312500X0.625000X-0.312500X0.625000X0.312500X0*%
%TD*%
%TA.AperFunction,SMDPad,CuDef*%
%ADD34RoundRect,0.100000X-0.637500X-0.100000X0.637500X-0.100000X0.637500X0.100000X-0.637500X0.100000X0*%
%TD*%
%TA.AperFunction,ComponentPad*%
%ADD35RoundRect,0.250000X-0.950000X-0.550000X0.950000X-0.550000X0.950000X0.550000X-0.950000X0.550000X0*%
%TD*%
%TA.AperFunction,ComponentPad*%
%ADD36O,2.400000X1.600000*%
%TD*%
%TA.AperFunction,SMDPad,CuDef*%
%ADD37RoundRect,0.125000X-0.125000X-0.125000X0.125000X-0.125000X0.125000X0.125000X-0.125000X0.125000X0*%
%TD*%
%TA.AperFunction,SMDPad,CuDef*%
%ADD38RoundRect,0.125000X0.125000X0.125000X-0.125000X0.125000X-0.125000X-0.125000X0.125000X-0.125000X0*%
%TD*%
%TA.AperFunction,ComponentPad*%
%ADD39C,1.348000*%
%TD*%
%TA.AperFunction,SMDPad,CuDef*%
%ADD40RoundRect,0.250000X0.312500X0.625000X-0.312500X0.625000X-0.312500X-0.625000X0.312500X-0.625000X0*%
%TD*%
%TA.AperFunction,ComponentPad*%
%ADD41R,1.600000X1.600000*%
%TD*%
%TA.AperFunction,ComponentPad*%
%ADD42C,1.600000*%
%TD*%
%TA.AperFunction,SMDPad,CuDef*%
%ADD43RoundRect,0.150000X-0.150000X0.875000X-0.150000X-0.875000X0.150000X-0.875000X0.150000X0.875000X0*%
%TD*%
%TA.AperFunction,SMDPad,CuDef*%
%ADD44RoundRect,0.225000X0.225000X0.250000X-0.225000X0.250000X-0.225000X-0.250000X0.225000X-0.250000X0*%
%TD*%
%TA.AperFunction,ViaPad*%
%ADD45C,1.200000*%
%TD*%
%TA.AperFunction,Conductor*%
%ADD46C,1.000000*%
%TD*%
%TA.AperFunction,Conductor*%
%ADD47C,0.400000*%
%TD*%
%TA.AperFunction,Conductor*%
%ADD48C,0.600000*%
%TD*%
%TA.AperFunction,Conductor*%
%ADD49C,1.600000*%
%TD*%
%TA.AperFunction,Conductor*%
%ADD50C,0.800000*%
%TD*%
%TA.AperFunction,Conductor*%
%ADD51C,2.500000*%
%TD*%
%TA.AperFunction,Conductor*%
%ADD52C,1.200000*%
%TD*%
G04 APERTURE END LIST*
D10*
%TO.N,Net-(D6-A)*%
X131900000Y-45700000D02*
X129700000Y-46535221D01*
X129700000Y-45335221D01*
X131400000Y-44735221D01*
X131900000Y-44735221D01*
X131900000Y-45700000D01*
%TA.AperFunction,Conductor*%
G36*
X131900000Y-45700000D02*
G01*
X129700000Y-46535221D01*
X129700000Y-45335221D01*
X131400000Y-44735221D01*
X131900000Y-44735221D01*
X131900000Y-45700000D01*
G37*
%TD.AperFunction*%
%TD*%
D11*
%TO.P,D14,1,K*%
%TO.N,Net-(D14-K)*%
X146750000Y-84800000D03*
%TO.P,D14,2,A*%
%TO.N,5V*%
X146750000Y-87000000D03*
%TD*%
D12*
%TO.P,J2,1,Pin_1*%
%TO.N,Net-(J2-Pin_1)*%
X131500000Y-22500000D03*
D13*
%TO.P,J2,2,Pin_2*%
%TO.N,Net-(J2-Pin_2)*%
X134000000Y-22500000D03*
%TO.P,J2,3,Pin_3*%
%TO.N,Net-(J2-Pin_3)*%
X136500000Y-22500000D03*
%TO.P,J2,4,Pin_4*%
%TO.N,Net-(J2-Pin_4)*%
X139000000Y-22500000D03*
%TO.P,J2,5,Pin_5*%
%TO.N,Net-(J2-Pin_5)*%
X141500000Y-22500000D03*
%TO.P,J2,6,Pin_6*%
%TO.N,Net-(J2-Pin_6)*%
X144000000Y-22500000D03*
%TO.P,J2,7,Pin_7*%
%TO.N,Net-(J2-Pin_7)*%
X146500000Y-22500000D03*
%TO.P,J2,8,Pin_8*%
%TO.N,Net-(J2-Pin_8)*%
X149000000Y-22500000D03*
%TO.P,J2,9,Pin_9*%
%TO.N,3.3V*%
X151500000Y-22500000D03*
%TO.P,J2,10,Pin_10*%
%TO.N,Temp1*%
X154000000Y-22500000D03*
%TD*%
D14*
%TO.P,L9,2,2*%
%TO.N,Net-(D9-A)*%
X180454812Y-45800000D03*
%TO.P,L9,1,1*%
%TO.N,Net-(J19-Pin_1)*%
X184061612Y-45800000D03*
%TD*%
D15*
%TO.P,D9,2,A*%
%TO.N,Net-(D9-A)*%
X178258212Y-43400000D03*
%TO.P,D9,1,K*%
%TO.N,4V3*%
X178258212Y-45600000D03*
%TD*%
D16*
%TO.P,U16,5,VIN*%
%TO.N,4V3*%
X182634562Y-49649999D03*
%TO.P,U16,4,SET*%
%TO.N,Net-(J19-Pin_2)*%
X182634562Y-51550001D03*
%TO.P,U16,3,CTRL*%
%TO.N,LED3R*%
X180081862Y-51550001D03*
%TO.P,U16,2,GND*%
%TO.N,GND*%
X180081862Y-50600000D03*
%TO.P,U16,1,SW*%
%TO.N,Net-(D9-A)*%
X180081862Y-49649999D03*
%TD*%
D17*
%TO.P,R16,2*%
%TO.N,Net-(J19-Pin_2)*%
X184458212Y-51412500D03*
%TO.P,R16,1*%
%TO.N,4V3*%
X184458212Y-49587500D03*
%TD*%
D18*
%TO.P,C25,2*%
%TO.N,4V3*%
X178258212Y-47025000D03*
%TO.P,C25,1*%
%TO.N,GND*%
X178258212Y-48575000D03*
%TD*%
D17*
%TO.P,R18,1*%
%TO.N,4V3*%
X201396600Y-69275000D03*
%TO.P,R18,2*%
%TO.N,Net-(J19-Pin_6)*%
X201396600Y-71100000D03*
%TD*%
D14*
%TO.P,L11,1,1*%
%TO.N,Net-(J19-Pin_5)*%
X201100000Y-65600000D03*
%TO.P,L11,2,2*%
%TO.N,Net-(D11-A)*%
X197493200Y-65600000D03*
%TD*%
D16*
%TO.P,U18,1,SW*%
%TO.N,Net-(D11-A)*%
X197120250Y-69349999D03*
%TO.P,U18,2,GND*%
%TO.N,GND*%
X197120250Y-70300000D03*
%TO.P,U18,3,CTRL*%
%TO.N,LED3B*%
X197120250Y-71250001D03*
%TO.P,U18,4,SET*%
%TO.N,Net-(J19-Pin_6)*%
X199672950Y-71250001D03*
%TO.P,U18,5,VIN*%
%TO.N,4V3*%
X199672950Y-69349999D03*
%TD*%
D15*
%TO.P,D11,1,K*%
%TO.N,4V3*%
X195396600Y-65400000D03*
%TO.P,D11,2,A*%
%TO.N,Net-(D11-A)*%
X195396600Y-63200000D03*
%TD*%
D19*
%TO.P,C31,1*%
%TO.N,Net-(J19-Pin_5)*%
X203750000Y-65475000D03*
%TO.P,C31,2*%
%TO.N,Net-(J19-Pin_6)*%
X203750000Y-67025000D03*
%TD*%
D20*
%TO.P,J12,1,Pin_1*%
%TO.N,Net-(J12-Pin_1)*%
X169319381Y-28179294D03*
D21*
%TO.P,J12,2,Pin_2*%
%TO.N,Net-(J12-Pin_2)*%
X171399484Y-29566078D03*
%TO.P,J12,3,Pin_3*%
%TO.N,Net-(J12-Pin_3)*%
X173479587Y-30952863D03*
%TO.P,J12,4,Pin_4*%
%TO.N,Net-(J12-Pin_4)*%
X175559690Y-32339647D03*
%TO.P,J12,5,Pin_5*%
%TO.N,Net-(J12-Pin_5)*%
X177639794Y-33726431D03*
%TO.P,J12,6,Pin_6*%
%TO.N,Net-(J12-Pin_6)*%
X179719897Y-35113216D03*
%TO.P,J12,7,Pin_7*%
%TO.N,Net-(J12-Pin_7)*%
X181800000Y-36500000D03*
%TO.P,J12,8,Pin_8*%
%TO.N,Net-(J12-Pin_8)*%
X183880103Y-37886784D03*
%TO.P,J12,9,Pin_9*%
%TO.N,3.3V*%
X185960206Y-39273569D03*
%TO.P,J12,10,Pin_10*%
%TO.N,Temp2*%
X188040309Y-40660353D03*
%TD*%
D22*
%TO.P,J19,1,Pin_1*%
%TO.N,Net-(J19-Pin_1)*%
X201679294Y-55019381D03*
D23*
%TO.P,J19,2,Pin_2*%
%TO.N,Net-(J19-Pin_2)*%
X203066114Y-57099461D03*
%TO.P,J19,3,Pin_3*%
%TO.N,Net-(J19-Pin_3)*%
X204452936Y-59179538D03*
%TO.P,J19,4,Pin_4*%
%TO.N,Net-(J19-Pin_4)*%
X205839756Y-61259617D03*
%TO.P,J19,5,Pin_5*%
%TO.N,Net-(J19-Pin_5)*%
X207226576Y-63339697D03*
%TO.P,J19,6,Pin_6*%
%TO.N,Net-(J19-Pin_6)*%
X208613399Y-65419776D03*
%TO.P,J19,7,Pin_7*%
%TO.N,Net-(J19-Pin_7)*%
X210000218Y-67499855D03*
%TO.P,J19,8,Pin_8*%
%TO.N,Net-(J19-Pin_8)*%
X211387038Y-69579934D03*
%TO.P,J19,9,Pin_9*%
%TO.N,3.3V*%
X212773859Y-71660012D03*
%TO.P,J19,10,Pin_10*%
%TO.N,Temp3*%
X214160681Y-73740091D03*
%TD*%
D24*
%TO.P,J20,1,Pin_1*%
%TO.N,Net-(J20-Pin_1)*%
X165875844Y-83262500D03*
D25*
%TO.P,J20,2,Pin_2*%
%TO.N,Net-(J20-Pin_2)*%
X165875844Y-85802500D03*
%TO.P,J20,3,Pin_3*%
%TO.N,Net-(J20-Pin_3)*%
X165875844Y-88342500D03*
%TO.P,J20,4,Pin_4*%
%TO.N,Net-(J20-Pin_4)*%
X165875844Y-90882500D03*
%TO.P,J20,5,Pin_5*%
%TO.N,5V*%
X165875844Y-93422500D03*
%TD*%
D24*
%TO.P,J11,1,Pin_1*%
%TO.N,Net-(J11-Pin_1)*%
X184390000Y-83350000D03*
D25*
%TO.P,J11,2,Pin_2*%
%TO.N,Net-(J11-Pin_2)*%
X184390000Y-85890000D03*
%TO.P,J11,3,Pin_3*%
%TO.N,Net-(J11-Pin_3)*%
X184390000Y-88430000D03*
%TO.P,J11,4,Pin_4*%
%TO.N,Net-(J11-Pin_4)*%
X184390000Y-90970000D03*
%TO.P,J11,5,Pin_5*%
%TO.N,5V*%
X184390000Y-93510000D03*
%TD*%
D24*
%TO.P,J14,1,Pin_1*%
%TO.N,Net-(J14-Pin_1)*%
X203120000Y-83240000D03*
D25*
%TO.P,J14,2,Pin_2*%
%TO.N,Net-(J14-Pin_2)*%
X203120000Y-85780000D03*
%TO.P,J14,3,Pin_3*%
%TO.N,Net-(J14-Pin_3)*%
X203120000Y-88320000D03*
%TO.P,J14,4,Pin_4*%
%TO.N,Net-(J14-Pin_4)*%
X203120000Y-90860000D03*
%TO.P,J14,5,Pin_5*%
%TO.N,5V*%
X203120000Y-93400000D03*
%TD*%
D26*
%TO.P,C32,1*%
%TO.N,Net-(J19-Pin_7)*%
X208145000Y-78100000D03*
%TO.P,C32,2*%
%TO.N,Net-(J19-Pin_8)*%
X209695000Y-78100000D03*
%TD*%
D19*
%TO.P,C23,1*%
%TO.N,Net-(J12-Pin_5)*%
X159500000Y-42825000D03*
%TO.P,C23,2*%
%TO.N,Net-(J12-Pin_6)*%
X159500000Y-44375000D03*
%TD*%
%TO.P,C30,1*%
%TO.N,Net-(J19-Pin_3)*%
X191250000Y-56525000D03*
%TO.P,C30,2*%
%TO.N,Net-(J19-Pin_4)*%
X191250000Y-58075000D03*
%TD*%
%TO.P,C21,1*%
%TO.N,Net-(J12-Pin_1)*%
X159500000Y-28025000D03*
%TO.P,C21,2*%
%TO.N,Net-(J12-Pin_2)*%
X159500000Y-29575000D03*
%TD*%
%TO.P,C22,1*%
%TO.N,Net-(J12-Pin_3)*%
X170000000Y-33225000D03*
%TO.P,C22,2*%
%TO.N,Net-(J12-Pin_4)*%
X170000000Y-34775000D03*
%TD*%
%TO.P,C29,1*%
%TO.N,Net-(J19-Pin_1)*%
X193800000Y-51200000D03*
%TO.P,C29,2*%
%TO.N,Net-(J19-Pin_2)*%
X193800000Y-52750000D03*
%TD*%
D26*
%TO.P,C14,1*%
%TO.N,Net-(J2-Pin_3)*%
X134975000Y-27250000D03*
%TO.P,C14,2*%
%TO.N,Net-(J2-Pin_4)*%
X136525000Y-27250000D03*
%TD*%
D27*
%TO.P,C24,1*%
%TO.N,Net-(J12-Pin_7)*%
X170051992Y-43451992D03*
%TO.P,C24,2*%
%TO.N,Net-(J12-Pin_8)*%
X171148008Y-44548008D03*
%TD*%
D26*
%TO.P,C13,1*%
%TO.N,Net-(J2-Pin_1)*%
X129345000Y-26900000D03*
%TO.P,C13,2*%
%TO.N,Net-(J2-Pin_2)*%
X130895000Y-26900000D03*
%TD*%
D19*
%TO.P,C15,1*%
%TO.N,Net-(J2-Pin_5)*%
X134600000Y-37725000D03*
%TO.P,C15,2*%
%TO.N,Net-(J2-Pin_6)*%
X134600000Y-39275000D03*
%TD*%
D26*
%TO.P,C16,1*%
%TO.N,Net-(J2-Pin_7)*%
X141475000Y-36750000D03*
%TO.P,C16,2*%
%TO.N,Net-(J2-Pin_8)*%
X143025000Y-36750000D03*
%TD*%
D28*
%TO.P,R17,1*%
%TO.N,4V3*%
X187237499Y-59119424D03*
%TO.P,R17,2*%
%TO.N,Net-(J19-Pin_4)*%
X189062499Y-59119424D03*
%TD*%
D29*
%TO.P,L6,1,1*%
%TO.N,Net-(J12-Pin_3)*%
X162625000Y-34768200D03*
%TO.P,L6,2,2*%
%TO.N,Net-(D2-A)*%
X162625000Y-38375000D03*
%TD*%
D30*
%TO.P,J13,1,1*%
%TO.N,24V*%
X125644247Y-96679110D03*
%TO.P,J13,2,2*%
%TO.N,GND*%
X128858185Y-100509332D03*
%TO.P,J13,3,3*%
%TO.N,Net-(U1-GPIO20)*%
X132072123Y-104339554D03*
%TO.P,J13,4,4*%
%TO.N,Net-(U1-GPIO21)*%
X135286061Y-108169777D03*
%TO.P,J13,5,5*%
%TO.N,GND*%
X138500000Y-112000000D03*
%TO.P,J13,6,6*%
%TO.N,24V*%
X141713938Y-115830222D03*
%TD*%
D31*
%TO.P,U14,1,SW*%
%TO.N,Net-(D3-A)*%
X154993649Y-48752700D03*
%TO.P,U14,2,GND*%
%TO.N,GND*%
X155943650Y-48752700D03*
%TO.P,U14,3,CTRL*%
%TO.N,LED2B*%
X156893651Y-48752700D03*
%TO.P,U14,4,SET*%
%TO.N,Net-(J12-Pin_6)*%
X156893651Y-46200000D03*
%TO.P,U14,5,VIN*%
%TO.N,4V2*%
X154993649Y-46200000D03*
%TD*%
D24*
%TO.P,J16,1,Pin_1*%
%TO.N,GND*%
X190055000Y-118025000D03*
D25*
%TO.P,J16,2,Pin_2*%
X187515000Y-118025000D03*
%TD*%
D24*
%TO.P,J9,1,Pin_1*%
%TO.N,4V1*%
X181010000Y-98975000D03*
D25*
%TO.P,J9,2,Pin_2*%
X183550000Y-98975000D03*
%TD*%
D29*
%TO.P,L4,1,1*%
%TO.N,Net-(J2-Pin_7)*%
X137487500Y-42296600D03*
%TO.P,L4,2,2*%
%TO.N,Net-(D5-A)*%
X137487500Y-45903400D03*
%TD*%
D32*
%TO.P,R28,1*%
%TO.N,Net-(U2-~{OE})*%
X140837500Y-64800000D03*
%TO.P,R28,2*%
%TO.N,GND*%
X143762500Y-64800000D03*
%TD*%
D24*
%TO.P,J10,1,Pin_1*%
%TO.N,GND*%
X169760000Y-99000000D03*
D25*
%TO.P,J10,2,Pin_2*%
X172300000Y-99000000D03*
%TD*%
D33*
%TO.P,R20,1*%
%TO.N,Temp3*%
X137200000Y-75200000D03*
%TO.P,R20,2*%
%TO.N,GND*%
X137200000Y-78125000D03*
%TD*%
D29*
%TO.P,L8,1,1*%
%TO.N,Net-(J12-Pin_7)*%
X162600000Y-46296600D03*
%TO.P,L8,2,2*%
%TO.N,Net-(D4-A)*%
X162600000Y-49903400D03*
%TD*%
D34*
%TO.P,U2,1,A0*%
%TO.N,Net-(U2-A0)*%
X132137500Y-61175000D03*
%TO.P,U2,2,A1*%
%TO.N,Net-(U2-A1)*%
X132137500Y-61825000D03*
%TO.P,U2,3,A2*%
%TO.N,Net-(U2-A2)*%
X132137500Y-62475000D03*
%TO.P,U2,4,A3*%
%TO.N,Net-(U2-A3)*%
X132137500Y-63125000D03*
%TO.P,U2,5,A4*%
%TO.N,Net-(U2-A4)*%
X132137500Y-63775000D03*
%TO.P,U2,6,LED0*%
%TO.N,LED1R*%
X132137500Y-64425000D03*
%TO.P,U2,7,LED1*%
%TO.N,LED1G*%
X132137500Y-65075000D03*
%TO.P,U2,8,LED2*%
%TO.N,LED1B*%
X132137500Y-65725000D03*
%TO.P,U2,9,LED3*%
%TO.N,LED1W*%
X132137500Y-66375000D03*
%TO.P,U2,10,LED4*%
%TO.N,LED3R*%
X132137500Y-67025000D03*
%TO.P,U2,11,LED5*%
%TO.N,LED3G*%
X132137500Y-67675000D03*
%TO.P,U2,12,LED6*%
%TO.N,LED3B*%
X132137500Y-68325000D03*
%TO.P,U2,13,LED7*%
%TO.N,LED3W*%
X132137500Y-68975000D03*
%TO.P,U2,14,VSS*%
%TO.N,GND*%
X132137500Y-69625000D03*
%TO.P,U2,15,LED8*%
%TO.N,LED2W*%
X137862500Y-69625000D03*
%TO.P,U2,16,LED9*%
%TO.N,LED2B*%
X137862500Y-68975000D03*
%TO.P,U2,17,LED10*%
%TO.N,LED2G*%
X137862500Y-68325000D03*
%TO.P,U2,18,LED11*%
%TO.N,LED2R*%
X137862500Y-67675000D03*
%TO.P,U2,19,LED12*%
%TO.N,unconnected-(U2-LED12-Pad19)*%
X137862500Y-67025000D03*
%TO.P,U2,20,LED13*%
%TO.N,unconnected-(U2-LED13-Pad20)*%
X137862500Y-66375000D03*
%TO.P,U2,21,LED14*%
%TO.N,unconnected-(U2-LED14-Pad21)*%
X137862500Y-65725000D03*
%TO.P,U2,22,LED15*%
%TO.N,unconnected-(U2-LED15-Pad22)*%
X137862500Y-65075000D03*
%TO.P,U2,23,~{OE}*%
%TO.N,Net-(U2-~{OE})*%
X137862500Y-64425000D03*
%TO.P,U2,24,A5*%
%TO.N,Net-(U2-A5)*%
X137862500Y-63775000D03*
%TO.P,U2,25,EXTCLK*%
%TO.N,unconnected-(U2-EXTCLK-Pad25)*%
X137862500Y-63125000D03*
%TO.P,U2,26,SCL*%
%TO.N,SCL*%
X137862500Y-62475000D03*
%TO.P,U2,27,SDA*%
%TO.N,SDA*%
X137862500Y-61825000D03*
%TO.P,U2,28,VDD*%
%TO.N,3.3V*%
X137862500Y-61175000D03*
%TD*%
D35*
%TO.P,Q1,1*%
%TO.N,S1*%
X170890000Y-77310000D03*
D36*
%TO.P,Q1,2*%
%TO.N,S2*%
X170890000Y-79850000D03*
%TO.P,Q1,3*%
%TO.N,S3*%
X170890000Y-82390000D03*
%TO.P,Q1,4*%
%TO.N,S4*%
X170890000Y-84930000D03*
%TO.P,Q1,5*%
%TO.N,unconnected-(Q1-Pad5)*%
X170890000Y-87470000D03*
%TO.P,Q1,6*%
%TO.N,unconnected-(Q1-Pad6)*%
X170890000Y-90010000D03*
%TO.P,Q1,7*%
%TO.N,unconnected-(Q1-Pad7)*%
X170890000Y-92550000D03*
%TO.P,Q1,8,E*%
%TO.N,GND*%
X170890000Y-95090000D03*
%TO.P,Q1,9*%
%TO.N,5V*%
X178510000Y-95090000D03*
%TO.P,Q1,10*%
%TO.N,unconnected-(Q1-Pad10)*%
X178510000Y-92550000D03*
%TO.P,Q1,11*%
%TO.N,unconnected-(Q1-Pad11)*%
X178510000Y-90010000D03*
%TO.P,Q1,12*%
%TO.N,unconnected-(Q1-Pad12)*%
X178510000Y-87470000D03*
%TO.P,Q1,13*%
%TO.N,Net-(J11-Pin_4)*%
X178510000Y-84930000D03*
%TO.P,Q1,14*%
%TO.N,Net-(J11-Pin_3)*%
X178510000Y-82390000D03*
%TO.P,Q1,15*%
%TO.N,Net-(J11-Pin_2)*%
X178510000Y-79850000D03*
%TO.P,Q1,16*%
%TO.N,Net-(J11-Pin_1)*%
X178510000Y-77310000D03*
%TD*%
D37*
%TO.P,D13,1,K*%
%TO.N,5V*%
X143400000Y-93000000D03*
%TO.P,D13,2,A*%
%TO.N,GND*%
X145600000Y-93000000D03*
%TD*%
D24*
%TO.P,J18,1,Pin_1*%
%TO.N,GND*%
X187765000Y-99025000D03*
D25*
%TO.P,J18,2,Pin_2*%
X190305000Y-99025000D03*
%TD*%
D31*
%TO.P,U9,1,SW*%
%TO.N,Net-(D7-A)*%
X138099998Y-32052700D03*
%TO.P,U9,2,GND*%
%TO.N,GND*%
X139049999Y-32052700D03*
%TO.P,U9,3,CTRL*%
%TO.N,LED1G*%
X140000000Y-32052700D03*
%TO.P,U9,4,SET*%
%TO.N,Net-(J2-Pin_4)*%
X140000000Y-29500000D03*
%TO.P,U9,5,VIN*%
%TO.N,4V1*%
X138099998Y-29500000D03*
%TD*%
D28*
%TO.P,R9,1*%
%TO.N,4V1*%
X141275000Y-42400000D03*
%TO.P,R9,2*%
%TO.N,Net-(J2-Pin_8)*%
X143100000Y-42400000D03*
%TD*%
D38*
%TO.P,D6,1,K*%
%TO.N,4V1*%
X127712500Y-48200000D03*
%TO.P,D6,2,A*%
%TO.N,Net-(D6-A)*%
X125512500Y-48200000D03*
%TD*%
D24*
%TO.P,J24,1,Pin_1*%
%TO.N,GND*%
X205390000Y-99000000D03*
D25*
%TO.P,J24,2,Pin_2*%
X207930000Y-99000000D03*
%TD*%
D39*
%TO.P,U1,0,GPIO0*%
%TO.N,Temp1*%
X142380000Y-72380000D03*
%TO.P,U1,1,GPIO1*%
%TO.N,Temp2*%
X139840000Y-72380000D03*
%TO.P,U1,2,GPIO2*%
%TO.N,Temp3*%
X137300000Y-72380000D03*
%TO.P,U1,3,GPIO3*%
%TO.N,unconnected-(U1-GPIO3-Pad3)*%
X134760000Y-72380000D03*
%TO.P,U1,3.3,3V3*%
%TO.N,3.3V*%
X129680000Y-72380000D03*
%TO.P,U1,4,GPIO4*%
%TO.N,unconnected-(U1-GPIO4-Pad4)*%
X132220000Y-72380000D03*
%TO.P,U1,5,GPIO5*%
%TO.N,unconnected-(U1-GPIO5-Pad5)*%
X124600000Y-87620000D03*
%TO.P,U1,5V,5V*%
%TO.N,Net-(D14-K)*%
X124600000Y-72380000D03*
%TO.P,U1,6,GPIO6*%
%TO.N,unconnected-(U1-GPIO6-Pad6)*%
X127140000Y-87620000D03*
%TO.P,U1,7,GPIO7*%
%TO.N,unconnected-(U1-GPIO7-Pad7)*%
X129680000Y-87620000D03*
%TO.P,U1,8,GPIO8*%
%TO.N,SDA*%
X132220000Y-87620000D03*
%TO.P,U1,9,GPIO9*%
%TO.N,SCL*%
X134760000Y-87620000D03*
%TO.P,U1,10,GPIO10*%
%TO.N,unconnected-(U1-GPIO10-Pad10)*%
X137300000Y-87620000D03*
%TO.P,U1,20,GPIO20*%
%TO.N,Net-(U1-GPIO20)*%
X139840000Y-87620000D03*
%TO.P,U1,21,GPIO21*%
%TO.N,Net-(U1-GPIO21)*%
X142380000Y-87620000D03*
%TO.P,U1,G,GND*%
%TO.N,GND*%
X127140000Y-72380000D03*
%TD*%
D40*
%TO.P,R27,1*%
%TO.N,Net-(U2-A0)*%
X126662500Y-59375000D03*
%TO.P,R27,2*%
%TO.N,GND*%
X123737500Y-59375000D03*
%TD*%
D29*
%TO.P,L10,1,1*%
%TO.N,Net-(J19-Pin_3)*%
X183449999Y-59516024D03*
%TO.P,L10,2,2*%
%TO.N,Net-(D10-A)*%
X183449999Y-63122824D03*
%TD*%
D40*
%TO.P,R5,1*%
%TO.N,Net-(U4-A1)*%
X154162500Y-63700000D03*
%TO.P,R5,2*%
%TO.N,GND*%
X151237500Y-63700000D03*
%TD*%
D24*
%TO.P,J5,1,Pin_1*%
%TO.N,5V*%
X163030000Y-99050000D03*
D25*
%TO.P,J5,2,Pin_2*%
X165570000Y-99050000D03*
%TD*%
D29*
%TO.P,L3,1,1*%
%TO.N,Net-(J2-Pin_5)*%
X127912500Y-42296600D03*
%TO.P,L3,2,2*%
%TO.N,Net-(D6-A)*%
X127912500Y-45903400D03*
%TD*%
D33*
%TO.P,R15,1*%
%TO.N,Temp2*%
X139800000Y-75237500D03*
%TO.P,R15,2*%
%TO.N,GND*%
X139800000Y-78162500D03*
%TD*%
D40*
%TO.P,R24,1*%
%TO.N,Net-(U2-A3)*%
X126662500Y-66775000D03*
%TO.P,R24,2*%
%TO.N,GND*%
X123737500Y-66775000D03*
%TD*%
D38*
%TO.P,D1,1,K*%
%TO.N,4V2*%
X150903400Y-36403400D03*
%TO.P,D1,2,A*%
%TO.N,Net-(D1-A)*%
X148703400Y-36403400D03*
%TD*%
D24*
%TO.P,J15,1,Pin_1*%
%TO.N,24V*%
X198975000Y-118025000D03*
D25*
%TO.P,J15,2,Pin_2*%
X201515000Y-118025000D03*
%TD*%
D38*
%TO.P,D4,1,K*%
%TO.N,4V2*%
X163903400Y-52100000D03*
%TO.P,D4,2,A*%
%TO.N,Net-(D4-A)*%
X161703400Y-52100000D03*
%TD*%
D28*
%TO.P,R14,1*%
%TO.N,4V2*%
X167840899Y-45900000D03*
%TO.P,R14,2*%
%TO.N,Net-(J12-Pin_8)*%
X169665899Y-45900000D03*
%TD*%
D33*
%TO.P,R10,1*%
%TO.N,Temp1*%
X142400000Y-75237500D03*
%TO.P,R10,2*%
%TO.N,GND*%
X142400000Y-78162500D03*
%TD*%
D32*
%TO.P,R22,1*%
%TO.N,Net-(U2-A5)*%
X141337500Y-62400000D03*
%TO.P,R22,2*%
%TO.N,GND*%
X144262500Y-62400000D03*
%TD*%
D40*
%TO.P,R23,1*%
%TO.N,Net-(U2-A4)*%
X126662500Y-69275000D03*
%TO.P,R23,2*%
%TO.N,GND*%
X123737500Y-69275000D03*
%TD*%
D31*
%TO.P,U13,1,SW*%
%TO.N,Net-(D2-A)*%
X166471599Y-38647950D03*
%TO.P,U13,2,GND*%
%TO.N,GND*%
X167421600Y-38647950D03*
%TO.P,U13,3,CTRL*%
%TO.N,LED2G*%
X168371601Y-38647950D03*
%TO.P,U13,4,SET*%
%TO.N,Net-(J12-Pin_4)*%
X168371601Y-36095250D03*
%TO.P,U13,5,VIN*%
%TO.N,4V2*%
X166471599Y-36095250D03*
%TD*%
D41*
%TO.P,C2,1*%
%TO.N,GND*%
X145500000Y-104000000D03*
D42*
%TO.P,C2,2*%
%TO.N,5V*%
X148000000Y-104000000D03*
%TD*%
D40*
%TO.P,R25,1*%
%TO.N,Net-(U2-A2)*%
X126662500Y-64275000D03*
%TO.P,R25,2*%
%TO.N,GND*%
X123737500Y-64275000D03*
%TD*%
D41*
%TO.P,C1,1*%
%TO.N,GND*%
X137000000Y-93500000D03*
D42*
%TO.P,C1,2*%
%TO.N,5V*%
X139500000Y-93500000D03*
%TD*%
D35*
%TO.P,Q3,1*%
%TO.N,S9*%
X152755844Y-77380000D03*
D36*
%TO.P,Q3,2*%
%TO.N,S10*%
X152755844Y-79920000D03*
%TO.P,Q3,3*%
%TO.N,S11*%
X152755844Y-82460000D03*
%TO.P,Q3,4*%
%TO.N,S12*%
X152755844Y-85000000D03*
%TO.P,Q3,5*%
%TO.N,unconnected-(Q3-Pad5)*%
X152755844Y-87540000D03*
%TO.P,Q3,6*%
%TO.N,unconnected-(Q3-Pad6)*%
X152755844Y-90080000D03*
%TO.P,Q3,7*%
%TO.N,unconnected-(Q3-Pad7)*%
X152755844Y-92620000D03*
%TO.P,Q3,8,E*%
%TO.N,GND*%
X152755844Y-95160000D03*
%TO.P,Q3,9*%
%TO.N,5V*%
X160375844Y-95160000D03*
%TO.P,Q3,10*%
%TO.N,unconnected-(Q3-Pad10)*%
X160375844Y-92620000D03*
%TO.P,Q3,11*%
%TO.N,unconnected-(Q3-Pad11)*%
X160375844Y-90080000D03*
%TO.P,Q3,12*%
%TO.N,unconnected-(Q3-Pad12)*%
X160375844Y-87540000D03*
%TO.P,Q3,13*%
%TO.N,Net-(J20-Pin_4)*%
X160375844Y-85000000D03*
%TO.P,Q3,14*%
%TO.N,Net-(J20-Pin_3)*%
X160375844Y-82460000D03*
%TO.P,Q3,15*%
%TO.N,Net-(J20-Pin_2)*%
X160375844Y-79920000D03*
%TO.P,Q3,16*%
%TO.N,Net-(J20-Pin_1)*%
X160375844Y-77380000D03*
%TD*%
D24*
%TO.P,J6,1,Pin_1*%
%TO.N,GND*%
X151530000Y-99050000D03*
D25*
%TO.P,J6,2,Pin_2*%
X154070000Y-99050000D03*
%TD*%
D31*
%TO.P,U11,1,SW*%
%TO.N,Net-(D5-A)*%
X141237499Y-46676350D03*
%TO.P,U11,2,GND*%
%TO.N,GND*%
X142187500Y-46676350D03*
%TO.P,U11,3,CTRL*%
%TO.N,LED1W*%
X143137501Y-46676350D03*
%TO.P,U11,4,SET*%
%TO.N,Net-(J2-Pin_8)*%
X143137501Y-44123650D03*
%TO.P,U11,5,VIN*%
%TO.N,4V1*%
X141237499Y-44123650D03*
%TD*%
%TO.P,U12,1,SW*%
%TO.N,Net-(D1-A)*%
X154903398Y-34456100D03*
%TO.P,U12,2,GND*%
%TO.N,GND*%
X155853399Y-34456100D03*
%TO.P,U12,3,CTRL*%
%TO.N,LED2R*%
X156803400Y-34456100D03*
%TO.P,U12,4,SET*%
%TO.N,Net-(J12-Pin_2)*%
X156803400Y-31903400D03*
%TO.P,U12,5,VIN*%
%TO.N,4V2*%
X154903398Y-31903400D03*
%TD*%
D28*
%TO.P,R7,1*%
%TO.N,4V1*%
X138087500Y-27750000D03*
%TO.P,R7,2*%
%TO.N,Net-(J2-Pin_4)*%
X139912500Y-27750000D03*
%TD*%
D24*
%TO.P,J8,1,Pin_1*%
%TO.N,GND*%
X172260000Y-118000000D03*
D25*
%TO.P,J8,2,Pin_2*%
X169720000Y-118000000D03*
%TD*%
D38*
%TO.P,D3,1,K*%
%TO.N,4V2*%
X150920000Y-50500000D03*
%TO.P,D3,2,A*%
%TO.N,Net-(D3-A)*%
X148720000Y-50500000D03*
%TD*%
D40*
%TO.P,R1,1*%
%TO.N,Net-(U4-A2)*%
X154162500Y-61300000D03*
%TO.P,R1,2*%
%TO.N,GND*%
X151237500Y-61300000D03*
%TD*%
D38*
%TO.P,D10,1,K*%
%TO.N,4V3*%
X183249999Y-65319424D03*
%TO.P,D10,2,A*%
%TO.N,Net-(D10-A)*%
X181049999Y-65319424D03*
%TD*%
D31*
%TO.P,U15,1,SW*%
%TO.N,Net-(D4-A)*%
X167803398Y-50200000D03*
%TO.P,U15,2,GND*%
%TO.N,GND*%
X168753399Y-50200000D03*
%TO.P,U15,3,CTRL*%
%TO.N,LED2W*%
X169703400Y-50200000D03*
%TO.P,U15,4,SET*%
%TO.N,Net-(J12-Pin_8)*%
X169703400Y-47647300D03*
%TO.P,U15,5,VIN*%
%TO.N,4V2*%
X167803398Y-47647300D03*
%TD*%
D29*
%TO.P,L7,1,1*%
%TO.N,Net-(J12-Pin_5)*%
X150200000Y-44696600D03*
%TO.P,L7,2,2*%
%TO.N,Net-(D3-A)*%
X150200000Y-48303400D03*
%TD*%
D24*
%TO.P,J3,1,Pin_1*%
%TO.N,24V*%
X162820000Y-118050000D03*
D25*
%TO.P,J3,2,Pin_2*%
X165360000Y-118050000D03*
%TD*%
D40*
%TO.P,R4,1*%
%TO.N,Net-(U4-~{RESET})*%
X154162500Y-68500000D03*
%TO.P,R4,2*%
%TO.N,3.3V*%
X151237500Y-68500000D03*
%TD*%
D38*
%TO.P,D2,1,K*%
%TO.N,4V2*%
X161000000Y-40700000D03*
%TO.P,D2,2,A*%
%TO.N,Net-(D2-A)*%
X158800000Y-40700000D03*
%TD*%
%TO.P,D8,1,K*%
%TO.N,4V1*%
X124700000Y-34500000D03*
%TO.P,D8,2,A*%
%TO.N,Net-(D8-A)*%
X122500000Y-34500000D03*
%TD*%
D24*
%TO.P,J22,1,Pin_1*%
%TO.N,GND*%
X208140000Y-118000000D03*
D25*
%TO.P,J22,2,Pin_2*%
X205600000Y-118000000D03*
%TD*%
D29*
%TO.P,L5,1,1*%
%TO.N,Net-(J12-Pin_1)*%
X151100000Y-30500000D03*
%TO.P,L5,2,2*%
%TO.N,Net-(D1-A)*%
X151100000Y-34106800D03*
%TD*%
D28*
%TO.P,R11,1*%
%TO.N,4V2*%
X154940899Y-30103400D03*
%TO.P,R11,2*%
%TO.N,Net-(J12-Pin_2)*%
X156765899Y-30103400D03*
%TD*%
%TO.P,R13,1*%
%TO.N,4V2*%
X155007500Y-44400000D03*
%TO.P,R13,2*%
%TO.N,Net-(J12-Pin_6)*%
X156832500Y-44400000D03*
%TD*%
%TO.P,R12,1*%
%TO.N,4V2*%
X166403400Y-34271600D03*
%TO.P,R12,2*%
%TO.N,Net-(J12-Pin_4)*%
X168228400Y-34271600D03*
%TD*%
D40*
%TO.P,R26,1*%
%TO.N,Net-(U2-A1)*%
X126662500Y-61775000D03*
%TO.P,R26,2*%
%TO.N,GND*%
X123737500Y-61775000D03*
%TD*%
D24*
%TO.P,J23,1,Pin_1*%
%TO.N,4V3*%
X216890000Y-99000000D03*
D25*
%TO.P,J23,2,Pin_2*%
X219430000Y-99000000D03*
%TD*%
D40*
%TO.P,R3,1*%
%TO.N,Net-(U4-INTA)*%
X154162500Y-73300000D03*
%TO.P,R3,2*%
%TO.N,3.3V*%
X151237500Y-73300000D03*
%TD*%
D24*
%TO.P,J17,1,Pin_1*%
%TO.N,4V2*%
X198975000Y-99025000D03*
D25*
%TO.P,J17,2,Pin_2*%
X201515000Y-99025000D03*
%TD*%
D28*
%TO.P,R19,1*%
%TO.N,4V3*%
X214787500Y-87603400D03*
%TO.P,R19,2*%
%TO.N,Net-(J19-Pin_8)*%
X216612500Y-87603400D03*
%TD*%
D24*
%TO.P,J4,1,Pin_1*%
%TO.N,GND*%
X154110000Y-118025000D03*
D25*
%TO.P,J4,2,Pin_2*%
X151570000Y-118025000D03*
%TD*%
D31*
%TO.P,U17,1,SW*%
%TO.N,Net-(D10-A)*%
X187299998Y-63495774D03*
%TO.P,U17,2,GND*%
%TO.N,GND*%
X188249999Y-63495774D03*
%TO.P,U17,3,CTRL*%
%TO.N,LED3G*%
X189200000Y-63495774D03*
%TO.P,U17,4,SET*%
%TO.N,Net-(J19-Pin_4)*%
X189200000Y-60943074D03*
%TO.P,U17,5,VIN*%
%TO.N,4V3*%
X187299998Y-60943074D03*
%TD*%
D38*
%TO.P,D7,1,K*%
%TO.N,4V1*%
X134100000Y-35000000D03*
%TO.P,D7,2,A*%
%TO.N,Net-(D7-A)*%
X131900000Y-35000000D03*
%TD*%
D31*
%TO.P,U19,1,SW*%
%TO.N,Net-(D12-A)*%
X214849999Y-91879750D03*
%TO.P,U19,2,GND*%
%TO.N,GND*%
X215800000Y-91879750D03*
%TO.P,U19,3,CTRL*%
%TO.N,LED3W*%
X216750001Y-91879750D03*
%TO.P,U19,4,SET*%
%TO.N,Net-(J19-Pin_8)*%
X216750001Y-89327050D03*
%TO.P,U19,5,VIN*%
%TO.N,4V3*%
X214849999Y-89327050D03*
%TD*%
D40*
%TO.P,R21,1*%
%TO.N,Net-(U4-A0)*%
X154162500Y-66100000D03*
%TO.P,R21,2*%
%TO.N,GND*%
X151237500Y-66100000D03*
%TD*%
D24*
%TO.P,J7,1,Pin_1*%
%TO.N,24V*%
X181220000Y-118000000D03*
D25*
%TO.P,J7,2,Pin_2*%
X183760000Y-118000000D03*
%TD*%
D31*
%TO.P,U10,1,SW*%
%TO.N,Net-(D6-A)*%
X131762499Y-45276350D03*
%TO.P,U10,2,GND*%
%TO.N,GND*%
X132712500Y-45276350D03*
%TO.P,U10,3,CTRL*%
%TO.N,LED1B*%
X133662501Y-45276350D03*
%TO.P,U10,4,SET*%
%TO.N,Net-(J2-Pin_6)*%
X133662501Y-42723650D03*
%TO.P,U10,5,VIN*%
%TO.N,4V1*%
X131762499Y-42723650D03*
%TD*%
D38*
%TO.P,D5,1,K*%
%TO.N,4V1*%
X137287500Y-48100000D03*
%TO.P,D5,2,A*%
%TO.N,Net-(D5-A)*%
X135087500Y-48100000D03*
%TD*%
D28*
%TO.P,R8,1*%
%TO.N,4V1*%
X131800000Y-41000000D03*
%TO.P,R8,2*%
%TO.N,Net-(J2-Pin_6)*%
X133625000Y-41000000D03*
%TD*%
D43*
%TO.P,U4,1,GPB0*%
%TO.N,S9*%
X172800000Y-60600000D03*
%TO.P,U4,2,GPB1*%
%TO.N,S10*%
X171530000Y-60600000D03*
%TO.P,U4,3,GPB2*%
%TO.N,S11*%
X170260000Y-60600000D03*
%TO.P,U4,4,GPB3*%
%TO.N,S12*%
X168990000Y-60600000D03*
%TO.P,U4,5,GPB4*%
%TO.N,unconnected-(U4-GPB4-Pad5)*%
X167720000Y-60600000D03*
%TO.P,U4,6,GPB5*%
%TO.N,unconnected-(U4-GPB5-Pad6)*%
X166450000Y-60600000D03*
%TO.P,U4,7,GPB6*%
%TO.N,unconnected-(U4-GPB6-Pad7)*%
X165180000Y-60600000D03*
%TO.P,U4,8,GPB7*%
%TO.N,unconnected-(U4-GPB7-Pad8)*%
X163910000Y-60600000D03*
%TO.P,U4,9,VDD*%
%TO.N,3.3V*%
X162640000Y-60600000D03*
%TO.P,U4,10,VSS*%
%TO.N,GND*%
X161370000Y-60600000D03*
%TO.P,U4,11,NC*%
%TO.N,unconnected-(U4-NC-Pad11)*%
X160100000Y-60600000D03*
%TO.P,U4,12,SCK*%
%TO.N,SCL*%
X158830000Y-60600000D03*
%TO.P,U4,13,SDA*%
%TO.N,SDA*%
X157560000Y-60600000D03*
%TO.P,U4,14,NC*%
%TO.N,unconnected-(U4-NC-Pad14)*%
X156290000Y-60600000D03*
%TO.P,U4,15,A0*%
%TO.N,Net-(U4-A0)*%
X156290000Y-69900000D03*
%TO.P,U4,16,A1*%
%TO.N,Net-(U4-A1)*%
X157560000Y-69900000D03*
%TO.P,U4,17,A2*%
%TO.N,Net-(U4-A2)*%
X158830000Y-69900000D03*
%TO.P,U4,18,~{RESET}*%
%TO.N,Net-(U4-~{RESET})*%
X160100000Y-69900000D03*
%TO.P,U4,19,INTB*%
%TO.N,Net-(U4-INTB)*%
X161370000Y-69900000D03*
%TO.P,U4,20,INTA*%
%TO.N,Net-(U4-INTA)*%
X162640000Y-69900000D03*
%TO.P,U4,21,GPA0*%
%TO.N,S1*%
X163910000Y-69900000D03*
%TO.P,U4,22,GPA1*%
%TO.N,S2*%
X165180000Y-69900000D03*
%TO.P,U4,23,GPA2*%
%TO.N,S3*%
X166450000Y-69900000D03*
%TO.P,U4,24,GPA3*%
%TO.N,S4*%
X167720000Y-69900000D03*
%TO.P,U4,25,GPA4*%
%TO.N,S5*%
X168990000Y-69900000D03*
%TO.P,U4,26,GPA5*%
%TO.N,S6*%
X170260000Y-69900000D03*
%TO.P,U4,27,GPA6*%
%TO.N,S7*%
X171530000Y-69900000D03*
%TO.P,U4,28,GPA7*%
%TO.N,S8*%
X172800000Y-69900000D03*
%TD*%
D31*
%TO.P,U8,1,SW*%
%TO.N,Net-(D8-A)*%
X128549999Y-34176350D03*
%TO.P,U8,2,GND*%
%TO.N,GND*%
X129500000Y-34176350D03*
%TO.P,U8,3,CTRL*%
%TO.N,LED1R*%
X130450001Y-34176350D03*
%TO.P,U8,4,SET*%
%TO.N,Net-(J2-Pin_2)*%
X130450001Y-31623650D03*
%TO.P,U8,5,VIN*%
%TO.N,4V1*%
X128549999Y-31623650D03*
%TD*%
D24*
%TO.P,J21,1,Pin_1*%
%TO.N,24V*%
X216890000Y-118000000D03*
D25*
%TO.P,J21,2,Pin_2*%
X219430000Y-118000000D03*
%TD*%
D28*
%TO.P,R6,1*%
%TO.N,4V1*%
X128587500Y-29900000D03*
%TO.P,R6,2*%
%TO.N,Net-(J2-Pin_2)*%
X130412500Y-29900000D03*
%TD*%
D38*
%TO.P,D12,1,K*%
%TO.N,4V3*%
X210900000Y-93603400D03*
%TO.P,D12,2,A*%
%TO.N,Net-(D12-A)*%
X208700000Y-93603400D03*
%TD*%
D29*
%TO.P,L1,1,1*%
%TO.N,Net-(J2-Pin_1)*%
X124500000Y-28696600D03*
%TO.P,L1,2,2*%
%TO.N,Net-(D8-A)*%
X124500000Y-32303400D03*
%TD*%
%TO.P,L2,1,1*%
%TO.N,Net-(J2-Pin_3)*%
X134250000Y-29196600D03*
%TO.P,L2,2,2*%
%TO.N,Net-(D7-A)*%
X134250000Y-32803400D03*
%TD*%
D40*
%TO.P,R2,1*%
%TO.N,Net-(U4-INTB)*%
X154162500Y-70900000D03*
%TO.P,R2,2*%
%TO.N,3.3V*%
X151237500Y-70900000D03*
%TD*%
D29*
%TO.P,L12,1,1*%
%TO.N,Net-(J19-Pin_7)*%
X211000000Y-87900000D03*
%TO.P,L12,2,2*%
%TO.N,Net-(D12-A)*%
X211000000Y-91506800D03*
%TD*%
D35*
%TO.P,Q2,1*%
%TO.N,S5*%
X189500000Y-77400000D03*
D36*
%TO.P,Q2,2*%
%TO.N,S6*%
X189500000Y-79940000D03*
%TO.P,Q2,3*%
%TO.N,S7*%
X189500000Y-82480000D03*
%TO.P,Q2,4*%
%TO.N,S8*%
X189500000Y-85020000D03*
%TO.P,Q2,5*%
%TO.N,unconnected-(Q2-Pad5)*%
X189500000Y-87560000D03*
%TO.P,Q2,6*%
%TO.N,unconnected-(Q2-Pad6)*%
X189500000Y-90100000D03*
%TO.P,Q2,7*%
%TO.N,unconnected-(Q2-Pad7)*%
X189500000Y-92640000D03*
%TO.P,Q2,8,E*%
%TO.N,GND*%
X189500000Y-95180000D03*
%TO.P,Q2,9*%
%TO.N,5V*%
X197120000Y-95180000D03*
%TO.P,Q2,10*%
%TO.N,unconnected-(Q2-Pad10)*%
X197120000Y-92640000D03*
%TO.P,Q2,11*%
%TO.N,unconnected-(Q2-Pad11)*%
X197120000Y-90100000D03*
%TO.P,Q2,12*%
%TO.N,unconnected-(Q2-Pad12)*%
X197120000Y-87560000D03*
%TO.P,Q2,13*%
%TO.N,Net-(J14-Pin_4)*%
X197120000Y-85020000D03*
%TO.P,Q2,14*%
%TO.N,Net-(J14-Pin_3)*%
X197120000Y-82480000D03*
%TO.P,Q2,15*%
%TO.N,Net-(J14-Pin_2)*%
X197120000Y-79940000D03*
%TO.P,Q2,16*%
%TO.N,Net-(J14-Pin_1)*%
X197120000Y-77400000D03*
%TD*%
D44*
%TO.P,C19,1*%
%TO.N,GND*%
X153995000Y-50500000D03*
%TO.P,C19,2*%
%TO.N,4V2*%
X152445000Y-50500000D03*
%TD*%
%TO.P,C10,1*%
%TO.N,GND*%
X137025000Y-35000000D03*
%TO.P,C10,2*%
%TO.N,4V1*%
X135475000Y-35000000D03*
%TD*%
D18*
%TO.P,C27,1*%
%TO.N,GND*%
X195396600Y-68475000D03*
%TO.P,C27,2*%
%TO.N,4V3*%
X195396600Y-66925000D03*
%TD*%
D44*
%TO.P,C9,1*%
%TO.N,GND*%
X127775000Y-35900000D03*
%TO.P,C9,2*%
%TO.N,4V1*%
X126225000Y-35900000D03*
%TD*%
%TO.P,C11,1*%
%TO.N,GND*%
X130687500Y-48100000D03*
%TO.P,C11,2*%
%TO.N,4V1*%
X129137500Y-48100000D03*
%TD*%
%TO.P,C17,1*%
%TO.N,GND*%
X153878400Y-36403400D03*
%TO.P,C17,2*%
%TO.N,4V2*%
X152328400Y-36403400D03*
%TD*%
%TO.P,C18,1*%
%TO.N,GND*%
X165400000Y-40471600D03*
%TO.P,C18,2*%
%TO.N,4V2*%
X163850000Y-40471600D03*
%TD*%
%TO.P,C28,1*%
%TO.N,GND*%
X213875000Y-93603400D03*
%TO.P,C28,2*%
%TO.N,4V3*%
X212325000Y-93603400D03*
%TD*%
%TO.P,C20,1*%
%TO.N,GND*%
X166878400Y-52000000D03*
%TO.P,C20,2*%
%TO.N,4V2*%
X165328400Y-52000000D03*
%TD*%
%TO.P,C12,1*%
%TO.N,GND*%
X140262500Y-48100000D03*
%TO.P,C12,2*%
%TO.N,4V1*%
X138712500Y-48100000D03*
%TD*%
%TO.P,C26,1*%
%TO.N,GND*%
X186324999Y-65319424D03*
%TO.P,C26,2*%
%TO.N,4V3*%
X184774999Y-65319424D03*
%TD*%
D45*
%TO.N,GND*%
X178396425Y-50071412D03*
%TO.N,4V3*%
X185896600Y-47813025D03*
X202700000Y-68200000D03*
%TO.N,GND*%
X132112500Y-46900000D03*
X129176300Y-35576300D03*
X190800000Y-67700000D03*
X149500000Y-59300000D03*
X168405124Y-51705124D03*
X135200000Y-76600000D03*
X138162500Y-33862500D03*
X141550000Y-60650000D03*
X167050000Y-40150000D03*
X155626600Y-50226600D03*
X187864898Y-65037723D03*
X161400000Y-66400000D03*
X142010350Y-48010350D03*
X215418299Y-93418299D03*
X157300000Y-38500000D03*
%TO.N,4V2*%
X175100000Y-60600000D03*
X154900000Y-28100000D03*
X152400000Y-51900000D03*
X158847100Y-51700000D03*
X166300000Y-45900000D03*
X152700000Y-39200000D03*
X162200000Y-40700000D03*
X174401000Y-58600000D03*
X153700000Y-44300000D03*
X165400000Y-33000000D03*
%TO.N,4V3*%
X176658212Y-46300000D03*
X213300000Y-86300000D03*
X184650000Y-57650000D03*
X191800000Y-64800000D03*
%TO.N,Temp1*%
X146900000Y-71400000D03*
%TO.N,Temp2*%
X164900000Y-58500000D03*
X146900000Y-72900000D03*
X186650000Y-53150000D03*
%TO.N,Temp3*%
X205500000Y-73400000D03*
X146900000Y-74400000D03*
X166300003Y-58500000D03*
%TO.N,S9*%
X172800000Y-66000000D03*
%TO.N,S12*%
X168900000Y-67900000D03*
%TO.N,S11*%
X170395167Y-67900000D03*
%TO.N,S10*%
X171600000Y-67000000D03*
%TO.N,SDA*%
X140700000Y-56900000D03*
X133750000Y-63150000D03*
X147200000Y-56899000D03*
%TO.N,SCL*%
X148600000Y-55799000D03*
X141900000Y-57900000D03*
X139800000Y-62500000D03*
%TO.N,3.3V*%
X162800000Y-67500000D03*
X146900000Y-78900000D03*
X151200000Y-75100000D03*
X133800000Y-61200000D03*
%TO.N,LED1B*%
X132000000Y-59200000D03*
X132300000Y-52800000D03*
X130422846Y-67992109D03*
X132400000Y-49600000D03*
%TO.N,LED1G*%
X129825799Y-66725799D03*
X141499000Y-30500000D03*
X130400000Y-59199000D03*
X130500000Y-52800000D03*
%TO.N,LED2G*%
X151900003Y-55800000D03*
X146800000Y-64300000D03*
X161600000Y-31600000D03*
X170800000Y-37100000D03*
%TO.N,LED3G*%
X146800000Y-69900000D03*
X184700000Y-53100000D03*
X192300000Y-61400000D03*
X162000000Y-58500000D03*
%TO.N,LED2W*%
X146800000Y-67100000D03*
X154700000Y-56700000D03*
X169650000Y-52600000D03*
X156797784Y-53900057D03*
%TO.N,LED2R*%
X146800000Y-62900000D03*
X150500000Y-55800000D03*
%TO.N,LED1W*%
X136000000Y-52800000D03*
X136264921Y-68035079D03*
X142743292Y-52781395D03*
X136800000Y-58800000D03*
%TO.N,LED3B*%
X167700006Y-58500000D03*
X178000000Y-69100000D03*
X146903338Y-76000789D03*
X180700000Y-68500000D03*
%TO.N,LED2B*%
X153300006Y-55800000D03*
X146800000Y-65700000D03*
%TO.N,LED3W*%
X205300000Y-75200000D03*
X211000000Y-79400000D03*
X146856261Y-77400000D03*
X169100009Y-58500000D03*
%TO.N,LED3R*%
X146800000Y-68500000D03*
X160600000Y-58500000D03*
%TO.N,LED1R*%
X125000000Y-40436931D03*
X129000000Y-52800000D03*
X127400000Y-37800000D03*
X128200000Y-49600000D03*
X128700000Y-68000000D03*
X129000000Y-59200000D03*
%TO.N,4V1*%
X141200000Y-40500000D03*
X137100000Y-51200000D03*
X132150000Y-39550000D03*
X128500000Y-28200000D03*
X124400000Y-38200000D03*
X137500000Y-25500000D03*
X151200000Y-103000000D03*
X152100000Y-109100000D03*
%TD*%
D46*
%TO.N,Net-(D14-K)*%
X146450000Y-84500000D02*
X146750000Y-84800000D01*
X136720000Y-84500000D02*
X146450000Y-84500000D01*
X124600000Y-72380000D02*
X136720000Y-84500000D01*
%TO.N,5V*%
X146750000Y-88350000D02*
X146750000Y-87000000D01*
X147101000Y-88701000D02*
X146750000Y-88350000D01*
%TO.N,Net-(J19-Pin_2)*%
X196893142Y-52750000D02*
X201242602Y-57099460D01*
X201242602Y-57099460D02*
X203066114Y-57099460D01*
X192250000Y-52750000D02*
X196893142Y-52750000D01*
X190912500Y-51412500D02*
X192250000Y-52750000D01*
X184458212Y-51412500D02*
X190912500Y-51412500D01*
D47*
%TO.N,Temp2*%
X168835436Y-55099000D02*
X166435436Y-57499000D01*
X164900000Y-58484375D02*
X164900000Y-58500000D01*
X186650000Y-53150000D02*
X184701000Y-55099000D01*
X166435436Y-57499000D02*
X165885375Y-57499000D01*
X165885375Y-57499000D02*
X164900000Y-58484375D01*
X184701000Y-55099000D02*
X168835436Y-55099000D01*
%TO.N,LED3R*%
X165484372Y-53600000D02*
X178031863Y-53600000D01*
X160600000Y-58500000D02*
X160600000Y-58484372D01*
X160600000Y-58484372D02*
X165484372Y-53600000D01*
X178031863Y-53600000D02*
X180081862Y-51550001D01*
D46*
%TO.N,4V3*%
X185896600Y-48603400D02*
X185896600Y-47813025D01*
X184912500Y-49587500D02*
X185896600Y-48603400D01*
X184458212Y-49587500D02*
X184912500Y-49587500D01*
%TO.N,GND*%
X178258212Y-49933199D02*
X178396425Y-50071412D01*
X178258212Y-48575000D02*
X178258212Y-49933199D01*
X178396425Y-50071412D02*
X178925013Y-50600000D01*
X178925013Y-50600000D02*
X180081862Y-50600000D01*
%TO.N,4V3*%
X182634562Y-49649999D02*
X184395713Y-49649999D01*
X184395713Y-49649999D02*
X184458212Y-49587500D01*
X178258212Y-45600000D02*
X178258212Y-47025000D01*
X178258212Y-45600000D02*
X177358212Y-45600000D01*
%TO.N,Net-(J19-Pin_2)*%
X184320711Y-51550001D02*
X184458212Y-51412500D01*
X182634562Y-51550001D02*
X184320711Y-51550001D01*
%TO.N,Net-(D9-A)*%
X180454812Y-45596600D02*
X178258212Y-43400000D01*
X180454812Y-49026050D02*
X180081862Y-49399000D01*
X180454812Y-45800000D02*
X180454812Y-49026050D01*
X180454812Y-45800000D02*
X180454812Y-45596600D01*
%TO.N,GND*%
X195963401Y-70300000D02*
X197120250Y-70300000D01*
X195396600Y-69733199D02*
X195581701Y-69918299D01*
X195396600Y-68475000D02*
X195396600Y-69733199D01*
X195581701Y-69918299D02*
X195963401Y-70300000D01*
%TO.N,4V3*%
X201625000Y-69275000D02*
X202700000Y-68200000D01*
X199672950Y-69349999D02*
X201321601Y-69349999D01*
X195396600Y-65400000D02*
X195396600Y-66925000D01*
%TO.N,Net-(J19-Pin_6)*%
X201396600Y-71100000D02*
X202933174Y-71100000D01*
X199672950Y-71250001D02*
X201246599Y-71250001D01*
%TO.N,Net-(D11-A)*%
X197493200Y-65600000D02*
X197493200Y-68977049D01*
X197371249Y-69099000D02*
X197120250Y-69099000D01*
X197493200Y-65296600D02*
X195396600Y-63200000D01*
X197493200Y-68977049D02*
X197371249Y-69099000D01*
X197493200Y-65600000D02*
X197493200Y-65296600D01*
%TO.N,Net-(J12-Pin_3)*%
X168079400Y-31304400D02*
X170000000Y-33225000D01*
X167800000Y-31304400D02*
X168079400Y-31304400D01*
%TO.N,Net-(J12-Pin_4)*%
X168731800Y-34775000D02*
X168228400Y-34271600D01*
X170000000Y-34775000D02*
X168731800Y-34775000D01*
X173124337Y-34775000D02*
X170000000Y-34775000D01*
X175559690Y-32339647D02*
X173124337Y-34775000D01*
%TO.N,Net-(J2-Pin_1)*%
X128550000Y-26105000D02*
X129345000Y-26900000D01*
X128550000Y-26050000D02*
X128550000Y-26105000D01*
%TO.N,Net-(J2-Pin_2)*%
X131706251Y-27206251D02*
X131400000Y-26900000D01*
X131706251Y-27206251D02*
X134000000Y-24912501D01*
X131400000Y-26900000D02*
X130895000Y-26900000D01*
D48*
%TO.N,Net-(J2-Pin_4)*%
X137074000Y-27799000D02*
X136525000Y-27250000D01*
X137074000Y-30180852D02*
X137074000Y-27799000D01*
D46*
%TO.N,5V*%
X147101000Y-88701000D02*
X147101000Y-93621735D01*
D49*
X150000000Y-106000000D02*
X148000000Y-104000000D01*
X187861000Y-96981000D02*
X184390000Y-93510000D01*
X139500000Y-93500000D02*
X139500000Y-95400000D01*
X182810000Y-95090000D02*
X184390000Y-93510000D01*
X140000000Y-93000000D02*
X139500000Y-93500000D01*
X165570000Y-99050000D02*
X167471000Y-97149000D01*
X146802000Y-106300000D02*
X148000000Y-105102000D01*
X163030000Y-99050000D02*
X163030000Y-104070000D01*
X176451000Y-97149000D02*
X178510000Y-95090000D01*
X201340000Y-95180000D02*
X203120000Y-93400000D01*
X139500000Y-95400000D02*
X138400000Y-96500000D01*
X167471000Y-97149000D02*
X176451000Y-97149000D01*
D46*
X147101000Y-93621735D02*
X146221735Y-94501000D01*
D49*
X138400000Y-100600000D02*
X144100000Y-106300000D01*
D46*
X144901000Y-94501000D02*
X143400000Y-93000000D01*
D49*
X161100000Y-106000000D02*
X150000000Y-106000000D01*
X197120000Y-95180000D02*
X195319000Y-96981000D01*
X148000000Y-105102000D02*
X148000000Y-104000000D01*
X195319000Y-96981000D02*
X187861000Y-96981000D01*
X178510000Y-95090000D02*
X182810000Y-95090000D01*
X144100000Y-106300000D02*
X146802000Y-106300000D01*
X197120000Y-95180000D02*
X201340000Y-95180000D01*
X143400000Y-93000000D02*
X140000000Y-93000000D01*
X163030000Y-104070000D02*
X161100000Y-106000000D01*
D46*
X146221735Y-94501000D02*
X144901000Y-94501000D01*
D49*
X138400000Y-96500000D02*
X138400000Y-100600000D01*
D46*
%TO.N,GND*%
X123737500Y-61775000D02*
X123737500Y-59375000D01*
D50*
X139049999Y-32975001D02*
X138162500Y-33862500D01*
D46*
X123737500Y-66775000D02*
X123737500Y-64275000D01*
X187583198Y-65319424D02*
X187864898Y-65037723D01*
X188249999Y-64652623D02*
X188249999Y-63495774D01*
X128098700Y-35576300D02*
X127775000Y-35900000D01*
X186324999Y-65319424D02*
X187583198Y-65319424D01*
D50*
X138162500Y-33862500D02*
X137025000Y-35000000D01*
D46*
X141920699Y-48100000D02*
X140262500Y-48100000D01*
X187864898Y-65037723D02*
X188249999Y-64652623D01*
D49*
X145600000Y-91200000D02*
X144800000Y-90400000D01*
D48*
X161400000Y-66400000D02*
X161400000Y-62460000D01*
D46*
X149500000Y-59562500D02*
X151237500Y-61300000D01*
D48*
X161400000Y-62460000D02*
X161370000Y-62430000D01*
D46*
X155853399Y-35346601D02*
X155853399Y-34456100D01*
X142187500Y-46676350D02*
X142187500Y-47833199D01*
X168753399Y-50200000D02*
X168753399Y-51356849D01*
X139800000Y-78162500D02*
X137237500Y-78162500D01*
X127140000Y-72380000D02*
X126842500Y-72380000D01*
X141550000Y-60650000D02*
X142512500Y-60650000D01*
X168753399Y-51356849D02*
X168405124Y-51705124D01*
D48*
X161370000Y-62430000D02*
X161370000Y-60600000D01*
D47*
X132137500Y-69625000D02*
X129895000Y-69625000D01*
D49*
X138400000Y-90400000D02*
X137000000Y-91800000D01*
D46*
X129500000Y-34176350D02*
X129500000Y-35252600D01*
X167421600Y-39778400D02*
X167421600Y-38647950D01*
X142512500Y-60650000D02*
X144262500Y-62400000D01*
X155943650Y-49909549D02*
X155626600Y-50226600D01*
D49*
X144800000Y-90400000D02*
X138400000Y-90400000D01*
D46*
X166728400Y-40471600D02*
X167050000Y-40150000D01*
X213875000Y-93603400D02*
X215233199Y-93603400D01*
X123737500Y-69275000D02*
X123737500Y-66775000D01*
X155943650Y-48752700D02*
X155943650Y-49909549D01*
X153878400Y-36403400D02*
X154796600Y-36403400D01*
X215418299Y-93418299D02*
X215800000Y-93036599D01*
X137200000Y-78125000D02*
X136725000Y-78125000D01*
X144262500Y-62400000D02*
X143762500Y-62900000D01*
X167050000Y-40150000D02*
X167421600Y-39778400D01*
X143762500Y-62900000D02*
X143762500Y-64800000D01*
D50*
X139049999Y-32052700D02*
X139049999Y-32975001D01*
D46*
X155626600Y-50226600D02*
X155353199Y-50500000D01*
X142400000Y-78162500D02*
X139800000Y-78162500D01*
X129500000Y-35252600D02*
X129176300Y-35576300D01*
X136725000Y-78125000D02*
X135200000Y-76600000D01*
X132712500Y-46300000D02*
X132112500Y-46900000D01*
X215233199Y-93603400D02*
X215418299Y-93418299D01*
X165400000Y-40471600D02*
X166728400Y-40471600D01*
D47*
X129895000Y-69625000D02*
X127140000Y-72380000D01*
D46*
X155203400Y-36403400D02*
X157300000Y-38500000D01*
X126842500Y-72380000D02*
X123737500Y-69275000D01*
X153878400Y-36403400D02*
X155203400Y-36403400D01*
D49*
X145600000Y-93000000D02*
X145600000Y-91200000D01*
D46*
X129176300Y-35576300D02*
X128098700Y-35576300D01*
X132712500Y-45276350D02*
X132712500Y-46300000D01*
X168110248Y-52000000D02*
X166878400Y-52000000D01*
X132112500Y-46900000D02*
X131887500Y-46900000D01*
X131887500Y-46900000D02*
X130687500Y-48100000D01*
X151237500Y-63700000D02*
X151237500Y-66100000D01*
X215800000Y-93036599D02*
X215800000Y-91879750D01*
X155353199Y-50500000D02*
X153995000Y-50500000D01*
X142187500Y-47833199D02*
X142010350Y-48010350D01*
D49*
X137000000Y-91800000D02*
X137000000Y-93500000D01*
D46*
X137237500Y-78162500D02*
X137200000Y-78125000D01*
X151237500Y-61300000D02*
X151237500Y-63700000D01*
X168405124Y-51705124D02*
X168110248Y-52000000D01*
X123737500Y-64275000D02*
X123737500Y-61775000D01*
X154796600Y-36403400D02*
X155853399Y-35346601D01*
X142010350Y-48010350D02*
X141920699Y-48100000D01*
X149500000Y-59300000D02*
X149500000Y-59562500D01*
D48*
%TO.N,Net-(J2-Pin_2)*%
X131256251Y-27556251D02*
X131256251Y-27656251D01*
D46*
X130450001Y-29937501D02*
X130412500Y-29900000D01*
X130412500Y-28500001D02*
X131256251Y-27656251D01*
X130412500Y-29900000D02*
X130412500Y-28500001D01*
X134000000Y-24912501D02*
X134000000Y-22500000D01*
X130450001Y-31623650D02*
X130450001Y-29937501D01*
X131256251Y-27656251D02*
X131706251Y-27206251D01*
%TO.N,Net-(J2-Pin_1)*%
X128550000Y-26050000D02*
X125903400Y-28696600D01*
X125903400Y-28696600D02*
X124500000Y-28696600D01*
X131500000Y-22500000D02*
X131500000Y-23100000D01*
X131500000Y-23100000D02*
X128550000Y-26050000D01*
D48*
%TO.N,Net-(J2-Pin_3)*%
X134625000Y-27100000D02*
X134250000Y-26725000D01*
D46*
X134250000Y-26725000D02*
X134250000Y-29196600D01*
X136500000Y-22500000D02*
X136500000Y-24475000D01*
X136500000Y-24475000D02*
X134250000Y-26725000D01*
D50*
%TO.N,Net-(J2-Pin_4)*%
X139912500Y-27750000D02*
X139912500Y-29412500D01*
X139000000Y-25300000D02*
X139000000Y-22500000D01*
X139912500Y-29412500D02*
X140000000Y-29500000D01*
X139912500Y-27750000D02*
X139912500Y-26662500D01*
D48*
X137370398Y-30477250D02*
X139022750Y-30477250D01*
D50*
X139912500Y-26662500D02*
X139000000Y-25750000D01*
D48*
X137074000Y-30180852D02*
X137370398Y-30477250D01*
X139022750Y-30477250D02*
X140000000Y-29500000D01*
D50*
X139000000Y-25750000D02*
X139000000Y-25300000D01*
D46*
%TO.N,Net-(J2-Pin_5)*%
X127912500Y-42296600D02*
X128219136Y-42296600D01*
X142203530Y-31898000D02*
X141500000Y-32601530D01*
X137925530Y-36176000D02*
X137573781Y-36527749D01*
X142799000Y-31302530D02*
X142203530Y-31898000D01*
X137925542Y-36176000D02*
X137925530Y-36176000D01*
X127912500Y-41887500D02*
X127912500Y-42296600D01*
X137573781Y-36527749D02*
X137222010Y-36879508D01*
X137925552Y-36175990D02*
X137925542Y-36176000D01*
X134576764Y-37500000D02*
X132300000Y-37500000D01*
X141500000Y-22500000D02*
X142799000Y-23799000D01*
X142799000Y-23799000D02*
X142799000Y-31302530D01*
X136601530Y-37500000D02*
X135583236Y-37500000D01*
X137983559Y-36175991D02*
X137925552Y-36175990D01*
X135583236Y-37500000D02*
X135572236Y-37489000D01*
X141499999Y-32659551D02*
X140796471Y-33363079D01*
X135572236Y-37489000D02*
X134587764Y-37489000D01*
X141500000Y-32601530D02*
X141499999Y-32659551D01*
X141500000Y-32601530D02*
X141500001Y-32601529D01*
X137222010Y-36879520D02*
X136601530Y-37500000D01*
X140796471Y-33363079D02*
X138687079Y-35472471D01*
X138687079Y-35472471D02*
X137983559Y-36175991D01*
X132300000Y-37500000D02*
X127912500Y-41887500D01*
X137222010Y-36879508D02*
X137222010Y-36879520D01*
X134587764Y-37489000D02*
X134576764Y-37500000D01*
%TO.N,Net-(J2-Pin_6)*%
X135100000Y-39489000D02*
X134436000Y-39489000D01*
X138481020Y-37377000D02*
X138423001Y-37376999D01*
X141997470Y-33860550D02*
X139184550Y-36673470D01*
X133625000Y-40300000D02*
X133625000Y-41000000D01*
X133625000Y-41000000D02*
X133625000Y-42686149D01*
X138423001Y-37376999D02*
X136311000Y-39489000D01*
X142700999Y-33157021D02*
X141997470Y-33860550D01*
X139184550Y-36673470D02*
X138481020Y-37377000D01*
X138481020Y-37377000D02*
X138481021Y-37376999D01*
X142701000Y-33157020D02*
X142700999Y-33157021D01*
X144000000Y-22500000D02*
X144000000Y-31800000D01*
X133625000Y-42686149D02*
X133662501Y-42723650D01*
X142701000Y-33099000D02*
X142700999Y-33099001D01*
X142701000Y-33099000D02*
X142701000Y-33157020D01*
X134436000Y-39489000D02*
X133625000Y-40300000D01*
X144000000Y-31800000D02*
X142701000Y-33099000D01*
X136311000Y-39489000D02*
X135100000Y-39489000D01*
%TO.N,Net-(J2-Pin_8)*%
X146600000Y-24900000D02*
X149000000Y-22500000D01*
X143100000Y-38700000D02*
X143100000Y-36400000D01*
D48*
X142680000Y-41980000D02*
X143100000Y-42400000D01*
D46*
X143100000Y-44086149D02*
X143137501Y-44123650D01*
X146600000Y-32900000D02*
X146600000Y-24900000D01*
X143100000Y-42400000D02*
X143100000Y-44086149D01*
X143100000Y-42400000D02*
X143100000Y-38700000D01*
X143100000Y-36400000D02*
X146600000Y-32900000D01*
%TO.N,Net-(J2-Pin_7)*%
X145300000Y-32400000D02*
X145300000Y-23700000D01*
X137487500Y-42296600D02*
X139692050Y-40092050D01*
X139692050Y-38700000D02*
X139692050Y-38007950D01*
X145300000Y-23700000D02*
X146500000Y-22500000D01*
X139692050Y-40092050D02*
X139692050Y-38700000D01*
X139692050Y-38007950D02*
X145300000Y-32400000D01*
D51*
%TO.N,4V2*%
X206300000Y-81000000D02*
X206300000Y-94240000D01*
D46*
X152400000Y-50545000D02*
X152445000Y-50500000D01*
X166471599Y-36095250D02*
X166471599Y-34339799D01*
X152700000Y-38200000D02*
X150903400Y-36403400D01*
X152445000Y-50500000D02*
X150920000Y-50500000D01*
X162200000Y-40700000D02*
X161000000Y-40700000D01*
X166428400Y-34246600D02*
X166403400Y-34271600D01*
D51*
X175100000Y-60600000D02*
X175100000Y-70800000D01*
D46*
X162428400Y-40471600D02*
X162200000Y-40700000D01*
X152700000Y-39200000D02*
X152700000Y-38200000D01*
X167840899Y-45900000D02*
X166300000Y-45900000D01*
X164003400Y-52000000D02*
X163903400Y-52100000D01*
X166471599Y-34339799D02*
X166403400Y-34271600D01*
X150903400Y-36403400D02*
X152328400Y-36403400D01*
D51*
X174401000Y-58600000D02*
X175100000Y-59299000D01*
X193949000Y-75149000D02*
X200449000Y-75149000D01*
D46*
X154903398Y-30140901D02*
X154940899Y-30103400D01*
X160447100Y-53300000D02*
X162703400Y-53300000D01*
D51*
X190800000Y-72000000D02*
X193949000Y-75149000D01*
X175100000Y-59299000D02*
X175100000Y-60600000D01*
X200449000Y-75149000D02*
X206300000Y-81000000D01*
D46*
X152400000Y-51900000D02*
X152400000Y-50545000D01*
X167803398Y-47647300D02*
X167803398Y-45937501D01*
X154700000Y-44300000D02*
X154800000Y-44400000D01*
X162703400Y-53300000D02*
X163903400Y-52100000D01*
X154993649Y-46200000D02*
X154993649Y-44413851D01*
X154903398Y-31903400D02*
X154903398Y-30140901D01*
X163850000Y-40471600D02*
X162428400Y-40471600D01*
D51*
X206300000Y-94240000D02*
X201515000Y-99025000D01*
D46*
X167803398Y-45937501D02*
X167840899Y-45900000D01*
D51*
X198975000Y-99025000D02*
X201515000Y-99025000D01*
D46*
X165328400Y-52000000D02*
X164003400Y-52000000D01*
X154993649Y-44413851D02*
X155007500Y-44400000D01*
X153700000Y-44300000D02*
X154700000Y-44300000D01*
D51*
X176300000Y-72000000D02*
X190800000Y-72000000D01*
D46*
X154800000Y-44400000D02*
X155007500Y-44400000D01*
X154940899Y-30103400D02*
X154940899Y-28140899D01*
X165400000Y-33000000D02*
X166428400Y-34028400D01*
X154940899Y-28140899D02*
X154900000Y-28100000D01*
X158847100Y-51700000D02*
X160447100Y-53300000D01*
X166428400Y-34028400D02*
X166428400Y-34246600D01*
D51*
X175100000Y-70800000D02*
X176300000Y-72000000D01*
D46*
%TO.N,Net-(J12-Pin_2)*%
X156803400Y-30140901D02*
X156765899Y-30103400D01*
X156803400Y-31903400D02*
X156803400Y-30140901D01*
X170862162Y-30103400D02*
X171399484Y-29566078D01*
X159500000Y-30103400D02*
X170862162Y-30103400D01*
X156765899Y-30103400D02*
X159500000Y-30103400D01*
%TO.N,Net-(J12-Pin_1)*%
X159500000Y-27561108D02*
X157161108Y-27561108D01*
X156200000Y-26600000D02*
X154100000Y-26600000D01*
X151100000Y-29600000D02*
X151100000Y-30500000D01*
X157161108Y-27561108D02*
X156200000Y-26600000D01*
X169319381Y-28179294D02*
X168701195Y-27561108D01*
X154100000Y-26600000D02*
X151100000Y-29600000D01*
X168701195Y-27561108D02*
X159500000Y-27561108D01*
%TO.N,Net-(J12-Pin_4)*%
X168371601Y-34414801D02*
X168228400Y-34271600D01*
X168371601Y-36095250D02*
X168371601Y-34414801D01*
%TO.N,Net-(J12-Pin_3)*%
X162625000Y-33018900D02*
X162625000Y-34768200D01*
X164339500Y-31304400D02*
X162625000Y-33018900D01*
X173479587Y-30952863D02*
X173128050Y-31304400D01*
X173128050Y-31304400D02*
X167800000Y-31304400D01*
X167800000Y-31304400D02*
X164339500Y-31304400D01*
%TO.N,Net-(J12-Pin_5)*%
X176373569Y-33726431D02*
X177639794Y-33726431D01*
X168401000Y-41699000D02*
X176373569Y-33726431D01*
X162701530Y-42900000D02*
X151996600Y-42900000D01*
X168401000Y-41699000D02*
X163902530Y-41699000D01*
X163902530Y-41699000D02*
X162701530Y-42900000D01*
X151996600Y-42900000D02*
X150200000Y-44696600D01*
%TO.N,Net-(J12-Pin_6)*%
X156893651Y-44461151D02*
X156832500Y-44400000D01*
X156893651Y-46200000D02*
X156893651Y-44461151D01*
X179333878Y-35499235D02*
X179719897Y-35113216D01*
X176299235Y-35499235D02*
X179333878Y-35499235D01*
X168898471Y-42899999D02*
X176299235Y-35499235D01*
X156832500Y-44400000D02*
X162900000Y-44400000D01*
X162900000Y-44400000D02*
X164400000Y-42900000D01*
X164400000Y-42900000D02*
X168898471Y-42899999D01*
%TO.N,Net-(J12-Pin_7)*%
X181500000Y-36800000D02*
X181800000Y-36500000D01*
X164900998Y-44100998D02*
X169399002Y-44100998D01*
X176700000Y-36800000D02*
X181500000Y-36800000D01*
X164900000Y-44100000D02*
X164900998Y-44100998D01*
X164000000Y-46296600D02*
X164000000Y-45000000D01*
X169399002Y-44100998D02*
X176700000Y-36800000D01*
X164000000Y-45000000D02*
X164900000Y-44100000D01*
%TO.N,Net-(J12-Pin_8)*%
X169703400Y-47647300D02*
X169703400Y-45937501D01*
X183516012Y-38250875D02*
X183880103Y-37886784D01*
X169665899Y-45900000D02*
X177315024Y-38250875D01*
X169703400Y-45937501D02*
X169665899Y-45900000D01*
X177315024Y-38250875D02*
X183516012Y-38250875D01*
%TO.N,4V3*%
X184650000Y-57650000D02*
X185977175Y-57650000D01*
X212325000Y-93603400D02*
X212325000Y-94435000D01*
X177358212Y-45600000D02*
X176658212Y-46300000D01*
X185500998Y-66520423D02*
X190079577Y-66520423D01*
D51*
X216890000Y-99000000D02*
X219430000Y-99000000D01*
D46*
X214787500Y-87603400D02*
X214603400Y-87603400D01*
X212325000Y-94435000D02*
X216890000Y-99000000D01*
X210900000Y-93603400D02*
X212325000Y-93603400D01*
X187237499Y-58910324D02*
X187237499Y-59119424D01*
X190079577Y-66520423D02*
X191800000Y-64800000D01*
X184774999Y-65319424D02*
X184774999Y-65794424D01*
X214849999Y-89327050D02*
X214849999Y-87665899D01*
X187299998Y-59181923D02*
X187237499Y-59119424D01*
X183249999Y-65319424D02*
X184774999Y-65319424D01*
X187299998Y-60943074D02*
X187299998Y-59181923D01*
X184774999Y-65794424D02*
X185500998Y-66520423D01*
X214849999Y-87665899D02*
X214787500Y-87603400D01*
X185977175Y-57650000D02*
X187237499Y-58910324D01*
X214603400Y-87603400D02*
X213300000Y-86300000D01*
%TO.N,Net-(J19-Pin_1)*%
X184103400Y-44900000D02*
X186900000Y-44900000D01*
X197859913Y-51200000D02*
X201679294Y-55019381D01*
X193200000Y-51200000D02*
X197859913Y-51200000D01*
X186900000Y-44900000D02*
X193200000Y-51200000D01*
%TO.N,Net-(J19-Pin_3)*%
X183349000Y-57111108D02*
X184111108Y-56349000D01*
X184111108Y-56349000D02*
X198793672Y-56349000D01*
X183349000Y-59415025D02*
X183349000Y-57111108D01*
X198793672Y-56349000D02*
X201624211Y-59179539D01*
X183449999Y-59516024D02*
X183349000Y-59415025D01*
X201624211Y-59179539D02*
X204452936Y-59179539D01*
%TO.N,Net-(J19-Pin_4)*%
X189062499Y-59119424D02*
X189981923Y-58200000D01*
X201959617Y-61259617D02*
X205839756Y-61259617D01*
X189981923Y-58200000D02*
X198900000Y-58200000D01*
X189200000Y-59256925D02*
X189062499Y-59119424D01*
X198900000Y-58200000D02*
X201959617Y-61259617D01*
X189200000Y-60943074D02*
X189200000Y-59256925D01*
%TO.N,Net-(J19-Pin_7)*%
X211000000Y-87900000D02*
X208400000Y-85300000D01*
X208400000Y-85300000D02*
X208400000Y-69100073D01*
X208400000Y-69100073D02*
X210000218Y-67499855D01*
%TO.N,Net-(J19-Pin_8)*%
X209600000Y-71366972D02*
X211387038Y-69579934D01*
X216750001Y-87740901D02*
X216612500Y-87603400D01*
X216612500Y-87603400D02*
X216612500Y-87312500D01*
X209600000Y-80300000D02*
X209600000Y-71366972D01*
X216750001Y-89327050D02*
X216750001Y-87740901D01*
X216612500Y-87312500D02*
X209600000Y-80300000D01*
%TO.N,Net-(D1-A)*%
X151000000Y-34106800D02*
X148703400Y-36403400D01*
X151100000Y-34106800D02*
X154303099Y-34106800D01*
X154303099Y-34106800D02*
X154652399Y-34456100D01*
X151100000Y-34106800D02*
X151000000Y-34106800D01*
%TO.N,Net-(D2-A)*%
X165947650Y-38375000D02*
X166220600Y-38647950D01*
X162625000Y-38375000D02*
X165947650Y-38375000D01*
X162625000Y-38375000D02*
X161125000Y-38375000D01*
X161125000Y-38375000D02*
X158800000Y-40700000D01*
%TO.N,Net-(D3-A)*%
X154544349Y-48303400D02*
X154742650Y-48501701D01*
X151120000Y-48303400D02*
X154544349Y-48303400D01*
X148720000Y-50500000D02*
X148923400Y-50500000D01*
X154742650Y-48501701D02*
X154742650Y-48752700D01*
X148923400Y-50500000D02*
X151120000Y-48303400D01*
%TO.N,Net-(D4-A)*%
X167506798Y-49903400D02*
X167552399Y-49949001D01*
X164000000Y-49903400D02*
X163900000Y-49903400D01*
X163900000Y-49903400D02*
X161703400Y-52100000D01*
X164000000Y-49903400D02*
X167506798Y-49903400D01*
X167552399Y-49949001D02*
X167552399Y-50200000D01*
%TO.N,Net-(D5-A)*%
X140986500Y-46425351D02*
X140986500Y-46676350D01*
X137487500Y-45903400D02*
X140464549Y-45903400D01*
X140464549Y-45903400D02*
X140986500Y-46425351D01*
X135087500Y-48100000D02*
X135290900Y-48100000D01*
X135290900Y-48100000D02*
X137487500Y-45903400D01*
%TO.N,Net-(D6-A)*%
X125615900Y-48200000D02*
X127912500Y-45903400D01*
%TO.N,Net-(D7-A)*%
X137948999Y-32203699D02*
X137948999Y-32052700D01*
X132053400Y-35000000D02*
X134250000Y-32803400D01*
X131900000Y-35000000D02*
X132053400Y-35000000D01*
X137349298Y-32803400D02*
X137948999Y-32203699D01*
X134250000Y-32803400D02*
X137349298Y-32803400D01*
%TO.N,Net-(D8-A)*%
X122500000Y-34303400D02*
X124500000Y-32303400D01*
X128299000Y-33925351D02*
X128299000Y-34176350D01*
X124500000Y-32303400D02*
X126677049Y-32303400D01*
X122500000Y-34500000D02*
X122500000Y-34303400D01*
X126677049Y-32303400D02*
X128299000Y-33925351D01*
%TO.N,Net-(D10-A)*%
X183449999Y-63122824D02*
X183246599Y-63122824D01*
X183449999Y-63122824D02*
X186927048Y-63122824D01*
X186927048Y-63122824D02*
X187048999Y-63244775D01*
X187048999Y-63244775D02*
X187048999Y-63495774D01*
X183246599Y-63122824D02*
X181049999Y-65319424D01*
%TO.N,Net-(D12-A)*%
X214599000Y-91628751D02*
X214599000Y-91879750D01*
X214477049Y-91506800D02*
X214599000Y-91628751D01*
X211000000Y-91506800D02*
X214477049Y-91506800D01*
X208700000Y-93603400D02*
X208903400Y-93603400D01*
X208903400Y-93603400D02*
X211000000Y-91506800D01*
%TO.N,Temp1*%
X142400000Y-75237500D02*
X142400000Y-72400000D01*
D47*
X146900000Y-71400000D02*
X146237500Y-71400000D01*
D46*
X142400000Y-72400000D02*
X142380000Y-72380000D01*
D47*
X146237500Y-71400000D02*
X142400000Y-75237500D01*
D52*
%TO.N,Net-(J11-Pin_2)*%
X181912000Y-83970000D02*
X181912000Y-83127844D01*
X178634156Y-79850000D02*
X178510000Y-79850000D01*
X181912000Y-83127844D02*
X178634156Y-79850000D01*
X183832000Y-85890000D02*
X181912000Y-83970000D01*
X184390000Y-85890000D02*
X183832000Y-85890000D01*
%TO.N,Net-(J11-Pin_3)*%
X184390000Y-88430000D02*
X180511000Y-84551000D01*
X180511000Y-84266844D02*
X178634156Y-82390000D01*
X180511000Y-84551000D02*
X180511000Y-84266844D01*
X178634156Y-82390000D02*
X178510000Y-82390000D01*
%TO.N,Net-(J11-Pin_4)*%
X178634156Y-84930000D02*
X178510000Y-84930000D01*
X184390000Y-90970000D02*
X180511000Y-87091000D01*
X180511000Y-87091000D02*
X180511000Y-86806844D01*
X180511000Y-86806844D02*
X178634156Y-84930000D01*
%TO.N,Net-(J11-Pin_1)*%
X184390000Y-83350000D02*
X184390000Y-83065844D01*
X184390000Y-83065844D02*
X178634156Y-77310000D01*
D47*
%TO.N,Temp2*%
X140962500Y-76400000D02*
X139800000Y-75237500D01*
D46*
X139800000Y-75237500D02*
X139800000Y-72420000D01*
X139800000Y-72420000D02*
X139840000Y-72380000D01*
D47*
X146900000Y-72900000D02*
X143400000Y-76400000D01*
X143400000Y-76400000D02*
X140962500Y-76400000D01*
D48*
%TO.N,Net-(U1-GPIO21)*%
X135286061Y-105641616D02*
X135286061Y-108169777D01*
X140901000Y-89099000D02*
X130501000Y-89099000D01*
X123700000Y-97700000D02*
X128600000Y-102600000D01*
X142380000Y-87620000D02*
X140901000Y-89099000D01*
X130501000Y-89099000D02*
X123700000Y-95900000D01*
X123700000Y-95900000D02*
X123700000Y-97700000D01*
X128600000Y-102600000D02*
X132244445Y-102600000D01*
X132244445Y-102600000D02*
X135286061Y-105641616D01*
%TO.N,Net-(U1-GPIO20)*%
X128400000Y-88211701D02*
X128400000Y-86800000D01*
X138420000Y-86200000D02*
X139840000Y-87620000D01*
X132072123Y-104339554D02*
X129139554Y-104339554D01*
X122800000Y-93811701D02*
X128400000Y-88211701D01*
X129139554Y-104339554D02*
X122800000Y-98000000D01*
X129000000Y-86200000D02*
X138420000Y-86200000D01*
X122800000Y-98000000D02*
X122800000Y-93811701D01*
X128400000Y-86800000D02*
X129000000Y-86200000D01*
D52*
%TO.N,Net-(J14-Pin_4)*%
X203120000Y-90860000D02*
X197280000Y-85020000D01*
X197280000Y-85020000D02*
X197120000Y-85020000D01*
%TO.N,Net-(J14-Pin_3)*%
X197280000Y-82480000D02*
X197120000Y-82480000D01*
X203120000Y-88320000D02*
X197280000Y-82480000D01*
%TO.N,Net-(J14-Pin_2)*%
X203120000Y-85780000D02*
X202561314Y-85780000D01*
X199121000Y-82339686D02*
X199121000Y-81816844D01*
X197244156Y-79940000D02*
X197120000Y-79940000D01*
X202561314Y-85780000D02*
X199121000Y-82339686D01*
X199121000Y-81816844D02*
X197244156Y-79940000D01*
%TO.N,Net-(J14-Pin_1)*%
X203120000Y-83240000D02*
X197280000Y-77400000D01*
D46*
%TO.N,Temp3*%
X137200000Y-75200000D02*
X137200000Y-72480000D01*
D47*
X205000000Y-72900000D02*
X203849942Y-72900000D01*
X179200000Y-69200000D02*
X179200000Y-59300000D01*
X175600000Y-55700000D02*
X169084378Y-55700000D01*
X144200000Y-77100000D02*
X139100000Y-77100000D01*
X179200000Y-59300000D02*
X175600000Y-55700000D01*
X179700000Y-69700000D02*
X179200000Y-69200000D01*
X203846942Y-72897000D02*
X194997000Y-72897000D01*
X194997000Y-72897000D02*
X191800000Y-69700000D01*
X166300003Y-58484375D02*
X166300003Y-58500000D01*
X139100000Y-77100000D02*
X137200000Y-75200000D01*
X191800000Y-69700000D02*
X179700000Y-69700000D01*
D46*
X137200000Y-72480000D02*
X137300000Y-72380000D01*
D47*
X146900000Y-74400000D02*
X144200000Y-77100000D01*
X169084378Y-55700000D02*
X166300003Y-58484375D01*
X205500000Y-73400000D02*
X205000000Y-72900000D01*
X203849942Y-72900000D02*
X203846942Y-72897000D01*
D52*
%TO.N,Net-(J20-Pin_1)*%
X165875844Y-83262500D02*
X165875844Y-81212500D01*
X162043344Y-77380000D02*
X160375844Y-77380000D01*
X165875844Y-81212500D02*
X162043344Y-77380000D01*
%TO.N,Net-(J20-Pin_2)*%
X160500000Y-79920000D02*
X160375844Y-79920000D01*
X165875844Y-85802500D02*
X165477844Y-85802500D01*
X163777844Y-84102500D02*
X163777844Y-83197844D01*
X165477844Y-85802500D02*
X163777844Y-84102500D01*
X163777844Y-83197844D02*
X160500000Y-79920000D01*
%TO.N,Net-(J20-Pin_3)*%
X165875844Y-88342500D02*
X162376844Y-84843500D01*
X162376844Y-84336844D02*
X160500000Y-82460000D01*
X162376844Y-84843500D02*
X162376844Y-84336844D01*
X160500000Y-82460000D02*
X160375844Y-82460000D01*
%TO.N,Net-(J20-Pin_4)*%
X160500000Y-85000000D02*
X160375844Y-85000000D01*
X162376844Y-86876844D02*
X160500000Y-85000000D01*
X165875844Y-90882500D02*
X162376844Y-87383500D01*
X162376844Y-87383500D02*
X162376844Y-86876844D01*
D47*
%TO.N,S3*%
X170808000Y-75508000D02*
X172365522Y-75508000D01*
X166450000Y-69900000D02*
X166450000Y-71150000D01*
X173092000Y-76234478D02*
X173092000Y-80188000D01*
X166450000Y-71150000D02*
X170808000Y-75508000D01*
X173092000Y-80188000D02*
X170890000Y-82390000D01*
X172365522Y-75508000D02*
X173092000Y-76234478D01*
%TO.N,S4*%
X167720000Y-69900000D02*
X167720000Y-71320000D01*
X171307000Y-74907000D02*
X172614464Y-74907000D01*
X172614464Y-74907000D02*
X173693000Y-75985536D01*
X173693000Y-75985536D02*
X173693000Y-82127000D01*
X167720000Y-71320000D02*
X171307000Y-74907000D01*
X173693000Y-82127000D02*
X170890000Y-84930000D01*
%TO.N,S1*%
X163910000Y-71110000D02*
X170110000Y-77310000D01*
X170110000Y-77310000D02*
X170890000Y-77310000D01*
X163910000Y-69900000D02*
X163910000Y-71110000D01*
%TO.N,S2*%
X165180000Y-69900000D02*
X165180000Y-70924999D01*
X172491000Y-76483420D02*
X172491000Y-78249000D01*
X172491000Y-78249000D02*
X170890000Y-79850000D01*
X172116580Y-76109000D02*
X172491000Y-76483420D01*
X165180000Y-70924999D02*
X170364001Y-76109000D01*
X170364001Y-76109000D02*
X172116580Y-76109000D01*
%TO.N,S8*%
X172800000Y-69900000D02*
X172800000Y-71600000D01*
X175198000Y-73998000D02*
X190225464Y-73998000D01*
X192303000Y-76075536D02*
X192303000Y-82217000D01*
X172800000Y-71600000D02*
X175198000Y-73998000D01*
X190225464Y-73998000D02*
X192303000Y-76075536D01*
X192303000Y-82217000D02*
X189500000Y-85020000D01*
%TO.N,S7*%
X191702000Y-80278000D02*
X189500000Y-82480000D01*
X189976522Y-74599000D02*
X191702000Y-76324478D01*
X174899000Y-74599000D02*
X189976522Y-74599000D01*
X171530000Y-71230000D02*
X174899000Y-74599000D01*
X171530000Y-69900000D02*
X171530000Y-71230000D01*
X191702000Y-76324478D02*
X191702000Y-80278000D01*
%TO.N,S6*%
X191101000Y-76573420D02*
X191101000Y-78339000D01*
X191101000Y-78339000D02*
X189500000Y-79940000D01*
X174606348Y-75199000D02*
X179748942Y-75199000D01*
X170260000Y-69900000D02*
X170260000Y-70852652D01*
X170260000Y-70852652D02*
X174606348Y-75199000D01*
X179749942Y-75200000D02*
X189727580Y-75200000D01*
X189727580Y-75200000D02*
X191101000Y-76573420D01*
X179748942Y-75199000D02*
X179749942Y-75200000D01*
%TO.N,S5*%
X174294000Y-75736594D02*
X174294000Y-75800000D01*
X172863406Y-74306000D02*
X174294000Y-75736594D01*
X168990000Y-71590000D02*
X171706000Y-74306000D01*
X174294000Y-75800000D02*
X179500000Y-75800000D01*
X171706000Y-74306000D02*
X172863406Y-74306000D01*
X179500000Y-75800000D02*
X181100000Y-77400000D01*
X168990000Y-69900000D02*
X168990000Y-71590000D01*
X181100000Y-77400000D02*
X189500000Y-77400000D01*
%TO.N,S9*%
X172800000Y-66000000D02*
X172800000Y-60600000D01*
%TO.N,S12*%
X168990000Y-63010000D02*
X168990000Y-60600000D01*
X169000000Y-63020000D02*
X168990000Y-63010000D01*
X169000000Y-67800000D02*
X169000000Y-63020000D01*
X168900000Y-67900000D02*
X169000000Y-67800000D01*
%TO.N,S11*%
X170300000Y-66088569D02*
X170300000Y-63180000D01*
X170395167Y-66183736D02*
X170300000Y-66088569D01*
X170260000Y-63140000D02*
X170260000Y-60600000D01*
X170300000Y-63180000D02*
X170260000Y-63140000D01*
X170395167Y-67900000D02*
X170395167Y-66183736D01*
%TO.N,S10*%
X171600000Y-67000000D02*
X171600000Y-65400000D01*
X171500000Y-65300000D02*
X171500000Y-63160000D01*
X171530000Y-63130000D02*
X171530000Y-60600000D01*
X171500000Y-63160000D02*
X171530000Y-63130000D01*
X171600000Y-65400000D02*
X171500000Y-65300000D01*
%TO.N,Net-(U4-A2)*%
X154162500Y-61300000D02*
X158830000Y-65967500D01*
X158830000Y-65967500D02*
X158830000Y-69900000D01*
%TO.N,Net-(U4-INTB)*%
X154162500Y-70900000D02*
X155189500Y-71927000D01*
X160367999Y-71927000D02*
X161370000Y-70924999D01*
X161370000Y-70924999D02*
X161370000Y-69900000D01*
X155189500Y-71927000D02*
X160367999Y-71927000D01*
%TO.N,Net-(U4-INTA)*%
X154162500Y-73300000D02*
X159844941Y-73300000D01*
X159844941Y-73300000D02*
X162640000Y-70504941D01*
X162640000Y-70504941D02*
X162640000Y-69900000D01*
%TO.N,Net-(U4-~{RESET})*%
X155126000Y-69463500D02*
X155126000Y-70544388D01*
X154162500Y-68500000D02*
X155126000Y-69463500D01*
X159698999Y-71326000D02*
X160100000Y-70924999D01*
X155126000Y-70544388D02*
X155907612Y-71326000D01*
X160100000Y-70924999D02*
X160100000Y-69900000D01*
X155907612Y-71326000D02*
X159698999Y-71326000D01*
%TO.N,Net-(U4-A1)*%
X157560000Y-67097500D02*
X157560000Y-69900000D01*
X154162500Y-63700000D02*
X157560000Y-67097500D01*
%TO.N,Net-(U4-A0)*%
X154162500Y-66100000D02*
X156290000Y-68227500D01*
X156290000Y-68227500D02*
X156290000Y-69900000D01*
%TO.N,Net-(U2-A5)*%
X137862500Y-63775000D02*
X139962500Y-63775000D01*
X139962500Y-63775000D02*
X141337500Y-62400000D01*
%TO.N,Net-(U2-A4)*%
X132137500Y-63775000D02*
X130512442Y-63775000D01*
X130512442Y-63775000D02*
X127626000Y-66661442D01*
X127626000Y-68311500D02*
X126662500Y-69275000D01*
X127626000Y-67676580D02*
X127626000Y-68311500D01*
X127626000Y-66661442D02*
X127626000Y-67676580D01*
%TO.N,Net-(U2-A3)*%
X130312500Y-63125000D02*
X126662500Y-66775000D01*
X132137500Y-63125000D02*
X130312500Y-63125000D01*
%TO.N,Net-(U2-A2)*%
X132137500Y-62475000D02*
X128462500Y-62475000D01*
X128462500Y-62475000D02*
X126662500Y-64275000D01*
%TO.N,Net-(U2-A1)*%
X132137500Y-61825000D02*
X126712500Y-61825000D01*
X126712500Y-61825000D02*
X126662500Y-61775000D01*
%TO.N,Net-(U2-A0)*%
X132137500Y-61175000D02*
X128462500Y-61175000D01*
X128462500Y-61175000D02*
X126662500Y-59375000D01*
%TO.N,Net-(U2-~{OE})*%
X141337500Y-64800000D02*
X140962500Y-64425000D01*
X140462500Y-64425000D02*
X140837500Y-64800000D01*
X137862500Y-64425000D02*
X140462500Y-64425000D01*
%TO.N,SDA*%
X148601000Y-58300000D02*
X147200000Y-56899000D01*
X133750000Y-63150000D02*
X135101000Y-61799000D01*
X137862500Y-61825000D02*
X138661292Y-61825000D01*
X139599000Y-60887292D02*
X139599000Y-58001000D01*
X137836500Y-61799000D02*
X137862500Y-61825000D01*
X138661292Y-61825000D02*
X139599000Y-60887292D01*
X157560000Y-59960000D02*
X155900000Y-58300000D01*
X155900000Y-58300000D02*
X148601000Y-58300000D01*
X157560000Y-60600000D02*
X157560000Y-59960000D01*
X139599000Y-58001000D02*
X140700000Y-56900000D01*
X135101000Y-61799000D02*
X137836500Y-61799000D01*
%TO.N,SCL*%
X141900000Y-58800000D02*
X140200000Y-60500000D01*
X158830000Y-60600000D02*
X158830000Y-60030000D01*
X140200000Y-62100000D02*
X139800000Y-62500000D01*
X139800000Y-62500000D02*
X137887500Y-62500000D01*
X156500000Y-57700000D02*
X150501000Y-57700000D01*
X137887500Y-62500000D02*
X137862500Y-62475000D01*
X158830000Y-60030000D02*
X156500000Y-57700000D01*
X140200000Y-60500000D02*
X140200000Y-62100000D01*
X150501000Y-57700000D02*
X148600000Y-55799000D01*
X141900000Y-57900000D02*
X141900000Y-58800000D01*
D46*
%TO.N,3.3V*%
X151200000Y-75100000D02*
X151200000Y-73337500D01*
D48*
X162640000Y-63060000D02*
X162640000Y-60600000D01*
D46*
X135500000Y-81500000D02*
X144300000Y-81500000D01*
X144300000Y-81500000D02*
X146900000Y-78900000D01*
X151237500Y-70900000D02*
X151237500Y-68500000D01*
X151200000Y-73337500D02*
X151237500Y-73300000D01*
D47*
X137862500Y-61175000D02*
X137586500Y-60899000D01*
D46*
X151237500Y-73300000D02*
X151237500Y-70900000D01*
D47*
X134101000Y-60899000D02*
X133800000Y-61200000D01*
D46*
X129680000Y-75680000D02*
X135500000Y-81500000D01*
D48*
X162800000Y-63220000D02*
X162640000Y-63060000D01*
X162800000Y-67500000D02*
X162800000Y-63220000D01*
D46*
X129680000Y-72380000D02*
X129680000Y-75680000D01*
D47*
X137586500Y-60899000D02*
X134101000Y-60899000D01*
%TO.N,LED1B*%
X130900000Y-67322114D02*
X130900000Y-66163708D01*
X130422846Y-67992109D02*
X130422846Y-67799268D01*
X131338708Y-65725000D02*
X132137500Y-65725000D01*
X132300000Y-52800000D02*
X132300000Y-58900000D01*
X130422846Y-67799268D02*
X130900000Y-67322114D01*
X132300000Y-58900000D02*
X132000000Y-59200000D01*
X132400000Y-49600000D02*
X133662501Y-48337499D01*
X133662501Y-48337499D02*
X133662501Y-45276350D01*
X130900000Y-66163708D02*
X131338708Y-65725000D01*
%TO.N,LED1G*%
X140000000Y-31999000D02*
X141499000Y-30500000D01*
X130500000Y-52800000D02*
X130500000Y-58800000D01*
X130400000Y-58900000D02*
X130400000Y-59199000D01*
X130500000Y-58800000D02*
X130400000Y-58900000D01*
X130912326Y-65075000D02*
X129825799Y-66161527D01*
X140000000Y-32052700D02*
X140000000Y-31999000D01*
X132137500Y-65075000D02*
X130912326Y-65075000D01*
X129825799Y-66161527D02*
X129825799Y-66725799D01*
%TO.N,LED2G*%
X146784372Y-64300000D02*
X146800000Y-64300000D01*
X158902000Y-38665686D02*
X158902000Y-39163570D01*
X143689790Y-67923942D02*
X145048942Y-66564790D01*
X157264570Y-40801000D02*
X156766686Y-40801000D01*
X151900003Y-55700003D02*
X151900003Y-55800000D01*
X158549942Y-39515628D02*
X157616628Y-40448942D01*
X145401000Y-65714848D02*
X145401000Y-65683372D01*
X158902000Y-34298000D02*
X158902000Y-35704758D01*
X170800000Y-37100000D02*
X170800000Y-37200000D01*
X143275000Y-68325000D02*
X143324000Y-68276000D01*
X145401000Y-65683372D02*
X146784372Y-64300000D01*
X161600000Y-31600000D02*
X158902000Y-34298000D01*
X143324000Y-68276000D02*
X143337732Y-68276000D01*
X156766686Y-40801000D02*
X145848942Y-40801000D01*
X137862500Y-68325000D02*
X143275000Y-68325000D01*
X169352050Y-38647950D02*
X168371601Y-38647950D01*
X157616628Y-40448942D02*
X157264570Y-40801000D01*
X158902000Y-39163570D02*
X158549942Y-39515628D01*
X170800000Y-37200000D02*
X169352050Y-38647950D01*
X145401000Y-66212732D02*
X145401000Y-65714848D01*
X145101000Y-41548942D02*
X145101000Y-48901000D01*
X145848942Y-40801000D02*
X145101000Y-41548942D01*
X158902000Y-36202642D02*
X158902000Y-38665686D01*
X143337732Y-68276000D02*
X143689790Y-67923942D01*
X145101000Y-48901000D02*
X151900003Y-55700003D01*
X158902000Y-35704758D02*
X158902000Y-36202642D01*
X145048942Y-66564790D02*
X145401000Y-66212732D01*
%TO.N,LED3G*%
X133613766Y-67675000D02*
X136413708Y-70474942D01*
X144272884Y-70827000D02*
X144624942Y-70474942D01*
X132137500Y-67675000D02*
X133613766Y-67675000D01*
X191295774Y-61400000D02*
X189200000Y-63495774D01*
X143775000Y-70827000D02*
X144173000Y-70827000D01*
X162000000Y-58500000D02*
X166002000Y-54498000D01*
X146401000Y-70299000D02*
X146800000Y-69900000D01*
X136765766Y-70827000D02*
X137263650Y-70827000D01*
X136413708Y-70474942D02*
X136765766Y-70827000D01*
X144624942Y-70474942D02*
X144800884Y-70299000D01*
X183302000Y-54498000D02*
X184700000Y-53100000D01*
X192300000Y-61400000D02*
X191295774Y-61400000D01*
X137263650Y-70827000D02*
X143775000Y-70827000D01*
X144173000Y-70827000D02*
X144272884Y-70827000D01*
X166002000Y-54498000D02*
X183302000Y-54498000D01*
X144800884Y-70299000D02*
X146401000Y-70299000D01*
%TO.N,LED2W*%
X169650000Y-52600000D02*
X169650000Y-52350000D01*
X156314221Y-54200000D02*
X156497841Y-54200000D01*
X169703400Y-52296600D02*
X169703400Y-50200000D01*
X154700000Y-55814221D02*
X156314221Y-54200000D01*
X156497841Y-54200000D02*
X156797784Y-53900057D01*
X145901000Y-67499000D02*
X143775000Y-69625000D01*
X146401000Y-67499000D02*
X145901000Y-67499000D01*
X143775000Y-69625000D02*
X137862500Y-69625000D01*
X169650000Y-52350000D02*
X169703400Y-52296600D01*
X154700000Y-56700000D02*
X154700000Y-55814221D01*
X146800000Y-67100000D02*
X146401000Y-67499000D01*
%TO.N,LED2R*%
X144500000Y-50000000D02*
X150272418Y-55772418D01*
X144800000Y-65963790D02*
X143088790Y-67675000D01*
X158301000Y-35953700D02*
X158301000Y-38914628D01*
X143088790Y-67675000D02*
X137862500Y-67675000D01*
X156803400Y-34456100D02*
X158301000Y-35953700D01*
X150272418Y-55772418D02*
X150527582Y-55772418D01*
X158301000Y-38914628D02*
X157015628Y-40200000D01*
X144500000Y-41300000D02*
X144500000Y-50000000D01*
X145600000Y-40200000D02*
X144500000Y-41300000D01*
X146800000Y-62900000D02*
X146784372Y-62900000D01*
X144800000Y-64884372D02*
X144800000Y-65963790D01*
X157015628Y-40200000D02*
X145600000Y-40200000D01*
X146784372Y-62900000D02*
X144800000Y-64884372D01*
X150527582Y-55772418D02*
X150500000Y-55800000D01*
%TO.N,LED1W*%
X142743292Y-52781395D02*
X142743292Y-52456708D01*
X142743292Y-52456708D02*
X143137501Y-52062499D01*
X136264921Y-68035079D02*
X134604842Y-66375000D01*
X134604842Y-66375000D02*
X132137500Y-66375000D01*
X136800000Y-58800000D02*
X136000000Y-58000000D01*
X136000000Y-52800000D02*
X136100000Y-52900000D01*
X143137501Y-52062499D02*
X143137501Y-46676350D01*
X136000000Y-58000000D02*
X136000000Y-52800000D01*
%TO.N,LED3B*%
X146839844Y-76000789D02*
X146903338Y-76000789D01*
X142842633Y-79998000D02*
X146839844Y-76000789D01*
X135800000Y-71899720D02*
X135835000Y-71934720D01*
X135835000Y-71934720D02*
X135835000Y-72825280D01*
X135800000Y-70711176D02*
X135800000Y-71899720D01*
X181200000Y-69000000D02*
X192200000Y-69000000D01*
X180700000Y-68500000D02*
X181200000Y-69000000D01*
X169884381Y-56300000D02*
X167700006Y-58484375D01*
X132137500Y-68325000D02*
X133413824Y-68325000D01*
X133413824Y-68325000D02*
X135800000Y-70711176D01*
X134100000Y-77400000D02*
X136698000Y-79998000D01*
X135835000Y-72825280D02*
X134100000Y-74560280D01*
X178000000Y-59000000D02*
X175300000Y-56300000D01*
X136698000Y-79998000D02*
X142842633Y-79998000D01*
X167700006Y-58484375D02*
X167700006Y-58500000D01*
X175300000Y-56300000D02*
X169884381Y-56300000D01*
X178000000Y-69100000D02*
X178000000Y-59000000D01*
X134100000Y-74560280D02*
X134100000Y-77400000D01*
%TO.N,LED2B*%
X146784372Y-65700000D02*
X143509372Y-68975000D01*
X153300006Y-55800000D02*
X156893651Y-52206355D01*
X156893651Y-52206355D02*
X156893651Y-48752700D01*
X146800000Y-65700000D02*
X146784372Y-65700000D01*
X143509372Y-68975000D02*
X137862500Y-68975000D01*
%TO.N,LED3W*%
X176751000Y-69851000D02*
X176751000Y-58615133D01*
X217651001Y-90978750D02*
X216750001Y-91879750D01*
X170651009Y-56949000D02*
X169100009Y-58500000D01*
X211600000Y-80600000D02*
X217651001Y-86651001D01*
X211000000Y-79400000D02*
X211600000Y-80000000D01*
X146856261Y-77400000D02*
X146406261Y-77850000D01*
X146406261Y-77850000D02*
X146385372Y-77850000D01*
X143657261Y-80599000D02*
X135873206Y-80599000D01*
X133500000Y-78225794D02*
X133500000Y-69500000D01*
X146385372Y-77850000D02*
X145799000Y-78436372D01*
X132975000Y-68975000D02*
X132137500Y-68975000D01*
X175084866Y-56949000D02*
X170651009Y-56949000D01*
X191483867Y-70349001D02*
X191483867Y-70349000D01*
X205300000Y-75200000D02*
X203598000Y-73498000D01*
X135873206Y-80599000D02*
X133500000Y-78225794D01*
X211600000Y-80000000D02*
X211600000Y-80600000D01*
X132137500Y-68975000D02*
X132111500Y-69001000D01*
X176751000Y-58615133D02*
X175084866Y-56949000D01*
X203598000Y-73498000D02*
X194632866Y-73498000D01*
X191483867Y-70349000D02*
X177249000Y-70349000D01*
X145799000Y-78457261D02*
X143657261Y-80599000D01*
X194632866Y-73498000D02*
X191483867Y-70349001D01*
X217651001Y-86651001D02*
X217651001Y-90978750D01*
X133500000Y-69500000D02*
X132975000Y-68975000D01*
X145799000Y-78436372D02*
X145799000Y-78457261D01*
X177249000Y-70349000D02*
X176751000Y-69851000D01*
%TO.N,LED3R*%
X145749942Y-68500000D02*
X144023942Y-70226000D01*
X146800000Y-68500000D02*
X145749942Y-68500000D01*
X133840628Y-67051920D02*
X133840628Y-67025000D01*
X144023942Y-70226000D02*
X137014708Y-70226000D01*
X137014708Y-70226000D02*
X133840628Y-67051920D01*
X133840628Y-67025000D02*
X132137500Y-67025000D01*
%TO.N,LED1R*%
X128200000Y-49600000D02*
X125741694Y-49600000D01*
X130450001Y-35718227D02*
X128368228Y-37800000D01*
X128368228Y-37800000D02*
X127400000Y-37800000D01*
X124714901Y-40722030D02*
X125000000Y-40436931D01*
X124714901Y-48573207D02*
X124714901Y-40722030D01*
X125741694Y-49600000D02*
X124714901Y-48573207D01*
X130712384Y-64425000D02*
X128700000Y-66437384D01*
X129000000Y-52800000D02*
X129000000Y-59200000D01*
X130450001Y-34176350D02*
X130450001Y-35718227D01*
X132137500Y-64425000D02*
X130712384Y-64425000D01*
X128700000Y-66437384D02*
X128700000Y-68000000D01*
D51*
%TO.N,24V*%
X181220000Y-118000000D02*
X183760000Y-118000000D01*
X201515000Y-118025000D02*
X203841000Y-115699000D01*
X198975000Y-118025000D02*
X201515000Y-118025000D01*
X178919000Y-115699000D02*
X181220000Y-118000000D01*
X159100222Y-114330222D02*
X143213938Y-114330222D01*
X143213938Y-114330222D02*
X141713938Y-115830222D01*
X167711000Y-115699000D02*
X178919000Y-115699000D01*
X159100222Y-114330222D02*
X162820000Y-118050000D01*
X130379110Y-96679110D02*
X125644247Y-96679110D01*
X203841000Y-115699000D02*
X214589000Y-115699000D01*
X165360000Y-118050000D02*
X167711000Y-115699000D01*
X162820000Y-118050000D02*
X165360000Y-118050000D01*
X186036000Y-115724000D02*
X196674000Y-115724000D01*
X196674000Y-115724000D02*
X198975000Y-118025000D01*
X141713938Y-115830222D02*
X141713938Y-108013938D01*
X216890000Y-118000000D02*
X219430000Y-118000000D01*
X141713938Y-108013938D02*
X130379110Y-96679110D01*
X214589000Y-115699000D02*
X216890000Y-118000000D01*
X183760000Y-118000000D02*
X186036000Y-115724000D01*
D49*
%TO.N,4V1*%
X125200000Y-51400000D02*
X125400000Y-51200000D01*
D46*
X128500000Y-28200000D02*
X128500000Y-29812500D01*
D50*
X137500000Y-26462500D02*
X137500000Y-25500000D01*
D46*
X129137500Y-48100000D02*
X129501000Y-48463500D01*
D50*
X138087500Y-27050000D02*
X137500000Y-26462500D01*
D46*
X131900000Y-36200000D02*
X132900000Y-36200000D01*
X131800000Y-41000000D02*
X131800000Y-39900000D01*
D50*
X135475000Y-35000000D02*
X134100000Y-35000000D01*
D49*
X123400000Y-39200000D02*
X123400000Y-51400000D01*
D51*
X149100000Y-62100000D02*
X138200000Y-51200000D01*
D46*
X129137500Y-48100000D02*
X127812500Y-48100000D01*
X126225000Y-35900000D02*
X126100000Y-35900000D01*
X126100000Y-35900000D02*
X124700000Y-34500000D01*
X128549999Y-31623650D02*
X128549999Y-29937501D01*
X141275000Y-42400000D02*
X141275000Y-44086149D01*
X126225000Y-36375000D02*
X124400000Y-38200000D01*
D49*
X181010000Y-98975000D02*
X183550000Y-98975000D01*
D46*
X137287500Y-48100000D02*
X137287500Y-51012500D01*
X131800000Y-39900000D02*
X132150000Y-39550000D01*
X128549999Y-29937501D02*
X128587500Y-29900000D01*
X131800000Y-41000000D02*
X131800000Y-42686149D01*
D51*
X152100000Y-109100000D02*
X152500000Y-109500000D01*
D46*
X128500000Y-29812500D02*
X128587500Y-29900000D01*
D49*
X129500000Y-51200000D02*
X137100000Y-51200000D01*
D51*
X152500000Y-109500000D02*
X170485000Y-109500000D01*
D46*
X127812500Y-48100000D02*
X127712500Y-48200000D01*
D50*
X138087500Y-27750000D02*
X138087500Y-27050000D01*
D46*
X129501000Y-51199000D02*
X129500000Y-51200000D01*
X141275000Y-40575000D02*
X141200000Y-40500000D01*
X128900000Y-39200000D02*
X131900000Y-36200000D01*
X137287500Y-51012500D02*
X137100000Y-51200000D01*
X125400000Y-39200000D02*
X128900000Y-39200000D01*
D49*
X123400000Y-51400000D02*
X125200000Y-51400000D01*
D46*
X138712500Y-48100000D02*
X137287500Y-48100000D01*
D49*
X124400000Y-38200000D02*
X123400000Y-39200000D01*
D51*
X170485000Y-109500000D02*
X181010000Y-98975000D01*
D46*
X129501000Y-48463500D02*
X129501000Y-51199000D01*
D50*
X138087500Y-29487502D02*
X138099998Y-29500000D01*
D46*
X141275000Y-42400000D02*
X141275000Y-40575000D01*
X126225000Y-35900000D02*
X126225000Y-36375000D01*
D50*
X138087500Y-27750000D02*
X138087500Y-29487502D01*
D51*
X151200000Y-103000000D02*
X149100000Y-100900000D01*
D46*
X131800000Y-42686149D02*
X131762499Y-42723650D01*
D51*
X138200000Y-51200000D02*
X137300000Y-51200000D01*
D46*
X141275000Y-44086149D02*
X141237499Y-44123650D01*
X132900000Y-36200000D02*
X134100000Y-35000000D01*
X124400000Y-38200000D02*
X125400000Y-39200000D01*
D51*
X149100000Y-100900000D02*
X149100000Y-62100000D01*
D49*
X125400000Y-51200000D02*
X129500000Y-51200000D01*
D46*
%TO.N,Net-(J19-Pin_6)*%
X201246599Y-71250001D02*
X201396600Y-71100000D01*
%TO.N,4V3*%
X201321601Y-69349999D02*
X201396600Y-69275000D01*
X201396600Y-69275000D02*
X201625000Y-69275000D01*
D47*
%TO.N,LED3B*%
X192200000Y-69000000D02*
X194450001Y-71250001D01*
D46*
%TO.N,Net-(J19-Pin_5)*%
X204966273Y-65600000D02*
X207226576Y-63339697D01*
X201100000Y-65600000D02*
X204966273Y-65600000D01*
%TO.N,Net-(J19-Pin_6)*%
X205166587Y-68441587D02*
X203750000Y-67025000D01*
X205166587Y-68866587D02*
X208613398Y-65419776D01*
X205166587Y-68866587D02*
X205166587Y-68441587D01*
X202933174Y-71100000D02*
X205166587Y-68866587D01*
D47*
%TO.N,LED3B*%
X194450001Y-71250001D02*
X197120250Y-71250001D01*
D46*
%TO.N,GND*%
X192825000Y-67700000D02*
X190800000Y-67700000D01*
X195396600Y-68475000D02*
X193600000Y-68475000D01*
X193600000Y-68475000D02*
X192825000Y-67700000D01*
%TO.N,4V3*%
X191800000Y-64800000D02*
X194796600Y-64800000D01*
X194796600Y-64800000D02*
X195396600Y-65400000D01*
%TD*%
M02*
