%TF.GenerationSoftware,KiCad,Pcbnew,9.0.0*%
%TF.CreationDate,2025-12-15T13:56:06-05:00*%
%TF.ProjectId,LightDisc,4c696768-7444-4697-9363-2e6b69636164,rev?*%
%TF.SameCoordinates,Original*%
%TF.FileFunction,Soldermask,Top*%
%TF.FilePolarity,Negative*%
%FSLAX46Y46*%
G04 Gerber Fmt 4.6, Leading zero omitted, Abs format (unit mm)*
G04 Created by KiCad (PCBNEW 9.0.0) date 2025-12-15 13:56:06*
%MOMM*%
%LPD*%
G01*
G04 APERTURE LIST*
G04 Aperture macros list*
%AMRoundRect*
0 Rectangle with rounded corners*
0 $1 Rounding radius*
0 $2 $3 $4 $5 $6 $7 $8 $9 X,Y pos of 4 corners*
0 Add a 4 corners polygon primitive as box body*
4,1,4,$2,$3,$4,$5,$6,$7,$8,$9,$2,$3,0*
0 Add four circle primitives for the rounded corners*
1,1,$1+$1,$2,$3*
1,1,$1+$1,$4,$5*
1,1,$1+$1,$6,$7*
1,1,$1+$1,$8,$9*
0 Add four rect primitives between the rounded corners*
20,1,$1+$1,$2,$3,$4,$5,0*
20,1,$1+$1,$4,$5,$6,$7,0*
20,1,$1+$1,$6,$7,$8,$9,0*
20,1,$1+$1,$8,$9,$2,$3,0*%
%AMHorizOval*
0 Thick line with rounded ends*
0 $1 width*
0 $2 $3 position (X,Y) of the first rounded end (center of the circle)*
0 $4 $5 position (X,Y) of the second rounded end (center of the circle)*
0 Add line between two ends*
20,1,$1,$2,$3,$4,$5,0*
0 Add two circle primitives to create the rounded ends*
1,1,$1,$2,$3*
1,1,$1,$4,$5*%
G04 Aperture macros list end*
%ADD10RoundRect,0.125000X-0.125000X0.125000X-0.125000X-0.125000X0.125000X-0.125000X0.125000X0.125000X0*%
%ADD11RoundRect,0.250000X-0.600000X-0.725000X0.600000X-0.725000X0.600000X0.725000X-0.600000X0.725000X0*%
%ADD12O,1.700000X1.950000*%
%ADD13R,1.498600X3.987800*%
%ADD14RoundRect,0.125000X0.125000X-0.125000X0.125000X0.125000X-0.125000X0.125000X-0.125000X-0.125000X0*%
%ADD15R,0.952500X0.457200*%
%ADD16RoundRect,0.250000X-0.450000X0.262500X-0.450000X-0.262500X0.450000X-0.262500X0.450000X0.262500X0*%
%ADD17RoundRect,0.225000X0.250000X-0.225000X0.250000X0.225000X-0.250000X0.225000X-0.250000X-0.225000X0*%
%ADD18RoundRect,0.225000X-0.250000X0.225000X-0.250000X-0.225000X0.250000X-0.225000X0.250000X0.225000X0*%
%ADD19RoundRect,0.250000X-0.901392X-0.270402X0.097057X-0.936058X0.901392X0.270402X-0.097057X0.936058X0*%
%ADD20HorizOval,1.700000X-0.069339X-0.104005X0.069339X0.104005X0*%
%ADD21RoundRect,0.250000X-0.936060X0.097041X-0.270386X-0.901397X0.936060X-0.097041X0.270386X0.901397X0*%
%ADD22HorizOval,1.700000X-0.104004X-0.069341X0.104004X0.069341X0*%
%ADD23R,1.700000X1.700000*%
%ADD24O,1.700000X1.700000*%
%ADD25RoundRect,0.225000X-0.225000X-0.250000X0.225000X-0.250000X0.225000X0.250000X-0.225000X0.250000X0*%
%ADD26RoundRect,0.225000X-0.335876X-0.017678X-0.017678X-0.335876X0.335876X0.017678X0.017678X0.335876X0*%
%ADD27RoundRect,0.250000X-0.262500X-0.450000X0.262500X-0.450000X0.262500X0.450000X-0.262500X0.450000X0*%
%ADD28R,3.987800X1.498600*%
%ADD29C,1.701800*%
%ADD30R,0.457200X0.952500*%
%ADD31RoundRect,0.250000X-0.312500X-0.625000X0.312500X-0.625000X0.312500X0.625000X-0.312500X0.625000X0*%
%ADD32C,3.200000*%
%ADD33RoundRect,0.250000X-0.625000X0.312500X-0.625000X-0.312500X0.625000X-0.312500X0.625000X0.312500X0*%
%ADD34RoundRect,0.100000X-0.637500X-0.100000X0.637500X-0.100000X0.637500X0.100000X-0.637500X0.100000X0*%
%ADD35RoundRect,0.250000X-0.950000X-0.550000X0.950000X-0.550000X0.950000X0.550000X-0.950000X0.550000X0*%
%ADD36O,2.400000X1.600000*%
%ADD37RoundRect,0.125000X-0.125000X-0.125000X0.125000X-0.125000X0.125000X0.125000X-0.125000X0.125000X0*%
%ADD38RoundRect,0.125000X0.125000X0.125000X-0.125000X0.125000X-0.125000X-0.125000X0.125000X-0.125000X0*%
%ADD39C,1.552000*%
%ADD40RoundRect,0.250000X0.312500X0.625000X-0.312500X0.625000X-0.312500X-0.625000X0.312500X-0.625000X0*%
%ADD41R,1.600000X1.600000*%
%ADD42C,1.600000*%
%ADD43RoundRect,0.150000X-0.150000X0.875000X-0.150000X-0.875000X0.150000X-0.875000X0.150000X0.875000X0*%
%ADD44RoundRect,0.225000X0.225000X0.250000X-0.225000X0.250000X-0.225000X-0.250000X0.225000X-0.250000X0*%
G04 APERTURE END LIST*
D10*
%TO.C,D14*%
X146750000Y-84800000D03*
X146750000Y-87000000D03*
%TD*%
D11*
%TO.C,J2*%
X131500000Y-22500000D03*
D12*
X134000000Y-22500000D03*
X136500000Y-22500000D03*
X139000000Y-22500000D03*
X141500000Y-22500000D03*
X144000000Y-22500000D03*
X146500000Y-22500000D03*
X149000000Y-22500000D03*
X151500000Y-22500000D03*
X154000000Y-22500000D03*
%TD*%
D13*
%TO.C,L9*%
X180454812Y-45800000D03*
X184061612Y-45800000D03*
%TD*%
D14*
%TO.C,D9*%
X178258212Y-43400000D03*
X178258212Y-45600000D03*
%TD*%
D15*
%TO.C,U16*%
X182634562Y-49649999D03*
X182634562Y-51550001D03*
X180081862Y-51550001D03*
X180081862Y-50600000D03*
X180081862Y-49649999D03*
%TD*%
D16*
%TO.C,R16*%
X184458212Y-51412500D03*
X184458212Y-49587500D03*
%TD*%
D17*
%TO.C,C25*%
X178258212Y-47025000D03*
X178258212Y-48575000D03*
%TD*%
D16*
%TO.C,R18*%
X201396600Y-69275000D03*
X201396600Y-71100000D03*
%TD*%
D13*
%TO.C,L11*%
X201100000Y-65600000D03*
X197493200Y-65600000D03*
%TD*%
D15*
%TO.C,U18*%
X197120250Y-69349999D03*
X197120250Y-70300000D03*
X197120250Y-71250001D03*
X199672950Y-71250001D03*
X199672950Y-69349999D03*
%TD*%
D14*
%TO.C,D11*%
X195396600Y-65400000D03*
X195396600Y-63200000D03*
%TD*%
D18*
%TO.C,C31*%
X203750000Y-65475000D03*
X203750000Y-67025000D03*
%TD*%
D19*
%TO.C,J12*%
X169319381Y-28179294D03*
D20*
X171399484Y-29566078D03*
X173479587Y-30952863D03*
X175559690Y-32339647D03*
X177639794Y-33726431D03*
X179719897Y-35113216D03*
X181800000Y-36500000D03*
X183880103Y-37886784D03*
X185960206Y-39273569D03*
X188040309Y-40660353D03*
%TD*%
D21*
%TO.C,J19*%
X201679294Y-55019381D03*
D22*
X203066114Y-57099461D03*
X204452936Y-59179538D03*
X205839756Y-61259617D03*
X207226576Y-63339697D03*
X208613399Y-65419776D03*
X210000218Y-67499855D03*
X211387038Y-69579934D03*
X212773859Y-71660012D03*
X214160681Y-73740091D03*
%TD*%
D23*
%TO.C,J20*%
X165875844Y-83262500D03*
D24*
X165875844Y-85802500D03*
X165875844Y-88342500D03*
X165875844Y-90882500D03*
X165875844Y-93422500D03*
%TD*%
D23*
%TO.C,J11*%
X184390000Y-83350000D03*
D24*
X184390000Y-85890000D03*
X184390000Y-88430000D03*
X184390000Y-90970000D03*
X184390000Y-93510000D03*
%TD*%
D23*
%TO.C,J14*%
X203120000Y-83240000D03*
D24*
X203120000Y-85780000D03*
X203120000Y-88320000D03*
X203120000Y-90860000D03*
X203120000Y-93400000D03*
%TD*%
D25*
%TO.C,C32*%
X208145000Y-78100000D03*
X209695000Y-78100000D03*
%TD*%
D18*
%TO.C,C23*%
X159500000Y-42825000D03*
X159500000Y-44375000D03*
%TD*%
%TO.C,C30*%
X191250000Y-56525000D03*
X191250000Y-58075000D03*
%TD*%
%TO.C,C21*%
X159500000Y-28025000D03*
X159500000Y-29575000D03*
%TD*%
%TO.C,C22*%
X170000000Y-33225000D03*
X170000000Y-34775000D03*
%TD*%
%TO.C,C29*%
X193800000Y-51200000D03*
X193800000Y-52750000D03*
%TD*%
D25*
%TO.C,C14*%
X134975000Y-27250000D03*
X136525000Y-27250000D03*
%TD*%
D26*
%TO.C,C24*%
X170051992Y-43451992D03*
X171148008Y-44548008D03*
%TD*%
D25*
%TO.C,C13*%
X129345000Y-26900000D03*
X130895000Y-26900000D03*
%TD*%
D18*
%TO.C,C15*%
X134600000Y-37725000D03*
X134600000Y-39275000D03*
%TD*%
D25*
%TO.C,C16*%
X141475000Y-36750000D03*
X143025000Y-36750000D03*
%TD*%
D27*
%TO.C,R17*%
X187237499Y-59119424D03*
X189062499Y-59119424D03*
%TD*%
D28*
%TO.C,L6*%
X162625000Y-34768200D03*
X162625000Y-38375000D03*
%TD*%
D29*
%TO.C,J13*%
X125644247Y-96679110D03*
X128858185Y-100509332D03*
X132072123Y-104339554D03*
X135286061Y-108169777D03*
X138500000Y-112000000D03*
X141713938Y-115830222D03*
%TD*%
D30*
%TO.C,U14*%
X154993649Y-48752700D03*
X155943650Y-48752700D03*
X156893651Y-48752700D03*
X156893651Y-46200000D03*
X154993649Y-46200000D03*
%TD*%
D23*
%TO.C,J16*%
X190055000Y-118025000D03*
D24*
X187515000Y-118025000D03*
%TD*%
D23*
%TO.C,J9*%
X181010000Y-98975000D03*
D24*
X183550000Y-98975000D03*
%TD*%
D28*
%TO.C,L4*%
X137487500Y-42296600D03*
X137487500Y-45903400D03*
%TD*%
D31*
%TO.C,R28*%
X140837500Y-64800000D03*
X143762500Y-64800000D03*
%TD*%
D32*
%TO.C,H3*%
X125000000Y-24000000D03*
%TD*%
D23*
%TO.C,J10*%
X169760000Y-99000000D03*
D24*
X172300000Y-99000000D03*
%TD*%
D33*
%TO.C,R20*%
X137200000Y-75200000D03*
X137200000Y-78125000D03*
%TD*%
D28*
%TO.C,L8*%
X162600000Y-46296600D03*
X162600000Y-49903400D03*
%TD*%
D34*
%TO.C,U2*%
X132137500Y-61175000D03*
X132137500Y-61825000D03*
X132137500Y-62475000D03*
X132137500Y-63125000D03*
X132137500Y-63775000D03*
X132137500Y-64425000D03*
X132137500Y-65075000D03*
X132137500Y-65725000D03*
X132137500Y-66375000D03*
X132137500Y-67025000D03*
X132137500Y-67675000D03*
X132137500Y-68325000D03*
X132137500Y-68975000D03*
X132137500Y-69625000D03*
X137862500Y-69625000D03*
X137862500Y-68975000D03*
X137862500Y-68325000D03*
X137862500Y-67675000D03*
X137862500Y-67025000D03*
X137862500Y-66375000D03*
X137862500Y-65725000D03*
X137862500Y-65075000D03*
X137862500Y-64425000D03*
X137862500Y-63775000D03*
X137862500Y-63125000D03*
X137862500Y-62475000D03*
X137862500Y-61825000D03*
X137862500Y-61175000D03*
%TD*%
D35*
%TO.C,Q1*%
X170890000Y-77310000D03*
D36*
X170890000Y-79850000D03*
X170890000Y-82390000D03*
X170890000Y-84930000D03*
X170890000Y-87470000D03*
X170890000Y-90010000D03*
X170890000Y-92550000D03*
X170890000Y-95090000D03*
X178510000Y-95090000D03*
X178510000Y-92550000D03*
X178510000Y-90010000D03*
X178510000Y-87470000D03*
X178510000Y-84930000D03*
X178510000Y-82390000D03*
X178510000Y-79850000D03*
X178510000Y-77310000D03*
%TD*%
D32*
%TO.C,H1*%
X133000000Y-116000000D03*
%TD*%
D37*
%TO.C,D13*%
X143400000Y-93000000D03*
X145600000Y-93000000D03*
%TD*%
D23*
%TO.C,J18*%
X187765000Y-99025000D03*
D24*
X190305000Y-99025000D03*
%TD*%
D30*
%TO.C,U9*%
X138099998Y-32052700D03*
X139049999Y-32052700D03*
X140000000Y-32052700D03*
X140000000Y-29500000D03*
X138099998Y-29500000D03*
%TD*%
D27*
%TO.C,R9*%
X141275000Y-42400000D03*
X143100000Y-42400000D03*
%TD*%
D38*
%TO.C,D6*%
X127712500Y-48200000D03*
X125512500Y-48200000D03*
%TD*%
D23*
%TO.C,J24*%
X205390000Y-99000000D03*
D24*
X207930000Y-99000000D03*
%TD*%
D39*
%TO.C,U1*%
X142380000Y-72380000D03*
X139840000Y-72380000D03*
X137300000Y-72380000D03*
X134760000Y-72380000D03*
X129680000Y-72380000D03*
X132220000Y-72380000D03*
X124600000Y-87620000D03*
X124600000Y-72380000D03*
X127140000Y-87620000D03*
X129680000Y-87620000D03*
X132220000Y-87620000D03*
X134760000Y-87620000D03*
X137300000Y-87620000D03*
X139840000Y-87620000D03*
X142380000Y-87620000D03*
X127140000Y-72380000D03*
%TD*%
D40*
%TO.C,R27*%
X126662500Y-59375000D03*
X123737500Y-59375000D03*
%TD*%
D28*
%TO.C,L10*%
X183449999Y-59516024D03*
X183449999Y-63122824D03*
%TD*%
D40*
%TO.C,R5*%
X154162500Y-63700000D03*
X151237500Y-63700000D03*
%TD*%
D23*
%TO.C,J5*%
X163030000Y-99050000D03*
D24*
X165570000Y-99050000D03*
%TD*%
D28*
%TO.C,L3*%
X127912500Y-42296600D03*
X127912500Y-45903400D03*
%TD*%
D33*
%TO.C,R15*%
X139800000Y-75237500D03*
X139800000Y-78162500D03*
%TD*%
D40*
%TO.C,R24*%
X126662500Y-66775000D03*
X123737500Y-66775000D03*
%TD*%
D38*
%TO.C,D1*%
X150903400Y-36403400D03*
X148703400Y-36403400D03*
%TD*%
D23*
%TO.C,J15*%
X198975000Y-118025000D03*
D24*
X201515000Y-118025000D03*
%TD*%
D32*
%TO.C,H5*%
X195000000Y-47000000D03*
%TD*%
D38*
%TO.C,D4*%
X163903400Y-52100000D03*
X161703400Y-52100000D03*
%TD*%
D27*
%TO.C,R14*%
X167840899Y-45900000D03*
X169665899Y-45900000D03*
%TD*%
D33*
%TO.C,R10*%
X142400000Y-75237500D03*
X142400000Y-78162500D03*
%TD*%
D31*
%TO.C,R22*%
X141337500Y-62400000D03*
X144262500Y-62400000D03*
%TD*%
D40*
%TO.C,R23*%
X126662500Y-69275000D03*
X123737500Y-69275000D03*
%TD*%
D30*
%TO.C,U13*%
X166471599Y-38647950D03*
X167421600Y-38647950D03*
X168371601Y-38647950D03*
X168371601Y-36095250D03*
X166471599Y-36095250D03*
%TD*%
D32*
%TO.C,H7*%
X125500000Y-107000000D03*
%TD*%
D41*
%TO.C,C2*%
X145500000Y-104000000D03*
D42*
X148000000Y-104000000D03*
%TD*%
D40*
%TO.C,R25*%
X126662500Y-64275000D03*
X123737500Y-64275000D03*
%TD*%
D41*
%TO.C,C1*%
X137000000Y-93500000D03*
D42*
X139500000Y-93500000D03*
%TD*%
D35*
%TO.C,Q3*%
X152755844Y-77380000D03*
D36*
X152755844Y-79920000D03*
X152755844Y-82460000D03*
X152755844Y-85000000D03*
X152755844Y-87540000D03*
X152755844Y-90080000D03*
X152755844Y-92620000D03*
X152755844Y-95160000D03*
X160375844Y-95160000D03*
X160375844Y-92620000D03*
X160375844Y-90080000D03*
X160375844Y-87540000D03*
X160375844Y-85000000D03*
X160375844Y-82460000D03*
X160375844Y-79920000D03*
X160375844Y-77380000D03*
%TD*%
D23*
%TO.C,J6*%
X151530000Y-99050000D03*
D24*
X154070000Y-99050000D03*
%TD*%
D30*
%TO.C,U11*%
X141237499Y-46676350D03*
X142187500Y-46676350D03*
X143137501Y-46676350D03*
X143137501Y-44123650D03*
X141237499Y-44123650D03*
%TD*%
%TO.C,U12*%
X154903398Y-34456100D03*
X155853399Y-34456100D03*
X156803400Y-34456100D03*
X156803400Y-31903400D03*
X154903398Y-31903400D03*
%TD*%
D27*
%TO.C,R7*%
X138087500Y-27750000D03*
X139912500Y-27750000D03*
%TD*%
D23*
%TO.C,J8*%
X172260000Y-118000000D03*
D24*
X169720000Y-118000000D03*
%TD*%
D38*
%TO.C,D3*%
X150920000Y-50500000D03*
X148720000Y-50500000D03*
%TD*%
D40*
%TO.C,R1*%
X154162500Y-61300000D03*
X151237500Y-61300000D03*
%TD*%
D38*
%TO.C,D10*%
X183249999Y-65319424D03*
X181049999Y-65319424D03*
%TD*%
D32*
%TO.C,H6*%
X160500000Y-23500000D03*
%TD*%
D30*
%TO.C,U15*%
X167803398Y-50200000D03*
X168753399Y-50200000D03*
X169703400Y-50200000D03*
X169703400Y-47647300D03*
X167803398Y-47647300D03*
%TD*%
D28*
%TO.C,L7*%
X150200000Y-44696600D03*
X150200000Y-48303400D03*
%TD*%
D23*
%TO.C,J3*%
X162820000Y-118050000D03*
D24*
X165360000Y-118050000D03*
%TD*%
D40*
%TO.C,R4*%
X154162500Y-68500000D03*
X151237500Y-68500000D03*
%TD*%
D38*
%TO.C,D2*%
X161000000Y-40700000D03*
X158800000Y-40700000D03*
%TD*%
%TO.C,D8*%
X124700000Y-34500000D03*
X122500000Y-34500000D03*
%TD*%
D23*
%TO.C,J22*%
X208140000Y-118000000D03*
D24*
X205600000Y-118000000D03*
%TD*%
D28*
%TO.C,L5*%
X151100000Y-30500000D03*
X151100000Y-34106800D03*
%TD*%
D27*
%TO.C,R11*%
X154940899Y-30103400D03*
X156765899Y-30103400D03*
%TD*%
%TO.C,R13*%
X155007500Y-44400000D03*
X156832500Y-44400000D03*
%TD*%
%TO.C,R12*%
X166403400Y-34271600D03*
X168228400Y-34271600D03*
%TD*%
D40*
%TO.C,R26*%
X126662500Y-61775000D03*
X123737500Y-61775000D03*
%TD*%
D23*
%TO.C,J23*%
X216890000Y-99000000D03*
D24*
X219430000Y-99000000D03*
%TD*%
D40*
%TO.C,R3*%
X154162500Y-73300000D03*
X151237500Y-73300000D03*
%TD*%
D23*
%TO.C,J17*%
X198975000Y-99025000D03*
D24*
X201515000Y-99025000D03*
%TD*%
D27*
%TO.C,R19*%
X214787500Y-87603400D03*
X216612500Y-87603400D03*
%TD*%
D23*
%TO.C,J4*%
X154110000Y-118025000D03*
D24*
X151570000Y-118025000D03*
%TD*%
D30*
%TO.C,U17*%
X187299998Y-63495774D03*
X188249999Y-63495774D03*
X189200000Y-63495774D03*
X189200000Y-60943074D03*
X187299998Y-60943074D03*
%TD*%
D38*
%TO.C,D7*%
X134100000Y-35000000D03*
X131900000Y-35000000D03*
%TD*%
D32*
%TO.C,H2*%
X143400000Y-98200000D03*
%TD*%
D30*
%TO.C,U19*%
X214849999Y-91879750D03*
X215800000Y-91879750D03*
X216750001Y-91879750D03*
X216750001Y-89327050D03*
X214849999Y-89327050D03*
%TD*%
D40*
%TO.C,R21*%
X154162500Y-66100000D03*
X151237500Y-66100000D03*
%TD*%
D23*
%TO.C,J7*%
X181220000Y-118000000D03*
D24*
X183760000Y-118000000D03*
%TD*%
D30*
%TO.C,U10*%
X131762499Y-45276350D03*
X132712500Y-45276350D03*
X133662501Y-45276350D03*
X133662501Y-42723650D03*
X131762499Y-42723650D03*
%TD*%
D38*
%TO.C,D5*%
X137287500Y-48100000D03*
X135087500Y-48100000D03*
%TD*%
D27*
%TO.C,R8*%
X131800000Y-41000000D03*
X133625000Y-41000000D03*
%TD*%
D43*
%TO.C,U4*%
X172800000Y-60600000D03*
X171530000Y-60600000D03*
X170260000Y-60600000D03*
X168990000Y-60600000D03*
X167720000Y-60600000D03*
X166450000Y-60600000D03*
X165180000Y-60600000D03*
X163910000Y-60600000D03*
X162640000Y-60600000D03*
X161370000Y-60600000D03*
X160100000Y-60600000D03*
X158830000Y-60600000D03*
X157560000Y-60600000D03*
X156290000Y-60600000D03*
X156290000Y-69900000D03*
X157560000Y-69900000D03*
X158830000Y-69900000D03*
X160100000Y-69900000D03*
X161370000Y-69900000D03*
X162640000Y-69900000D03*
X163910000Y-69900000D03*
X165180000Y-69900000D03*
X166450000Y-69900000D03*
X167720000Y-69900000D03*
X168990000Y-69900000D03*
X170260000Y-69900000D03*
X171530000Y-69900000D03*
X172800000Y-69900000D03*
%TD*%
D30*
%TO.C,U8*%
X128549999Y-34176350D03*
X129500000Y-34176350D03*
X130450001Y-34176350D03*
X130450001Y-31623650D03*
X128549999Y-31623650D03*
%TD*%
D23*
%TO.C,J21*%
X216890000Y-118000000D03*
D24*
X219430000Y-118000000D03*
%TD*%
D27*
%TO.C,R6*%
X128587500Y-29900000D03*
X130412500Y-29900000D03*
%TD*%
D38*
%TO.C,D12*%
X210900000Y-93603400D03*
X208700000Y-93603400D03*
%TD*%
D28*
%TO.C,L1*%
X124500000Y-28696600D03*
X124500000Y-32303400D03*
%TD*%
%TO.C,L2*%
X134250000Y-29196600D03*
X134250000Y-32803400D03*
%TD*%
D40*
%TO.C,R2*%
X154162500Y-70900000D03*
X151237500Y-70900000D03*
%TD*%
D28*
%TO.C,L12*%
X211000000Y-87900000D03*
X211000000Y-91506800D03*
%TD*%
D35*
%TO.C,Q2*%
X189500000Y-77400000D03*
D36*
X189500000Y-79940000D03*
X189500000Y-82480000D03*
X189500000Y-85020000D03*
X189500000Y-87560000D03*
X189500000Y-90100000D03*
X189500000Y-92640000D03*
X189500000Y-95180000D03*
X197120000Y-95180000D03*
X197120000Y-92640000D03*
X197120000Y-90100000D03*
X197120000Y-87560000D03*
X197120000Y-85020000D03*
X197120000Y-82480000D03*
X197120000Y-79940000D03*
X197120000Y-77400000D03*
%TD*%
D32*
%TO.C,H4*%
X217500000Y-80500000D03*
%TD*%
D44*
%TO.C,C19*%
X153995000Y-50500000D03*
X152445000Y-50500000D03*
%TD*%
%TO.C,C10*%
X137025000Y-35000000D03*
X135475000Y-35000000D03*
%TD*%
D17*
%TO.C,C27*%
X195396600Y-68475000D03*
X195396600Y-66925000D03*
%TD*%
D44*
%TO.C,C9*%
X127775000Y-35900000D03*
X126225000Y-35900000D03*
%TD*%
%TO.C,C11*%
X130687500Y-48100000D03*
X129137500Y-48100000D03*
%TD*%
%TO.C,C17*%
X153878400Y-36403400D03*
X152328400Y-36403400D03*
%TD*%
%TO.C,C18*%
X165400000Y-40471600D03*
X163850000Y-40471600D03*
%TD*%
%TO.C,C28*%
X213875000Y-93603400D03*
X212325000Y-93603400D03*
%TD*%
%TO.C,C20*%
X166878400Y-52000000D03*
X165328400Y-52000000D03*
%TD*%
%TO.C,C12*%
X140262500Y-48100000D03*
X138712500Y-48100000D03*
%TD*%
%TO.C,C26*%
X186324999Y-65319424D03*
X184774999Y-65319424D03*
%TD*%
M02*
