M48
; DRILL file {KiCad 9.0.0} date 2025-12-15T13:57:02-0500
; FORMAT={-:-/ absolute / metric / decimal}
; #@! TF.CreationDate,2025-12-15T13:57:02-05:00
; #@! TF.GenerationSoftware,Kicad,Pcbnew,9.0.0
; #@! TF.FileFunction,Plated,1,2,PTH
FMAT,2
METRIC
; #@! TA.AperFunction,Plated,PTH,ViaDrill
T1C0.600
; #@! TA.AperFunction,Plated,PTH,ComponentDrill
T2C0.800
; #@! TA.AperFunction,Plated,PTH,ComponentDrill
T3C0.840
; #@! TA.AperFunction,Plated,PTH,ComponentDrill
T4C0.950
; #@! TA.AperFunction,Plated,PTH,ComponentDrill
T5C1.000
; #@! TA.AperFunction,Plated,PTH,ComponentDrill
T6C1.194
%
G90
G05
T1
X124.4Y-38.2
X125.0Y-40.437
X127.4Y-37.8
X128.2Y-49.6
X128.5Y-28.2
X128.7Y-68.0
X129.0Y-52.8
X129.0Y-59.2
X129.176Y-35.576
X129.826Y-66.726
X130.4Y-59.199
X130.423Y-67.992
X130.5Y-52.8
X132.0Y-59.2
X132.112Y-46.9
X132.15Y-39.55
X132.3Y-52.8
X132.4Y-49.6
X133.75Y-63.15
X133.8Y-61.2
X135.2Y-76.6
X136.0Y-52.8
X136.265Y-68.035
X136.8Y-58.8
X137.1Y-51.2
X137.5Y-25.5
X138.162Y-33.862
X139.8Y-62.5
X140.7Y-56.9
X141.2Y-40.5
X141.499Y-30.5
X141.55Y-60.65
X141.9Y-57.9
X142.01Y-48.01
X142.743Y-52.781
X146.8Y-62.9
X146.8Y-64.3
X146.8Y-65.7
X146.8Y-67.1
X146.8Y-68.5
X146.8Y-69.9
X146.856Y-77.4
X146.9Y-71.4
X146.9Y-72.9
X146.9Y-74.4
X146.9Y-78.9
X146.903Y-76.001
X147.2Y-56.899
X148.6Y-55.799
X149.5Y-59.3
X150.5Y-55.8
X151.2Y-75.1
X151.2Y-103.0
X151.9Y-55.8
X152.1Y-109.1
X152.4Y-51.9
X152.7Y-39.2
X153.3Y-55.8
X153.7Y-44.3
X154.7Y-56.7
X154.9Y-28.1
X155.627Y-50.227
X156.798Y-53.9
X157.3Y-38.5
X158.847Y-51.7
X160.6Y-58.5
X161.4Y-66.4
X161.6Y-31.6
X162.0Y-58.5
X162.2Y-40.7
X162.8Y-67.5
X164.9Y-58.5
X165.4Y-33.0
X166.3Y-45.9
X166.3Y-58.5
X167.05Y-40.15
X167.7Y-58.5
X168.405Y-51.705
X168.9Y-67.9
X169.1Y-58.5
X169.65Y-52.6
X170.395Y-67.9
X170.8Y-37.1
X171.6Y-67.0
X172.8Y-66.0
X174.401Y-58.6
X175.1Y-60.6
X176.658Y-46.3
X178.0Y-69.1
X178.396Y-50.071
X180.7Y-68.5
X184.65Y-57.65
X184.7Y-53.1
X185.897Y-47.813
X186.65Y-53.15
X187.865Y-65.038
X190.8Y-67.7
X191.8Y-64.8
X192.3Y-61.4
X202.7Y-68.2
X205.3Y-75.2
X205.5Y-73.4
X211.0Y-79.4
X213.3Y-86.3
X215.418Y-93.418
T2
X137.0Y-93.5
X139.5Y-93.5
X145.5Y-104.0
X148.0Y-104.0
X152.756Y-77.38
X152.756Y-79.92
X152.756Y-82.46
X152.756Y-85.0
X152.756Y-87.54
X152.756Y-90.08
X152.756Y-92.62
X152.756Y-95.16
X160.376Y-77.38
X160.376Y-79.92
X160.376Y-82.46
X160.376Y-85.0
X160.376Y-87.54
X160.376Y-90.08
X160.376Y-92.62
X160.376Y-95.16
X170.89Y-77.31
X170.89Y-79.85
X170.89Y-82.39
X170.89Y-84.93
X170.89Y-87.47
X170.89Y-90.01
X170.89Y-92.55
X170.89Y-95.09
X178.51Y-77.31
X178.51Y-79.85
X178.51Y-82.39
X178.51Y-84.93
X178.51Y-87.47
X178.51Y-90.01
X178.51Y-92.55
X178.51Y-95.09
X189.5Y-77.4
X189.5Y-79.94
X189.5Y-82.48
X189.5Y-85.02
X189.5Y-87.56
X189.5Y-90.1
X189.5Y-92.64
X189.5Y-95.18
X197.12Y-77.4
X197.12Y-79.94
X197.12Y-82.48
X197.12Y-85.02
X197.12Y-87.56
X197.12Y-90.1
X197.12Y-92.64
X197.12Y-95.18
T3
X124.6Y-72.38
X124.6Y-87.62
X127.14Y-72.38
X127.14Y-87.62
X129.68Y-72.38
X129.68Y-87.62
X132.22Y-72.38
X132.22Y-87.62
X134.76Y-72.38
X134.76Y-87.62
X137.3Y-72.38
X137.3Y-87.62
X139.84Y-72.38
X139.84Y-87.62
X142.38Y-72.38
X142.38Y-87.62
T4
X131.5Y-22.5
X134.0Y-22.5
X136.5Y-22.5
X139.0Y-22.5
X141.5Y-22.5
X144.0Y-22.5
X146.5Y-22.5
X149.0Y-22.5
X151.5Y-22.5
X154.0Y-22.5
X169.319Y-28.179
X171.399Y-29.566
X173.48Y-30.953
X175.56Y-32.34
X177.64Y-33.726
X179.72Y-35.113
X181.8Y-36.5
X183.88Y-37.887
X185.96Y-39.274
X188.04Y-40.66
X201.679Y-55.019
X203.066Y-57.099
X204.453Y-59.18
X205.84Y-61.26
X207.227Y-63.34
X208.613Y-65.42
X210.0Y-67.5
X211.387Y-69.58
X212.774Y-71.66
X214.161Y-73.74
T5
X151.53Y-99.05
X151.57Y-118.025
X154.07Y-99.05
X154.11Y-118.025
X162.82Y-118.05
X163.03Y-99.05
X165.36Y-118.05
X165.57Y-99.05
X165.876Y-83.263
X165.876Y-85.802
X165.876Y-88.343
X165.876Y-90.882
X165.876Y-93.422
X169.72Y-118.0
X169.76Y-99.0
X172.26Y-118.0
X172.3Y-99.0
X181.01Y-98.975
X181.22Y-118.0
X183.55Y-98.975
X183.76Y-118.0
X184.39Y-83.35
X184.39Y-85.89
X184.39Y-88.43
X184.39Y-90.97
X184.39Y-93.51
X187.515Y-118.025
X187.765Y-99.025
X190.055Y-118.025
X190.305Y-99.025
X198.975Y-99.025
X198.975Y-118.025
X201.515Y-99.025
X201.515Y-118.025
X203.12Y-83.24
X203.12Y-85.78
X203.12Y-88.32
X203.12Y-90.86
X203.12Y-93.4
X205.39Y-99.0
X205.6Y-118.0
X207.93Y-99.0
X208.14Y-118.0
X216.89Y-99.0
X216.89Y-118.0
X219.43Y-99.0
X219.43Y-118.0
T6
X125.644Y-96.679
X128.858Y-100.509
X132.072Y-104.34
X135.286Y-108.17
X138.5Y-112.0
X141.714Y-115.83
M30
