%TF.GenerationSoftware,KiCad,Pcbnew,9.0.0*%
%TF.CreationDate,2025-12-15T13:56:06-05:00*%
%TF.ProjectId,LightDisc,4c696768-7444-4697-9363-2e6b69636164,rev?*%
%TF.SameCoordinates,Original*%
%TF.FileFunction,Soldermask,Bot*%
%TF.FilePolarity,Negative*%
%FSLAX46Y46*%
G04 Gerber Fmt 4.6, Leading zero omitted, Abs format (unit mm)*
G04 Created by KiCad (PCBNEW 9.0.0) date 2025-12-15 13:56:06*
%MOMM*%
%LPD*%
G01*
G04 APERTURE LIST*
G04 Aperture macros list*
%AMRoundRect*
0 Rectangle with rounded corners*
0 $1 Rounding radius*
0 $2 $3 $4 $5 $6 $7 $8 $9 X,Y pos of 4 corners*
0 Add a 4 corners polygon primitive as box body*
4,1,4,$2,$3,$4,$5,$6,$7,$8,$9,$2,$3,0*
0 Add four circle primitives for the rounded corners*
1,1,$1+$1,$2,$3*
1,1,$1+$1,$4,$5*
1,1,$1+$1,$6,$7*
1,1,$1+$1,$8,$9*
0 Add four rect primitives between the rounded corners*
20,1,$1+$1,$2,$3,$4,$5,0*
20,1,$1+$1,$4,$5,$6,$7,0*
20,1,$1+$1,$6,$7,$8,$9,0*
20,1,$1+$1,$8,$9,$2,$3,0*%
%AMHorizOval*
0 Thick line with rounded ends*
0 $1 width*
0 $2 $3 position (X,Y) of the first rounded end (center of the circle)*
0 $4 $5 position (X,Y) of the second rounded end (center of the circle)*
0 Add line between two ends*
20,1,$1,$2,$3,$4,$5,0*
0 Add two circle primitives to create the rounded ends*
1,1,$1,$2,$3*
1,1,$1,$4,$5*%
G04 Aperture macros list end*
%ADD10RoundRect,0.250000X-0.600000X-0.725000X0.600000X-0.725000X0.600000X0.725000X-0.600000X0.725000X0*%
%ADD11O,1.700000X1.950000*%
%ADD12RoundRect,0.250000X-0.901392X-0.270402X0.097057X-0.936058X0.901392X0.270402X-0.097057X0.936058X0*%
%ADD13HorizOval,1.700000X-0.069339X-0.104005X0.069339X0.104005X0*%
%ADD14RoundRect,0.250000X-0.936060X0.097041X-0.270386X-0.901397X0.936060X-0.097041X0.270386X0.901397X0*%
%ADD15HorizOval,1.700000X-0.104004X-0.069341X0.104004X0.069341X0*%
%ADD16R,1.700000X1.700000*%
%ADD17O,1.700000X1.700000*%
%ADD18C,1.701800*%
%ADD19C,3.200000*%
%ADD20RoundRect,0.250000X-0.950000X-0.550000X0.950000X-0.550000X0.950000X0.550000X-0.950000X0.550000X0*%
%ADD21O,2.400000X1.600000*%
%ADD22C,1.348000*%
%ADD23R,1.600000X1.600000*%
%ADD24C,1.600000*%
G04 APERTURE END LIST*
D10*
%TO.C,J2*%
X131500000Y-22500000D03*
D11*
X134000000Y-22500000D03*
X136500000Y-22500000D03*
X139000000Y-22500000D03*
X141500000Y-22500000D03*
X144000000Y-22500000D03*
X146500000Y-22500000D03*
X149000000Y-22500000D03*
X151500000Y-22500000D03*
X154000000Y-22500000D03*
%TD*%
D12*
%TO.C,J12*%
X169319381Y-28179294D03*
D13*
X171399484Y-29566078D03*
X173479587Y-30952863D03*
X175559690Y-32339647D03*
X177639794Y-33726431D03*
X179719897Y-35113216D03*
X181800000Y-36500000D03*
X183880103Y-37886784D03*
X185960206Y-39273569D03*
X188040309Y-40660353D03*
%TD*%
D14*
%TO.C,J19*%
X201679294Y-55019381D03*
D15*
X203066114Y-57099461D03*
X204452936Y-59179538D03*
X205839756Y-61259617D03*
X207226576Y-63339697D03*
X208613399Y-65419776D03*
X210000218Y-67499855D03*
X211387038Y-69579934D03*
X212773859Y-71660012D03*
X214160681Y-73740091D03*
%TD*%
D16*
%TO.C,J20*%
X165875844Y-83262500D03*
D17*
X165875844Y-85802500D03*
X165875844Y-88342500D03*
X165875844Y-90882500D03*
X165875844Y-93422500D03*
%TD*%
D16*
%TO.C,J11*%
X184390000Y-83350000D03*
D17*
X184390000Y-85890000D03*
X184390000Y-88430000D03*
X184390000Y-90970000D03*
X184390000Y-93510000D03*
%TD*%
D16*
%TO.C,J14*%
X203120000Y-83240000D03*
D17*
X203120000Y-85780000D03*
X203120000Y-88320000D03*
X203120000Y-90860000D03*
X203120000Y-93400000D03*
%TD*%
D18*
%TO.C,J13*%
X125644247Y-96679110D03*
X128858185Y-100509332D03*
X132072123Y-104339554D03*
X135286061Y-108169777D03*
X138500000Y-112000000D03*
X141713938Y-115830222D03*
%TD*%
D16*
%TO.C,J16*%
X190055000Y-118025000D03*
D17*
X187515000Y-118025000D03*
%TD*%
D16*
%TO.C,J9*%
X181010000Y-98975000D03*
D17*
X183550000Y-98975000D03*
%TD*%
D19*
%TO.C,H3*%
X125000000Y-24000000D03*
%TD*%
D16*
%TO.C,J10*%
X169760000Y-99000000D03*
D17*
X172300000Y-99000000D03*
%TD*%
D20*
%TO.C,Q1*%
X170890000Y-77310000D03*
D21*
X170890000Y-79850000D03*
X170890000Y-82390000D03*
X170890000Y-84930000D03*
X170890000Y-87470000D03*
X170890000Y-90010000D03*
X170890000Y-92550000D03*
X170890000Y-95090000D03*
X178510000Y-95090000D03*
X178510000Y-92550000D03*
X178510000Y-90010000D03*
X178510000Y-87470000D03*
X178510000Y-84930000D03*
X178510000Y-82390000D03*
X178510000Y-79850000D03*
X178510000Y-77310000D03*
%TD*%
D19*
%TO.C,H1*%
X133000000Y-116000000D03*
%TD*%
D16*
%TO.C,J18*%
X187765000Y-99025000D03*
D17*
X190305000Y-99025000D03*
%TD*%
D16*
%TO.C,J24*%
X205390000Y-99000000D03*
D17*
X207930000Y-99000000D03*
%TD*%
D22*
%TO.C,U1*%
X142380000Y-72380000D03*
X139840000Y-72380000D03*
X137300000Y-72380000D03*
X134760000Y-72380000D03*
X129680000Y-72380000D03*
X132220000Y-72380000D03*
X124600000Y-87620000D03*
X124600000Y-72380000D03*
X127140000Y-87620000D03*
X129680000Y-87620000D03*
X132220000Y-87620000D03*
X134760000Y-87620000D03*
X137300000Y-87620000D03*
X139840000Y-87620000D03*
X142380000Y-87620000D03*
X127140000Y-72380000D03*
%TD*%
D16*
%TO.C,J5*%
X163030000Y-99050000D03*
D17*
X165570000Y-99050000D03*
%TD*%
D16*
%TO.C,J15*%
X198975000Y-118025000D03*
D17*
X201515000Y-118025000D03*
%TD*%
D19*
%TO.C,H5*%
X195000000Y-47000000D03*
%TD*%
%TO.C,H7*%
X125500000Y-107000000D03*
%TD*%
D23*
%TO.C,C2*%
X145500000Y-104000000D03*
D24*
X148000000Y-104000000D03*
%TD*%
D23*
%TO.C,C1*%
X137000000Y-93500000D03*
D24*
X139500000Y-93500000D03*
%TD*%
D20*
%TO.C,Q3*%
X152755844Y-77380000D03*
D21*
X152755844Y-79920000D03*
X152755844Y-82460000D03*
X152755844Y-85000000D03*
X152755844Y-87540000D03*
X152755844Y-90080000D03*
X152755844Y-92620000D03*
X152755844Y-95160000D03*
X160375844Y-95160000D03*
X160375844Y-92620000D03*
X160375844Y-90080000D03*
X160375844Y-87540000D03*
X160375844Y-85000000D03*
X160375844Y-82460000D03*
X160375844Y-79920000D03*
X160375844Y-77380000D03*
%TD*%
D16*
%TO.C,J6*%
X151530000Y-99050000D03*
D17*
X154070000Y-99050000D03*
%TD*%
D16*
%TO.C,J8*%
X172260000Y-118000000D03*
D17*
X169720000Y-118000000D03*
%TD*%
D19*
%TO.C,H6*%
X160500000Y-23500000D03*
%TD*%
D16*
%TO.C,J3*%
X162820000Y-118050000D03*
D17*
X165360000Y-118050000D03*
%TD*%
D16*
%TO.C,J22*%
X208140000Y-118000000D03*
D17*
X205600000Y-118000000D03*
%TD*%
D16*
%TO.C,J23*%
X216890000Y-99000000D03*
D17*
X219430000Y-99000000D03*
%TD*%
D16*
%TO.C,J17*%
X198975000Y-99025000D03*
D17*
X201515000Y-99025000D03*
%TD*%
D16*
%TO.C,J4*%
X154110000Y-118025000D03*
D17*
X151570000Y-118025000D03*
%TD*%
D19*
%TO.C,H2*%
X143400000Y-98200000D03*
%TD*%
D16*
%TO.C,J7*%
X181220000Y-118000000D03*
D17*
X183760000Y-118000000D03*
%TD*%
D16*
%TO.C,J21*%
X216890000Y-118000000D03*
D17*
X219430000Y-118000000D03*
%TD*%
D20*
%TO.C,Q2*%
X189500000Y-77400000D03*
D21*
X189500000Y-79940000D03*
X189500000Y-82480000D03*
X189500000Y-85020000D03*
X189500000Y-87560000D03*
X189500000Y-90100000D03*
X189500000Y-92640000D03*
X189500000Y-95180000D03*
X197120000Y-95180000D03*
X197120000Y-92640000D03*
X197120000Y-90100000D03*
X197120000Y-87560000D03*
X197120000Y-85020000D03*
X197120000Y-82480000D03*
X197120000Y-79940000D03*
X197120000Y-77400000D03*
%TD*%
D19*
%TO.C,H4*%
X217500000Y-80500000D03*
%TD*%
M02*
