%TF.GenerationSoftware,KiCad,Pcbnew,9.0.0*%
%TF.CreationDate,2025-12-15T13:56:06-05:00*%
%TF.ProjectId,LightDisc,4c696768-7444-4697-9363-2e6b69636164,rev?*%
%TF.SameCoordinates,Original*%
%TF.FileFunction,Copper,L2,Bot*%
%TF.FilePolarity,Positive*%
%FSLAX46Y46*%
G04 Gerber Fmt 4.6, Leading zero omitted, Abs format (unit mm)*
G04 Created by KiCad (PCBNEW 9.0.0) date 2025-12-15 13:56:06*
%MOMM*%
%LPD*%
G01*
G04 APERTURE LIST*
G04 Aperture macros list*
%AMRoundRect*
0 Rectangle with rounded corners*
0 $1 Rounding radius*
0 $2 $3 $4 $5 $6 $7 $8 $9 X,Y pos of 4 corners*
0 Add a 4 corners polygon primitive as box body*
4,1,4,$2,$3,$4,$5,$6,$7,$8,$9,$2,$3,0*
0 Add four circle primitives for the rounded corners*
1,1,$1+$1,$2,$3*
1,1,$1+$1,$4,$5*
1,1,$1+$1,$6,$7*
1,1,$1+$1,$8,$9*
0 Add four rect primitives between the rounded corners*
20,1,$1+$1,$2,$3,$4,$5,0*
20,1,$1+$1,$4,$5,$6,$7,0*
20,1,$1+$1,$6,$7,$8,$9,0*
20,1,$1+$1,$8,$9,$2,$3,0*%
%AMHorizOval*
0 Thick line with rounded ends*
0 $1 width*
0 $2 $3 position (X,Y) of the first rounded end (center of the circle)*
0 $4 $5 position (X,Y) of the second rounded end (center of the circle)*
0 Add line between two ends*
20,1,$1,$2,$3,$4,$5,0*
0 Add two circle primitives to create the rounded ends*
1,1,$1,$2,$3*
1,1,$1,$4,$5*%
G04 Aperture macros list end*
%TA.AperFunction,Conductor*%
%ADD10C,0.200000*%
%TD*%
%TA.AperFunction,ComponentPad*%
%ADD11RoundRect,0.250000X-0.600000X-0.725000X0.600000X-0.725000X0.600000X0.725000X-0.600000X0.725000X0*%
%TD*%
%TA.AperFunction,ComponentPad*%
%ADD12O,1.700000X1.950000*%
%TD*%
%TA.AperFunction,ComponentPad*%
%ADD13RoundRect,0.250000X-0.901392X-0.270402X0.097057X-0.936058X0.901392X0.270402X-0.097057X0.936058X0*%
%TD*%
%TA.AperFunction,ComponentPad*%
%ADD14HorizOval,1.700000X-0.069339X-0.104005X0.069339X0.104005X0*%
%TD*%
%TA.AperFunction,ComponentPad*%
%ADD15RoundRect,0.250000X-0.936060X0.097041X-0.270386X-0.901397X0.936060X-0.097041X0.270386X0.901397X0*%
%TD*%
%TA.AperFunction,ComponentPad*%
%ADD16HorizOval,1.700000X-0.104004X-0.069341X0.104004X0.069341X0*%
%TD*%
%TA.AperFunction,ComponentPad*%
%ADD17R,1.700000X1.700000*%
%TD*%
%TA.AperFunction,ComponentPad*%
%ADD18O,1.700000X1.700000*%
%TD*%
%TA.AperFunction,ComponentPad*%
%ADD19C,1.701800*%
%TD*%
%TA.AperFunction,ComponentPad*%
%ADD20RoundRect,0.250000X-0.950000X-0.550000X0.950000X-0.550000X0.950000X0.550000X-0.950000X0.550000X0*%
%TD*%
%TA.AperFunction,ComponentPad*%
%ADD21O,2.400000X1.600000*%
%TD*%
%TA.AperFunction,ComponentPad*%
%ADD22C,1.348000*%
%TD*%
%TA.AperFunction,ComponentPad*%
%ADD23R,1.600000X1.600000*%
%TD*%
%TA.AperFunction,ComponentPad*%
%ADD24C,1.600000*%
%TD*%
%TA.AperFunction,ViaPad*%
%ADD25C,1.200000*%
%TD*%
%TA.AperFunction,Conductor*%
%ADD26C,0.400000*%
%TD*%
%TA.AperFunction,Conductor*%
%ADD27C,1.000000*%
%TD*%
%TA.AperFunction,Conductor*%
%ADD28C,2.500000*%
%TD*%
%TA.AperFunction,Conductor*%
%ADD29C,1.600000*%
%TD*%
%TA.AperFunction,Conductor*%
%ADD30C,0.600000*%
%TD*%
G04 APERTURE END LIST*
D10*
%TO.N,GND*%
X132250000Y-86250000D02*
X122250000Y-86250000D01*
X122250000Y-73750000D01*
X132250000Y-73750000D01*
X132250000Y-86250000D01*
%TA.AperFunction,Conductor*%
G36*
X132250000Y-86250000D02*
G01*
X122250000Y-86250000D01*
X122250000Y-73750000D01*
X132250000Y-73750000D01*
X132250000Y-86250000D01*
G37*
%TD.AperFunction*%
X143750000Y-80000000D02*
X151000000Y-80000000D01*
X151000000Y-95250000D01*
X146250000Y-91250000D01*
X143750000Y-89500000D01*
X143750000Y-86000000D01*
X135000000Y-86000000D01*
X135000000Y-75000000D01*
X136250000Y-73750000D01*
X143750000Y-73750000D01*
X143750000Y-80000000D01*
%TA.AperFunction,Conductor*%
G36*
X143750000Y-80000000D02*
G01*
X151000000Y-80000000D01*
X151000000Y-95250000D01*
X146250000Y-91250000D01*
X143750000Y-89500000D01*
X143750000Y-86000000D01*
X135000000Y-86000000D01*
X135000000Y-75000000D01*
X136250000Y-73750000D01*
X143750000Y-73750000D01*
X143750000Y-80000000D01*
G37*
%TD.AperFunction*%
X147000000Y-92250000D02*
X138000000Y-92250000D01*
X137750000Y-93000000D01*
X127000000Y-92250000D01*
X124250000Y-89500000D01*
X147000000Y-89500000D01*
X147000000Y-92250000D01*
%TA.AperFunction,Conductor*%
G36*
X147000000Y-92250000D02*
G01*
X138000000Y-92250000D01*
X137750000Y-93000000D01*
X127000000Y-92250000D01*
X124250000Y-89500000D01*
X147000000Y-89500000D01*
X147000000Y-92250000D01*
G37*
%TD.AperFunction*%
X216000000Y-92000000D02*
X216000000Y-97000000D01*
X213500000Y-100000000D01*
X203500000Y-100000000D01*
X203500000Y-95500000D01*
X205500000Y-95500000D01*
X205500000Y-82000000D01*
X216000000Y-92000000D01*
%TA.AperFunction,Conductor*%
G36*
X216000000Y-92000000D02*
G01*
X216000000Y-97000000D01*
X213500000Y-100000000D01*
X203500000Y-100000000D01*
X203500000Y-95500000D01*
X205500000Y-95500000D01*
X205500000Y-82000000D01*
X216000000Y-92000000D01*
G37*
%TD.AperFunction*%
X180000000Y-54000000D02*
X177000000Y-54000000D01*
X177000000Y-48500000D01*
X180000000Y-48500000D01*
X180000000Y-54000000D01*
%TA.AperFunction,Conductor*%
G36*
X180000000Y-54000000D02*
G01*
X177000000Y-54000000D01*
X177000000Y-48500000D01*
X180000000Y-48500000D01*
X180000000Y-54000000D01*
G37*
%TD.AperFunction*%
X180000000Y-56500000D02*
X193000000Y-70500000D01*
X193000000Y-75500000D01*
X176000000Y-75500000D01*
X176000000Y-70500000D01*
X182000000Y-70500000D01*
X182000000Y-67000000D01*
X176000000Y-67000000D01*
X174000000Y-63000000D01*
X177000000Y-62000000D01*
X177000000Y-54000000D01*
X180000000Y-54000000D01*
X180000000Y-56500000D01*
%TA.AperFunction,Conductor*%
G36*
X180000000Y-56500000D02*
G01*
X193000000Y-70500000D01*
X193000000Y-75500000D01*
X176000000Y-75500000D01*
X176000000Y-70500000D01*
X182000000Y-70500000D01*
X182000000Y-67000000D01*
X176000000Y-67000000D01*
X174000000Y-63000000D01*
X177000000Y-62000000D01*
X177000000Y-54000000D01*
X180000000Y-54000000D01*
X180000000Y-56500000D01*
G37*
%TD.AperFunction*%
X214000000Y-101500000D02*
X220750000Y-101500000D01*
X220750000Y-116000000D01*
X215500000Y-116000000D01*
X215500000Y-119000000D01*
X208500000Y-119000000D01*
X209000000Y-118000000D01*
X208500000Y-117000000D01*
X205000000Y-117000000D01*
X202000000Y-114000000D01*
X202000000Y-106000000D01*
X208500000Y-100000000D01*
X209000000Y-98000000D01*
X214000000Y-93500000D01*
X214000000Y-101500000D01*
%TA.AperFunction,Conductor*%
G36*
X214000000Y-101500000D02*
G01*
X220750000Y-101500000D01*
X220750000Y-116000000D01*
X215500000Y-116000000D01*
X215500000Y-119000000D01*
X208500000Y-119000000D01*
X209000000Y-118000000D01*
X208500000Y-117000000D01*
X205000000Y-117000000D01*
X202000000Y-114000000D01*
X202000000Y-106000000D01*
X208500000Y-100000000D01*
X209000000Y-98000000D01*
X214000000Y-93500000D01*
X214000000Y-101500000D01*
G37*
%TD.AperFunction*%
X128500000Y-99500000D02*
X127000000Y-92500000D01*
X135500000Y-92500000D01*
X128500000Y-99500000D01*
%TA.AperFunction,Conductor*%
G36*
X128500000Y-99500000D02*
G01*
X127000000Y-92500000D01*
X135500000Y-92500000D01*
X128500000Y-99500000D01*
G37*
%TD.AperFunction*%
X144500000Y-105000000D02*
X140000000Y-110000000D01*
X130500000Y-99500000D01*
X135000000Y-95000000D01*
X144500000Y-105000000D01*
%TA.AperFunction,Conductor*%
G36*
X144500000Y-105000000D02*
G01*
X140000000Y-110000000D01*
X130500000Y-99500000D01*
X135000000Y-95000000D01*
X144500000Y-105000000D01*
G37*
%TD.AperFunction*%
X150000000Y-110500000D02*
X154000000Y-111500000D01*
X149500000Y-116000000D01*
X142000000Y-109500000D01*
X145500000Y-105500000D01*
X150000000Y-105500000D01*
X150000000Y-110500000D01*
%TA.AperFunction,Conductor*%
G36*
X150000000Y-110500000D02*
G01*
X154000000Y-111500000D01*
X149500000Y-116000000D01*
X142000000Y-109500000D01*
X145500000Y-105500000D01*
X150000000Y-105500000D01*
X150000000Y-110500000D01*
G37*
%TD.AperFunction*%
X197800000Y-102100000D02*
X194200000Y-102000000D01*
X194100000Y-98800000D01*
X197800000Y-102100000D01*
%TA.AperFunction,Conductor*%
G36*
X197800000Y-102100000D02*
G01*
X194200000Y-102000000D01*
X194100000Y-98800000D01*
X197800000Y-102100000D01*
G37*
%TD.AperFunction*%
X190400000Y-102200000D02*
X201600000Y-103000000D01*
X201900000Y-115300000D01*
X190400000Y-117000000D01*
X188400000Y-117200000D01*
X185600000Y-115600000D01*
X175200000Y-115300000D01*
X175500000Y-101500000D01*
X190400000Y-102200000D01*
%TA.AperFunction,Conductor*%
G36*
X190400000Y-102200000D02*
G01*
X201600000Y-103000000D01*
X201900000Y-115300000D01*
X190400000Y-117000000D01*
X188400000Y-117200000D01*
X185600000Y-115600000D01*
X175200000Y-115300000D01*
X175500000Y-101500000D01*
X190400000Y-102200000D01*
G37*
%TD.AperFunction*%
X151600000Y-97100000D02*
X151600000Y-97800000D01*
X147900000Y-99600000D01*
X147900000Y-94000000D01*
X151600000Y-97100000D01*
%TA.AperFunction,Conductor*%
G36*
X151600000Y-97100000D02*
G01*
X151600000Y-97800000D01*
X147900000Y-99600000D01*
X147900000Y-94000000D01*
X151600000Y-97100000D01*
G37*
%TD.AperFunction*%
X174400000Y-99700000D02*
X172600000Y-98100000D01*
X170600000Y-98000000D01*
X170500000Y-96300000D01*
X172400000Y-95800000D01*
X174600000Y-93800000D01*
X174400000Y-99700000D01*
%TA.AperFunction,Conductor*%
G36*
X174400000Y-99700000D02*
G01*
X172600000Y-98100000D01*
X170600000Y-98000000D01*
X170500000Y-96300000D01*
X172400000Y-95800000D01*
X174600000Y-93800000D01*
X174400000Y-99700000D01*
G37*
%TD.AperFunction*%
X192700000Y-99500000D02*
X192700000Y-100300000D01*
X191200000Y-99400000D01*
X191000000Y-96000000D01*
X192500000Y-95000000D01*
X192700000Y-99500000D01*
%TA.AperFunction,Conductor*%
G36*
X192700000Y-99500000D02*
G01*
X192700000Y-100300000D01*
X191200000Y-99400000D01*
X191000000Y-96000000D01*
X192500000Y-95000000D01*
X192700000Y-99500000D01*
G37*
%TD.AperFunction*%
X172400000Y-100000000D02*
X174300000Y-101600000D01*
X174300000Y-115700000D01*
X171700000Y-117300000D01*
X169000000Y-116900000D01*
X166700000Y-115600000D01*
X155700000Y-116000000D01*
X154110000Y-117200000D01*
X151500000Y-117200000D01*
X149600000Y-115200000D01*
X154000000Y-110200000D01*
X154000000Y-102400000D01*
X151800000Y-100100000D01*
X158000000Y-100100000D01*
X160800000Y-101800000D01*
X167200000Y-101800000D01*
X169900000Y-99800000D01*
X172400000Y-100000000D01*
%TA.AperFunction,Conductor*%
G36*
X172400000Y-100000000D02*
G01*
X174300000Y-101600000D01*
X174300000Y-115700000D01*
X171700000Y-117300000D01*
X169000000Y-116900000D01*
X166700000Y-115600000D01*
X155700000Y-116000000D01*
X154110000Y-117200000D01*
X151500000Y-117200000D01*
X149600000Y-115200000D01*
X154000000Y-110200000D01*
X154000000Y-102400000D01*
X151800000Y-100100000D01*
X158000000Y-100100000D01*
X160800000Y-101800000D01*
X167200000Y-101800000D01*
X169900000Y-99800000D01*
X172400000Y-100000000D01*
G37*
%TD.AperFunction*%
%TD*%
D11*
%TO.P,J2,1,Pin_1*%
%TO.N,Net-(J2-Pin_1)*%
X131500000Y-22500000D03*
D12*
%TO.P,J2,2,Pin_2*%
%TO.N,Net-(J2-Pin_2)*%
X134000000Y-22500000D03*
%TO.P,J2,3,Pin_3*%
%TO.N,Net-(J2-Pin_3)*%
X136500000Y-22500000D03*
%TO.P,J2,4,Pin_4*%
%TO.N,Net-(J2-Pin_4)*%
X139000000Y-22500000D03*
%TO.P,J2,5,Pin_5*%
%TO.N,Net-(J2-Pin_5)*%
X141500000Y-22500000D03*
%TO.P,J2,6,Pin_6*%
%TO.N,Net-(J2-Pin_6)*%
X144000000Y-22500000D03*
%TO.P,J2,7,Pin_7*%
%TO.N,Net-(J2-Pin_7)*%
X146500000Y-22500000D03*
%TO.P,J2,8,Pin_8*%
%TO.N,Net-(J2-Pin_8)*%
X149000000Y-22500000D03*
%TO.P,J2,9,Pin_9*%
%TO.N,3.3V*%
X151500000Y-22500000D03*
%TO.P,J2,10,Pin_10*%
%TO.N,Temp1*%
X154000000Y-22500000D03*
%TD*%
D13*
%TO.P,J12,1,Pin_1*%
%TO.N,Net-(J12-Pin_1)*%
X169319381Y-28179294D03*
D14*
%TO.P,J12,2,Pin_2*%
%TO.N,Net-(J12-Pin_2)*%
X171399484Y-29566078D03*
%TO.P,J12,3,Pin_3*%
%TO.N,Net-(J12-Pin_3)*%
X173479587Y-30952863D03*
%TO.P,J12,4,Pin_4*%
%TO.N,Net-(J12-Pin_4)*%
X175559690Y-32339647D03*
%TO.P,J12,5,Pin_5*%
%TO.N,Net-(J12-Pin_5)*%
X177639794Y-33726431D03*
%TO.P,J12,6,Pin_6*%
%TO.N,Net-(J12-Pin_6)*%
X179719897Y-35113216D03*
%TO.P,J12,7,Pin_7*%
%TO.N,Net-(J12-Pin_7)*%
X181800000Y-36500000D03*
%TO.P,J12,8,Pin_8*%
%TO.N,Net-(J12-Pin_8)*%
X183880103Y-37886784D03*
%TO.P,J12,9,Pin_9*%
%TO.N,3.3V*%
X185960206Y-39273569D03*
%TO.P,J12,10,Pin_10*%
%TO.N,Temp2*%
X188040309Y-40660353D03*
%TD*%
D15*
%TO.P,J19,1,Pin_1*%
%TO.N,Net-(J19-Pin_1)*%
X201679294Y-55019381D03*
D16*
%TO.P,J19,2,Pin_2*%
%TO.N,Net-(J19-Pin_2)*%
X203066114Y-57099461D03*
%TO.P,J19,3,Pin_3*%
%TO.N,Net-(J19-Pin_3)*%
X204452936Y-59179538D03*
%TO.P,J19,4,Pin_4*%
%TO.N,Net-(J19-Pin_4)*%
X205839756Y-61259617D03*
%TO.P,J19,5,Pin_5*%
%TO.N,Net-(J19-Pin_5)*%
X207226576Y-63339697D03*
%TO.P,J19,6,Pin_6*%
%TO.N,Net-(J19-Pin_6)*%
X208613399Y-65419776D03*
%TO.P,J19,7,Pin_7*%
%TO.N,Net-(J19-Pin_7)*%
X210000218Y-67499855D03*
%TO.P,J19,8,Pin_8*%
%TO.N,Net-(J19-Pin_8)*%
X211387038Y-69579934D03*
%TO.P,J19,9,Pin_9*%
%TO.N,3.3V*%
X212773859Y-71660012D03*
%TO.P,J19,10,Pin_10*%
%TO.N,Temp3*%
X214160681Y-73740091D03*
%TD*%
D17*
%TO.P,J20,1,Pin_1*%
%TO.N,Net-(J20-Pin_1)*%
X165875844Y-83262500D03*
D18*
%TO.P,J20,2,Pin_2*%
%TO.N,Net-(J20-Pin_2)*%
X165875844Y-85802500D03*
%TO.P,J20,3,Pin_3*%
%TO.N,Net-(J20-Pin_3)*%
X165875844Y-88342500D03*
%TO.P,J20,4,Pin_4*%
%TO.N,Net-(J20-Pin_4)*%
X165875844Y-90882500D03*
%TO.P,J20,5,Pin_5*%
%TO.N,5V*%
X165875844Y-93422500D03*
%TD*%
D17*
%TO.P,J11,1,Pin_1*%
%TO.N,Net-(J11-Pin_1)*%
X184390000Y-83350000D03*
D18*
%TO.P,J11,2,Pin_2*%
%TO.N,Net-(J11-Pin_2)*%
X184390000Y-85890000D03*
%TO.P,J11,3,Pin_3*%
%TO.N,Net-(J11-Pin_3)*%
X184390000Y-88430000D03*
%TO.P,J11,4,Pin_4*%
%TO.N,Net-(J11-Pin_4)*%
X184390000Y-90970000D03*
%TO.P,J11,5,Pin_5*%
%TO.N,5V*%
X184390000Y-93510000D03*
%TD*%
D17*
%TO.P,J14,1,Pin_1*%
%TO.N,Net-(J14-Pin_1)*%
X203120000Y-83240000D03*
D18*
%TO.P,J14,2,Pin_2*%
%TO.N,Net-(J14-Pin_2)*%
X203120000Y-85780000D03*
%TO.P,J14,3,Pin_3*%
%TO.N,Net-(J14-Pin_3)*%
X203120000Y-88320000D03*
%TO.P,J14,4,Pin_4*%
%TO.N,Net-(J14-Pin_4)*%
X203120000Y-90860000D03*
%TO.P,J14,5,Pin_5*%
%TO.N,5V*%
X203120000Y-93400000D03*
%TD*%
D19*
%TO.P,J13,1,1*%
%TO.N,24V*%
X125644247Y-96679110D03*
%TO.P,J13,2,2*%
%TO.N,GND*%
X128858185Y-100509332D03*
%TO.P,J13,3,3*%
%TO.N,Net-(U1-GPIO20)*%
X132072123Y-104339554D03*
%TO.P,J13,4,4*%
%TO.N,Net-(U1-GPIO21)*%
X135286061Y-108169777D03*
%TO.P,J13,5,5*%
%TO.N,GND*%
X138500000Y-112000000D03*
%TO.P,J13,6,6*%
%TO.N,24V*%
X141713938Y-115830222D03*
%TD*%
D17*
%TO.P,J16,1,Pin_1*%
%TO.N,GND*%
X190055000Y-118025000D03*
D18*
%TO.P,J16,2,Pin_2*%
X187515000Y-118025000D03*
%TD*%
D17*
%TO.P,J9,1,Pin_1*%
%TO.N,4V1*%
X181010000Y-98975000D03*
D18*
%TO.P,J9,2,Pin_2*%
X183550000Y-98975000D03*
%TD*%
D17*
%TO.P,J10,1,Pin_1*%
%TO.N,GND*%
X169760000Y-99000000D03*
D18*
%TO.P,J10,2,Pin_2*%
X172300000Y-99000000D03*
%TD*%
D20*
%TO.P,Q1,1*%
%TO.N,S1*%
X170890000Y-77310000D03*
D21*
%TO.P,Q1,2*%
%TO.N,S2*%
X170890000Y-79850000D03*
%TO.P,Q1,3*%
%TO.N,S3*%
X170890000Y-82390000D03*
%TO.P,Q1,4*%
%TO.N,S4*%
X170890000Y-84930000D03*
%TO.P,Q1,5*%
%TO.N,unconnected-(Q1-Pad5)*%
X170890000Y-87470000D03*
%TO.P,Q1,6*%
%TO.N,unconnected-(Q1-Pad6)*%
X170890000Y-90010000D03*
%TO.P,Q1,7*%
%TO.N,unconnected-(Q1-Pad7)*%
X170890000Y-92550000D03*
%TO.P,Q1,8,E*%
%TO.N,GND*%
X170890000Y-95090000D03*
%TO.P,Q1,9*%
%TO.N,5V*%
X178510000Y-95090000D03*
%TO.P,Q1,10*%
%TO.N,unconnected-(Q1-Pad10)*%
X178510000Y-92550000D03*
%TO.P,Q1,11*%
%TO.N,unconnected-(Q1-Pad11)*%
X178510000Y-90010000D03*
%TO.P,Q1,12*%
%TO.N,unconnected-(Q1-Pad12)*%
X178510000Y-87470000D03*
%TO.P,Q1,13*%
%TO.N,Net-(J11-Pin_4)*%
X178510000Y-84930000D03*
%TO.P,Q1,14*%
%TO.N,Net-(J11-Pin_3)*%
X178510000Y-82390000D03*
%TO.P,Q1,15*%
%TO.N,Net-(J11-Pin_2)*%
X178510000Y-79850000D03*
%TO.P,Q1,16*%
%TO.N,Net-(J11-Pin_1)*%
X178510000Y-77310000D03*
%TD*%
D17*
%TO.P,J18,1,Pin_1*%
%TO.N,GND*%
X187765000Y-99025000D03*
D18*
%TO.P,J18,2,Pin_2*%
X190305000Y-99025000D03*
%TD*%
D17*
%TO.P,J24,1,Pin_1*%
%TO.N,GND*%
X205390000Y-99000000D03*
D18*
%TO.P,J24,2,Pin_2*%
X207930000Y-99000000D03*
%TD*%
D22*
%TO.P,U1,0,GPIO0*%
%TO.N,Temp1*%
X142380000Y-72380000D03*
%TO.P,U1,1,GPIO1*%
%TO.N,Temp2*%
X139840000Y-72380000D03*
%TO.P,U1,2,GPIO2*%
%TO.N,Temp3*%
X137300000Y-72380000D03*
%TO.P,U1,3,GPIO3*%
%TO.N,unconnected-(U1-GPIO3-Pad3)*%
X134760000Y-72380000D03*
%TO.P,U1,3.3,3V3*%
%TO.N,3.3V*%
X129680000Y-72380000D03*
%TO.P,U1,4,GPIO4*%
%TO.N,unconnected-(U1-GPIO4-Pad4)*%
X132220000Y-72380000D03*
%TO.P,U1,5,GPIO5*%
%TO.N,unconnected-(U1-GPIO5-Pad5)*%
X124600000Y-87620000D03*
%TO.P,U1,5V,5V*%
%TO.N,Net-(D14-K)*%
X124600000Y-72380000D03*
%TO.P,U1,6,GPIO6*%
%TO.N,unconnected-(U1-GPIO6-Pad6)*%
X127140000Y-87620000D03*
%TO.P,U1,7,GPIO7*%
%TO.N,unconnected-(U1-GPIO7-Pad7)*%
X129680000Y-87620000D03*
%TO.P,U1,8,GPIO8*%
%TO.N,SDA*%
X132220000Y-87620000D03*
%TO.P,U1,9,GPIO9*%
%TO.N,SCL*%
X134760000Y-87620000D03*
%TO.P,U1,10,GPIO10*%
%TO.N,unconnected-(U1-GPIO10-Pad10)*%
X137300000Y-87620000D03*
%TO.P,U1,20,GPIO20*%
%TO.N,Net-(U1-GPIO20)*%
X139840000Y-87620000D03*
%TO.P,U1,21,GPIO21*%
%TO.N,Net-(U1-GPIO21)*%
X142380000Y-87620000D03*
%TO.P,U1,G,GND*%
%TO.N,GND*%
X127140000Y-72380000D03*
%TD*%
D17*
%TO.P,J5,1,Pin_1*%
%TO.N,5V*%
X163030000Y-99050000D03*
D18*
%TO.P,J5,2,Pin_2*%
X165570000Y-99050000D03*
%TD*%
D17*
%TO.P,J15,1,Pin_1*%
%TO.N,24V*%
X198975000Y-118025000D03*
D18*
%TO.P,J15,2,Pin_2*%
X201515000Y-118025000D03*
%TD*%
D23*
%TO.P,C2,1*%
%TO.N,GND*%
X145500000Y-104000000D03*
D24*
%TO.P,C2,2*%
%TO.N,5V*%
X148000000Y-104000000D03*
%TD*%
D23*
%TO.P,C1,1*%
%TO.N,GND*%
X137000000Y-93500000D03*
D24*
%TO.P,C1,2*%
%TO.N,5V*%
X139500000Y-93500000D03*
%TD*%
D20*
%TO.P,Q3,1*%
%TO.N,S9*%
X152755844Y-77380000D03*
D21*
%TO.P,Q3,2*%
%TO.N,S10*%
X152755844Y-79920000D03*
%TO.P,Q3,3*%
%TO.N,S11*%
X152755844Y-82460000D03*
%TO.P,Q3,4*%
%TO.N,S12*%
X152755844Y-85000000D03*
%TO.P,Q3,5*%
%TO.N,unconnected-(Q3-Pad5)*%
X152755844Y-87540000D03*
%TO.P,Q3,6*%
%TO.N,unconnected-(Q3-Pad6)*%
X152755844Y-90080000D03*
%TO.P,Q3,7*%
%TO.N,unconnected-(Q3-Pad7)*%
X152755844Y-92620000D03*
%TO.P,Q3,8,E*%
%TO.N,GND*%
X152755844Y-95160000D03*
%TO.P,Q3,9*%
%TO.N,5V*%
X160375844Y-95160000D03*
%TO.P,Q3,10*%
%TO.N,unconnected-(Q3-Pad10)*%
X160375844Y-92620000D03*
%TO.P,Q3,11*%
%TO.N,unconnected-(Q3-Pad11)*%
X160375844Y-90080000D03*
%TO.P,Q3,12*%
%TO.N,unconnected-(Q3-Pad12)*%
X160375844Y-87540000D03*
%TO.P,Q3,13*%
%TO.N,Net-(J20-Pin_4)*%
X160375844Y-85000000D03*
%TO.P,Q3,14*%
%TO.N,Net-(J20-Pin_3)*%
X160375844Y-82460000D03*
%TO.P,Q3,15*%
%TO.N,Net-(J20-Pin_2)*%
X160375844Y-79920000D03*
%TO.P,Q3,16*%
%TO.N,Net-(J20-Pin_1)*%
X160375844Y-77380000D03*
%TD*%
D17*
%TO.P,J6,1,Pin_1*%
%TO.N,GND*%
X151530000Y-99050000D03*
D18*
%TO.P,J6,2,Pin_2*%
X154070000Y-99050000D03*
%TD*%
D17*
%TO.P,J8,1,Pin_1*%
%TO.N,GND*%
X172260000Y-118000000D03*
D18*
%TO.P,J8,2,Pin_2*%
X169720000Y-118000000D03*
%TD*%
D17*
%TO.P,J3,1,Pin_1*%
%TO.N,24V*%
X162820000Y-118050000D03*
D18*
%TO.P,J3,2,Pin_2*%
X165360000Y-118050000D03*
%TD*%
D17*
%TO.P,J22,1,Pin_1*%
%TO.N,GND*%
X208140000Y-118000000D03*
D18*
%TO.P,J22,2,Pin_2*%
X205600000Y-118000000D03*
%TD*%
D17*
%TO.P,J23,1,Pin_1*%
%TO.N,4V3*%
X216890000Y-99000000D03*
D18*
%TO.P,J23,2,Pin_2*%
X219430000Y-99000000D03*
%TD*%
D17*
%TO.P,J17,1,Pin_1*%
%TO.N,4V2*%
X198975000Y-99025000D03*
D18*
%TO.P,J17,2,Pin_2*%
X201515000Y-99025000D03*
%TD*%
D17*
%TO.P,J4,1,Pin_1*%
%TO.N,GND*%
X154110000Y-118025000D03*
D18*
%TO.P,J4,2,Pin_2*%
X151570000Y-118025000D03*
%TD*%
D17*
%TO.P,J7,1,Pin_1*%
%TO.N,24V*%
X181220000Y-118000000D03*
D18*
%TO.P,J7,2,Pin_2*%
X183760000Y-118000000D03*
%TD*%
D17*
%TO.P,J21,1,Pin_1*%
%TO.N,24V*%
X216890000Y-118000000D03*
D18*
%TO.P,J21,2,Pin_2*%
X219430000Y-118000000D03*
%TD*%
D20*
%TO.P,Q2,1*%
%TO.N,S5*%
X189500000Y-77400000D03*
D21*
%TO.P,Q2,2*%
%TO.N,S6*%
X189500000Y-79940000D03*
%TO.P,Q2,3*%
%TO.N,S7*%
X189500000Y-82480000D03*
%TO.P,Q2,4*%
%TO.N,S8*%
X189500000Y-85020000D03*
%TO.P,Q2,5*%
%TO.N,unconnected-(Q2-Pad5)*%
X189500000Y-87560000D03*
%TO.P,Q2,6*%
%TO.N,unconnected-(Q2-Pad6)*%
X189500000Y-90100000D03*
%TO.P,Q2,7*%
%TO.N,unconnected-(Q2-Pad7)*%
X189500000Y-92640000D03*
%TO.P,Q2,8,E*%
%TO.N,GND*%
X189500000Y-95180000D03*
%TO.P,Q2,9*%
%TO.N,5V*%
X197120000Y-95180000D03*
%TO.P,Q2,10*%
%TO.N,unconnected-(Q2-Pad10)*%
X197120000Y-92640000D03*
%TO.P,Q2,11*%
%TO.N,unconnected-(Q2-Pad11)*%
X197120000Y-90100000D03*
%TO.P,Q2,12*%
%TO.N,unconnected-(Q2-Pad12)*%
X197120000Y-87560000D03*
%TO.P,Q2,13*%
%TO.N,Net-(J14-Pin_4)*%
X197120000Y-85020000D03*
%TO.P,Q2,14*%
%TO.N,Net-(J14-Pin_3)*%
X197120000Y-82480000D03*
%TO.P,Q2,15*%
%TO.N,Net-(J14-Pin_2)*%
X197120000Y-79940000D03*
%TO.P,Q2,16*%
%TO.N,Net-(J14-Pin_1)*%
X197120000Y-77400000D03*
%TD*%
D25*
%TO.N,GND*%
X178396425Y-50071412D03*
%TO.N,4V3*%
X185896600Y-47813025D03*
X202700000Y-68200000D03*
%TO.N,GND*%
X132112500Y-46900000D03*
X129176300Y-35576300D03*
X190800000Y-67700000D03*
X149500000Y-59300000D03*
X168405124Y-51705124D03*
X135200000Y-76600000D03*
X138162500Y-33862500D03*
X141550000Y-60650000D03*
X167050000Y-40150000D03*
X155626600Y-50226600D03*
X187864898Y-65037723D03*
X161400000Y-66400000D03*
X142010350Y-48010350D03*
X215418299Y-93418299D03*
X157300000Y-38500000D03*
%TO.N,4V2*%
X175100000Y-60600000D03*
X154900000Y-28100000D03*
X152400000Y-51900000D03*
X158847100Y-51700000D03*
X166300000Y-45900000D03*
X152700000Y-39200000D03*
X162200000Y-40700000D03*
X174401000Y-58600000D03*
X153700000Y-44300000D03*
X165400000Y-33000000D03*
%TO.N,4V3*%
X176658212Y-46300000D03*
X213300000Y-86300000D03*
X184650000Y-57650000D03*
X191800000Y-64800000D03*
%TO.N,Temp1*%
X146900000Y-71400000D03*
%TO.N,Temp2*%
X164900000Y-58500000D03*
X146900000Y-72900000D03*
X186650000Y-53150000D03*
%TO.N,Temp3*%
X205500000Y-73400000D03*
X146900000Y-74400000D03*
X166300003Y-58500000D03*
%TO.N,S9*%
X172800000Y-66000000D03*
%TO.N,S12*%
X168900000Y-67900000D03*
%TO.N,S11*%
X170395167Y-67900000D03*
%TO.N,S10*%
X171600000Y-67000000D03*
%TO.N,SDA*%
X140700000Y-56900000D03*
X133750000Y-63150000D03*
X147200000Y-56899000D03*
%TO.N,SCL*%
X148600000Y-55799000D03*
X141900000Y-57900000D03*
X139800000Y-62500000D03*
%TO.N,3.3V*%
X162800000Y-67500000D03*
X146900000Y-78900000D03*
X151200000Y-75100000D03*
X133800000Y-61200000D03*
%TO.N,LED1B*%
X132000000Y-59200000D03*
X132300000Y-52800000D03*
X130422846Y-67992109D03*
X132400000Y-49600000D03*
%TO.N,LED1G*%
X129825799Y-66725799D03*
X141499000Y-30500000D03*
X130400000Y-59199000D03*
X130500000Y-52800000D03*
%TO.N,LED2G*%
X151900003Y-55800000D03*
X146800000Y-64300000D03*
X161600000Y-31600000D03*
X170800000Y-37100000D03*
%TO.N,LED3G*%
X146800000Y-69900000D03*
X184700000Y-53100000D03*
X192300000Y-61400000D03*
X162000000Y-58500000D03*
%TO.N,LED2W*%
X146800000Y-67100000D03*
X154700000Y-56700000D03*
X169650000Y-52600000D03*
X156797784Y-53900057D03*
%TO.N,LED2R*%
X146800000Y-62900000D03*
X150500000Y-55800000D03*
%TO.N,LED1W*%
X136000000Y-52800000D03*
X136264921Y-68035079D03*
X142743292Y-52781395D03*
X136800000Y-58800000D03*
%TO.N,LED3B*%
X167700006Y-58500000D03*
X178000000Y-69100000D03*
X146903338Y-76000789D03*
X180700000Y-68500000D03*
%TO.N,LED2B*%
X153300006Y-55800000D03*
X146800000Y-65700000D03*
%TO.N,LED3W*%
X205300000Y-75200000D03*
X211000000Y-79400000D03*
X146856261Y-77400000D03*
X169100009Y-58500000D03*
%TO.N,LED3R*%
X146800000Y-68500000D03*
X160600000Y-58500000D03*
%TO.N,LED1R*%
X125000000Y-40436931D03*
X129000000Y-52800000D03*
X127400000Y-37800000D03*
X128200000Y-49600000D03*
X128700000Y-68000000D03*
X129000000Y-59200000D03*
%TO.N,4V1*%
X141200000Y-40500000D03*
X137100000Y-51200000D03*
X132150000Y-39550000D03*
X128500000Y-28200000D03*
X124400000Y-38200000D03*
X137500000Y-25500000D03*
X151200000Y-103000000D03*
X152100000Y-109100000D03*
%TD*%
D26*
%TO.N,Temp2*%
X188040309Y-51759691D02*
X188040309Y-40660353D01*
X186650000Y-53150000D02*
X188040309Y-51759691D01*
D27*
%TO.N,4V3*%
X184383575Y-46300000D02*
X176658212Y-46300000D01*
X185896600Y-47813025D02*
X184383575Y-46300000D01*
%TO.N,GND*%
X178500000Y-50174987D02*
X178396425Y-50071412D01*
X178500000Y-52625000D02*
X178500000Y-50174987D01*
%TO.N,4V3*%
X185896600Y-47813025D02*
X185896600Y-49603400D01*
D28*
X198350000Y-71350000D02*
X195250000Y-68250000D01*
%TO.N,GND*%
X144500000Y-84000000D02*
X144500000Y-78200000D01*
X147750000Y-87250000D02*
X144500000Y-84000000D01*
X147750000Y-92730000D02*
X147750000Y-87250000D01*
X154070000Y-99050000D02*
X147750000Y-92730000D01*
X144505000Y-78205000D02*
X144500000Y-78200000D01*
D29*
%TO.N,5V*%
X165570000Y-99050000D02*
X163030000Y-99050000D01*
X165570000Y-99050000D02*
X165570000Y-93728344D01*
X160375844Y-95160000D02*
X160375844Y-96395844D01*
X160375844Y-96395844D02*
X163030000Y-99050000D01*
X165570000Y-93728344D02*
X165875844Y-93422500D01*
D28*
%TO.N,GND*%
X207930000Y-99000000D02*
X205390000Y-99000000D01*
D29*
X172300000Y-99000000D02*
X173120000Y-99000000D01*
D27*
X122900000Y-88400000D02*
X126900000Y-92400000D01*
D28*
X144500000Y-71494796D02*
X144505000Y-71499796D01*
X172260000Y-118000000D02*
X174561000Y-115699000D01*
X190800000Y-67700000D02*
X193400000Y-70300000D01*
X167409000Y-101351000D02*
X167409000Y-115689000D01*
D29*
X137000000Y-93500000D02*
X135867517Y-93500000D01*
D28*
X201790000Y-102600000D02*
X201790000Y-105600000D01*
X167409000Y-101351000D02*
X160351552Y-101351000D01*
D30*
X165900000Y-64700000D02*
X173700000Y-64700000D01*
D29*
X130890100Y-33862500D02*
X129176300Y-35576300D01*
D28*
X192356000Y-115724000D02*
X192356000Y-104124000D01*
D27*
X168405124Y-51705124D02*
X169510248Y-50600000D01*
D28*
X171933395Y-95090000D02*
X175400000Y-91623395D01*
X128858185Y-100509332D02*
X135867517Y-93500000D01*
D27*
X213511701Y-93418299D02*
X207930000Y-99000000D01*
D28*
X170890000Y-95090000D02*
X171933395Y-95090000D01*
X154070000Y-99050000D02*
X151530000Y-99050000D01*
X171700000Y-45000000D02*
X165200000Y-38500000D01*
D29*
X129176300Y-35576300D02*
X129176300Y-42123700D01*
D28*
X145500000Y-104000000D02*
X145500000Y-105000000D01*
D27*
X126900000Y-92400000D02*
X135900000Y-92400000D01*
D28*
X193880000Y-102600000D02*
X193400000Y-102120000D01*
D30*
X161400000Y-66400000D02*
X161500000Y-66300000D01*
D28*
X141550000Y-60650000D02*
X137200000Y-56300000D01*
X205390000Y-99000000D02*
X201790000Y-102600000D01*
X187515000Y-118025000D02*
X190055000Y-118025000D01*
D30*
X161500000Y-66300000D02*
X164300000Y-66300000D01*
D28*
X176300000Y-101276000D02*
X174576000Y-101276000D01*
X202200000Y-105600000D02*
X207930000Y-99870000D01*
D29*
X124400000Y-46900000D02*
X132112500Y-46900000D01*
D28*
X191110000Y-95180000D02*
X189500000Y-95180000D01*
X125400000Y-56300000D02*
X124400000Y-55300000D01*
X154110000Y-118025000D02*
X156435000Y-115700000D01*
X192356000Y-115724000D02*
X203324000Y-115724000D01*
X169760000Y-99000000D02*
X167409000Y-101351000D01*
D27*
X151099000Y-51361108D02*
X151099000Y-52438892D01*
D28*
X185514000Y-115374000D02*
X185189000Y-115699000D01*
X171700000Y-61900000D02*
X171700000Y-55400000D01*
X144045000Y-110500000D02*
X140000000Y-110500000D01*
X169720000Y-118000000D02*
X172260000Y-118000000D01*
X193400000Y-102120000D02*
X193400000Y-92890000D01*
X144505000Y-71499796D02*
X144505000Y-73260204D01*
D27*
X135900000Y-92400000D02*
X137000000Y-93500000D01*
D28*
X185514000Y-101276000D02*
X176300000Y-101276000D01*
X169760000Y-99000000D02*
X169760000Y-96220000D01*
X201790000Y-105600000D02*
X201790000Y-114190000D01*
D29*
X154070000Y-99050000D02*
X155005000Y-99050000D01*
D28*
X193400000Y-92890000D02*
X191110000Y-95180000D01*
D29*
X138162500Y-33862500D02*
X138425000Y-33600000D01*
X142010350Y-48010350D02*
X133222850Y-48010350D01*
X138162500Y-33862500D02*
X130890100Y-33862500D01*
D28*
X187765000Y-99025000D02*
X190305000Y-99025000D01*
X144500000Y-63600000D02*
X144500000Y-71494796D01*
X138500000Y-112000000D02*
X138500000Y-107512052D01*
X169760000Y-96220000D02*
X170890000Y-95090000D01*
D29*
X133222850Y-48010350D02*
X132112500Y-46900000D01*
X129176300Y-42123700D02*
X124400000Y-46900000D01*
D28*
X175400000Y-65600000D02*
X171700000Y-61900000D01*
D27*
X155626600Y-50226600D02*
X152233508Y-50226600D01*
D28*
X144045000Y-110500000D02*
X151570000Y-118025000D01*
X174576000Y-101276000D02*
X172300000Y-99000000D01*
D27*
X151861108Y-53201000D02*
X154258835Y-53201000D01*
D28*
X165200000Y-38500000D02*
X157300000Y-38500000D01*
X156435000Y-115700000D02*
X167420000Y-115700000D01*
D27*
X169510248Y-50600000D02*
X171700000Y-50600000D01*
D28*
X145500000Y-103316605D02*
X149766605Y-99050000D01*
D27*
X122900000Y-76620000D02*
X122900000Y-88400000D01*
D28*
X152755844Y-95160000D02*
X152755844Y-97735844D01*
X158050552Y-99050000D02*
X154070000Y-99050000D01*
X138500000Y-107512052D02*
X131497280Y-100509332D01*
X190305000Y-95985000D02*
X189500000Y-95180000D01*
X137200000Y-56300000D02*
X125400000Y-56300000D01*
X175400000Y-91623395D02*
X175400000Y-65600000D01*
X145500000Y-104000000D02*
X145500000Y-103316605D01*
X167409000Y-115689000D02*
X167420000Y-115700000D01*
X151570000Y-118025000D02*
X154110000Y-118025000D01*
X160351552Y-101351000D02*
X158050552Y-99050000D01*
D27*
X142900000Y-59300000D02*
X141550000Y-60650000D01*
X156457835Y-55400000D02*
X171700000Y-55400000D01*
D28*
X205600000Y-118000000D02*
X208140000Y-118000000D01*
X193880000Y-102600000D02*
X190305000Y-99025000D01*
X175400000Y-91623395D02*
X175400000Y-100376000D01*
X190800000Y-67700000D02*
X178438213Y-55338213D01*
D27*
X152233508Y-50226600D02*
X151099000Y-51361108D01*
D28*
X203324000Y-115724000D02*
X205600000Y-118000000D01*
X124400000Y-55300000D02*
X124400000Y-46900000D01*
X185189000Y-115699000D02*
X187515000Y-118025000D01*
X167420000Y-115700000D02*
X169720000Y-118000000D01*
X201790000Y-102600000D02*
X193880000Y-102600000D01*
X193400000Y-70300000D02*
X193400000Y-92890000D01*
X189508000Y-101276000D02*
X192356000Y-104124000D01*
X185514000Y-101276000D02*
X189508000Y-101276000D01*
X174561000Y-115699000D02*
X185189000Y-115699000D01*
X141550000Y-60650000D02*
X144500000Y-63600000D01*
X192356000Y-104124000D02*
X193880000Y-102600000D01*
D27*
X154258835Y-53201000D02*
X156457835Y-55400000D01*
D28*
X149766605Y-99050000D02*
X151530000Y-99050000D01*
X169760000Y-99000000D02*
X172300000Y-99000000D01*
D27*
X135200000Y-76600000D02*
X136800000Y-78200000D01*
D28*
X174576000Y-101276000D02*
X174576000Y-115684000D01*
X171700000Y-50600000D02*
X171700000Y-45000000D01*
D27*
X215418299Y-93418299D02*
X213511701Y-93418299D01*
X127140000Y-72380000D02*
X122900000Y-76620000D01*
D28*
X131497280Y-100509332D02*
X128858185Y-100509332D01*
X201790000Y-114190000D02*
X203324000Y-115724000D01*
X140000000Y-110500000D02*
X138500000Y-112000000D01*
X190305000Y-99025000D02*
X190305000Y-95985000D01*
X175400000Y-100376000D02*
X176300000Y-101276000D01*
D27*
X149500000Y-59300000D02*
X142900000Y-59300000D01*
D28*
X174576000Y-115684000D02*
X174561000Y-115699000D01*
X187765000Y-99025000D02*
X185514000Y-101276000D01*
X185514000Y-101276000D02*
X185514000Y-115374000D01*
D27*
X136800000Y-78200000D02*
X144500000Y-78200000D01*
D30*
X164300000Y-66300000D02*
X165900000Y-64700000D01*
D28*
X145500000Y-105000000D02*
X138500000Y-112000000D01*
X190055000Y-118025000D02*
X192356000Y-115724000D01*
X152755844Y-97735844D02*
X154070000Y-99050000D01*
D27*
X151099000Y-52438892D02*
X151861108Y-53201000D01*
D28*
X144505000Y-73260204D02*
X144500000Y-73265204D01*
X144500000Y-73265204D02*
X144500000Y-78200000D01*
X171700000Y-55400000D02*
X171700000Y-50600000D01*
X207930000Y-99870000D02*
X207930000Y-99000000D01*
X201790000Y-105600000D02*
X202200000Y-105600000D01*
D27*
%TO.N,4V2*%
X160500000Y-45900000D02*
X158847100Y-44247100D01*
X153400000Y-44000000D02*
X153400000Y-42300000D01*
D28*
X158847100Y-44247100D02*
X155150000Y-40550000D01*
X174401000Y-56518791D02*
X174401000Y-54281209D01*
X173600000Y-43080210D02*
X172818790Y-42299000D01*
X166318790Y-35799000D02*
X156001000Y-35799000D01*
D27*
X166318790Y-33918790D02*
X166318790Y-35799000D01*
X165400000Y-33000000D02*
X166318790Y-33918790D01*
D28*
X154400000Y-39800000D02*
X155150000Y-40550000D01*
X174401000Y-43881210D02*
X173600000Y-43080210D01*
X156001000Y-35799000D02*
X154400000Y-37400000D01*
D27*
X162200000Y-40894200D02*
X158847100Y-44247100D01*
X154400000Y-28600000D02*
X154900000Y-28100000D01*
X166300000Y-45900000D02*
X160500000Y-45900000D01*
X153400000Y-42300000D02*
X155150000Y-40550000D01*
D28*
X167901000Y-37381210D02*
X167901000Y-37381209D01*
X172818790Y-42299000D02*
X172818791Y-42299000D01*
X166318791Y-35799000D02*
X166318790Y-35799000D01*
X174401000Y-59901000D02*
X174401000Y-56518791D01*
D27*
X152700000Y-39200000D02*
X153800000Y-39200000D01*
D28*
X174401000Y-46118790D02*
X174401000Y-43881209D01*
X154400000Y-37400000D02*
X154400000Y-39800000D01*
D27*
X154400000Y-39800000D02*
X154400000Y-28600000D01*
X152400000Y-51900000D02*
X158647100Y-51900000D01*
D28*
X158847100Y-51700000D02*
X158847100Y-44247100D01*
X174401000Y-49481209D02*
X174401000Y-46118790D01*
X167901000Y-37381209D02*
X166318791Y-35799000D01*
X174401000Y-51718791D02*
X174401000Y-49481209D01*
X172818791Y-42299000D02*
X167901000Y-37381210D01*
D27*
X162200000Y-40700000D02*
X162200000Y-40894200D01*
D28*
X175100000Y-60600000D02*
X174401000Y-59901000D01*
X174401000Y-54281209D02*
X174401000Y-51718791D01*
D27*
X153700000Y-44300000D02*
X153400000Y-44000000D01*
X158647100Y-51900000D02*
X158847100Y-51700000D01*
D28*
X174401000Y-43881209D02*
X174401000Y-43881210D01*
%TO.N,4V3*%
X195250000Y-68250000D02*
X191800000Y-64800000D01*
X218000000Y-91000000D02*
X198350000Y-71350000D01*
D27*
X185896600Y-49603400D02*
X181900000Y-53600000D01*
D28*
X218000000Y-97890000D02*
X218000000Y-91000000D01*
X181900000Y-54900000D02*
X181900000Y-53600000D01*
X191800000Y-64800000D02*
X181900000Y-54900000D01*
X216890000Y-99000000D02*
X218000000Y-97890000D01*
D26*
%TO.N,Temp1*%
X161900000Y-56900000D02*
X163100000Y-58100000D01*
X161200000Y-60800000D02*
X160565570Y-60800000D01*
X159747884Y-60802000D02*
X157498000Y-60802000D01*
X147100000Y-54700000D02*
X154200000Y-54700000D01*
X159748884Y-60801000D02*
X159747884Y-60802000D01*
X157498000Y-60802000D02*
X146900000Y-71400000D01*
X146300000Y-30200000D02*
X146300000Y-53900000D01*
X160565570Y-60800000D02*
X160564570Y-60801000D01*
X163100000Y-58900000D02*
X161200000Y-60800000D01*
X160564570Y-60801000D02*
X159748884Y-60801000D01*
X146300000Y-53900000D02*
X147100000Y-54700000D01*
X154000000Y-22500000D02*
X146300000Y-30200000D01*
X154200000Y-54700000D02*
X156400000Y-56900000D01*
X156400000Y-56900000D02*
X161900000Y-56900000D01*
X163100000Y-58100000D02*
X163100000Y-58900000D01*
%TO.N,Temp2*%
X159997826Y-61402000D02*
X159996826Y-61403000D01*
X158503174Y-61403000D02*
X158397000Y-61403000D01*
X161448942Y-61401000D02*
X160951058Y-61401000D01*
X164501000Y-58914628D02*
X163914628Y-59501000D01*
X159498942Y-61403000D02*
X159001058Y-61403000D01*
X159996826Y-61403000D02*
X159498942Y-61403000D01*
X162015628Y-61400000D02*
X161449942Y-61400000D01*
X159001058Y-61403000D02*
X158503174Y-61403000D01*
X164900000Y-58500000D02*
X164900000Y-58515628D01*
X161449942Y-61400000D02*
X161448942Y-61401000D01*
X158397000Y-61403000D02*
X146900000Y-72900000D01*
X160814512Y-61401000D02*
X160813512Y-61402000D01*
X160951058Y-61401000D02*
X160814512Y-61401000D01*
X160315628Y-61402000D02*
X159997826Y-61402000D01*
X160813512Y-61402000D02*
X160315628Y-61402000D01*
X164900000Y-58515628D02*
X164501000Y-58914628D01*
X163914628Y-59501000D02*
X162015628Y-61400000D01*
%TO.N,Temp3*%
X159296000Y-62004000D02*
X159747884Y-62004000D01*
X161062454Y-62003000D02*
X161063454Y-62002000D01*
X162264570Y-62001000D02*
X162265570Y-62000000D01*
X161697884Y-62002000D02*
X161698884Y-62001000D01*
X162815628Y-62000000D02*
X165314628Y-59501000D01*
X161698884Y-62001000D02*
X161766686Y-62001000D01*
X161766686Y-62001000D02*
X162264570Y-62001000D01*
X160564570Y-62003000D02*
X161062454Y-62003000D01*
X159747884Y-62004000D02*
X160245768Y-62004000D01*
X165314628Y-59501000D02*
X165901000Y-58914628D01*
X166300003Y-58515625D02*
X166300003Y-58500000D01*
X162265570Y-62000000D02*
X162815628Y-62000000D01*
X160246768Y-62003000D02*
X160564570Y-62003000D01*
X165901000Y-58914628D02*
X166300003Y-58515625D01*
X206700000Y-73400000D02*
X207040091Y-73740091D01*
X161063454Y-62002000D02*
X161200000Y-62002000D01*
X205500000Y-73400000D02*
X206700000Y-73400000D01*
X160245768Y-62004000D02*
X160246768Y-62003000D01*
X146900000Y-74400000D02*
X159296000Y-62004000D01*
X161200000Y-62002000D02*
X161697884Y-62002000D01*
X207040091Y-73740091D02*
X214160680Y-73740091D01*
%TO.N,S9*%
X171700000Y-65400000D02*
X166500000Y-65400000D01*
X166500000Y-65400000D02*
X154520000Y-77380000D01*
X171700000Y-65400000D02*
X172300000Y-66000000D01*
X154520000Y-77380000D02*
X152755844Y-77380000D01*
X172300000Y-66000000D02*
X172800000Y-66000000D01*
%TO.N,S12*%
X168900000Y-67900000D02*
X167400000Y-67900000D01*
X154957844Y-82798000D02*
X152755844Y-85000000D01*
X167400000Y-67900000D02*
X154957844Y-80342156D01*
X154957844Y-80342156D02*
X154957844Y-82798000D01*
%TO.N,S11*%
X169411431Y-66900000D02*
X166800000Y-66900000D01*
X154356844Y-80859000D02*
X152755844Y-82460000D01*
X170395167Y-67883736D02*
X169411431Y-66900000D01*
X154356844Y-79343156D02*
X154356844Y-80859000D01*
X170395167Y-67900000D02*
X170395167Y-67883736D01*
X166800000Y-66900000D02*
X154356844Y-79343156D01*
%TO.N,S10*%
X166700000Y-66100000D02*
X152880000Y-79920000D01*
X170900000Y-66100000D02*
X166700000Y-66100000D01*
X171600000Y-67000000D02*
X171600000Y-66800000D01*
X171600000Y-66800000D02*
X170900000Y-66100000D01*
X152880000Y-79920000D02*
X152755844Y-79920000D01*
%TO.N,SDA*%
X133295000Y-86545000D02*
X132220000Y-87620000D01*
X140701000Y-56899000D02*
X140700000Y-56900000D01*
X133750000Y-63150000D02*
X132699000Y-64201000D01*
X132699000Y-64201000D02*
X132699000Y-71338720D01*
X132699000Y-71338720D02*
X133295000Y-71934720D01*
X147200000Y-56899000D02*
X140701000Y-56899000D01*
X133295000Y-71934720D02*
X133295000Y-86545000D01*
%TO.N,SCL*%
X133900000Y-74760280D02*
X133900000Y-86760000D01*
X148600000Y-56914628D02*
X148600000Y-55799000D01*
X141900000Y-57900000D02*
X147614628Y-57900000D01*
X135835000Y-72825280D02*
X133900000Y-74760280D01*
X139800000Y-68100000D02*
X135835000Y-72065000D01*
X139800000Y-62500000D02*
X139800000Y-68100000D01*
X147614628Y-57900000D02*
X148600000Y-56914628D01*
X133900000Y-86760000D02*
X134760000Y-87620000D01*
X135835000Y-72065000D02*
X135835000Y-72825280D01*
D30*
%TO.N,3.3V*%
X151500000Y-22500000D02*
X153199000Y-20801000D01*
X149900000Y-20900000D02*
X130100000Y-20900000D01*
X163100000Y-27400000D02*
X166018143Y-24481857D01*
X122300000Y-55676288D02*
X124722712Y-58099000D01*
X213200000Y-68994023D02*
X213200000Y-71233871D01*
X191100000Y-48700000D02*
X193500000Y-51100000D01*
X131998000Y-63002000D02*
X131998000Y-70062000D01*
X156000000Y-25000000D02*
X158400000Y-27400000D01*
D27*
X155200000Y-75100000D02*
X151200000Y-75100000D01*
X146900000Y-78900000D02*
X147900000Y-78900000D01*
D30*
X130100000Y-20900000D02*
X129000000Y-22000000D01*
X151500000Y-22500000D02*
X149900000Y-20900000D01*
D27*
X162800000Y-67500000D02*
X155200000Y-75100000D01*
D30*
X133800000Y-61200000D02*
X131998000Y-63002000D01*
X158400000Y-27400000D02*
X163100000Y-27400000D01*
X129000000Y-23500000D02*
X122300000Y-30200000D01*
X185960206Y-37269486D02*
X185960206Y-39273569D01*
X122300000Y-30200000D02*
X122300000Y-55676288D01*
X166018143Y-24481857D02*
X166778762Y-24481857D01*
X193500000Y-51100000D02*
X201205977Y-51100000D01*
X132456050Y-58099000D02*
X133800000Y-59442950D01*
X153199000Y-20801000D02*
X156000000Y-20801000D01*
X166778762Y-24481857D02*
X185960206Y-37269486D01*
D27*
X147900000Y-78900000D02*
X151200000Y-75600000D01*
D30*
X131998000Y-70062000D02*
X129680000Y-72380000D01*
D27*
X151200000Y-75600000D02*
X151200000Y-75100000D01*
D30*
X201400001Y-51294024D02*
X213200000Y-68994023D01*
X201205977Y-51100000D02*
X201400001Y-51294024D01*
X213200000Y-71233871D02*
X212773859Y-71660012D01*
X190188045Y-40088045D02*
X191100000Y-41000000D01*
X188405977Y-38900000D02*
X190188045Y-40088045D01*
X156000000Y-20801000D02*
X156000000Y-25000000D01*
X124722712Y-58099000D02*
X132456050Y-58099000D01*
X186333775Y-38900000D02*
X188405977Y-38900000D01*
X191100000Y-41000000D02*
X191100000Y-48700000D01*
X133800000Y-59442950D02*
X133800000Y-61200000D01*
X129000000Y-22000000D02*
X129000000Y-23500000D01*
D26*
%TO.N,LED1B*%
X132000000Y-59200000D02*
X131300000Y-59900000D01*
X131300000Y-59900000D02*
X131300000Y-62708636D01*
X132300000Y-49700000D02*
X132400000Y-49600000D01*
X132300000Y-52800000D02*
X132300000Y-49700000D01*
X131297000Y-63292364D02*
X131297000Y-67117955D01*
X131300000Y-62708636D02*
X131297000Y-62711636D01*
X131297000Y-67117955D02*
X130422846Y-67992109D01*
X131297000Y-62711636D02*
X131297000Y-63292364D01*
%TO.N,LED1G*%
X130400000Y-59500000D02*
X130699000Y-59799000D01*
X130400000Y-59199000D02*
X130400000Y-59500000D01*
X143200000Y-53800000D02*
X145501000Y-51499000D01*
X145501000Y-51499000D02*
X145501000Y-34502000D01*
X130600000Y-52800000D02*
X131600000Y-53800000D01*
X130500000Y-52800000D02*
X130600000Y-52800000D01*
X130696000Y-65855598D02*
X129825799Y-66725799D01*
X130699000Y-62459694D02*
X130696000Y-62462694D01*
X131600000Y-53800000D02*
X143200000Y-53800000D01*
X145501000Y-34502000D02*
X141499000Y-30500000D01*
X130699000Y-59799000D02*
X130699000Y-62459694D01*
X130696000Y-62462694D02*
X130696000Y-65855598D01*
%TO.N,LED2G*%
X148000000Y-64300000D02*
X146800000Y-64300000D01*
X170100000Y-36400000D02*
X170100000Y-36284372D01*
X165415628Y-31600000D02*
X161600000Y-31600000D01*
X151900003Y-60399997D02*
X148000000Y-64300000D01*
X170100000Y-36284372D02*
X165415628Y-31600000D01*
X170800000Y-37100000D02*
X170100000Y-36400000D01*
X151900003Y-55800000D02*
X151900003Y-60399997D01*
%TO.N,LED3G*%
X161014628Y-59501000D02*
X161601000Y-58914628D01*
X162000000Y-58515628D02*
X162000000Y-58500000D01*
X147214628Y-69501000D02*
X147801000Y-68914628D01*
X147801000Y-68899000D02*
X156499000Y-60201000D01*
X159499942Y-60200000D02*
X160315628Y-60200000D01*
X147199000Y-69501000D02*
X147214628Y-69501000D01*
X146800000Y-69900000D02*
X147199000Y-69501000D01*
X184700000Y-53100000D02*
X192300000Y-60700000D01*
X160315628Y-60200000D02*
X161014628Y-59501000D01*
X156499000Y-60201000D02*
X159001058Y-60201000D01*
X159498942Y-60201000D02*
X159499942Y-60200000D01*
X192300000Y-60700000D02*
X192300000Y-61400000D01*
X159001058Y-60201000D02*
X159498942Y-60201000D01*
X161601000Y-58914628D02*
X162000000Y-58515628D01*
X147801000Y-68914628D02*
X147801000Y-68899000D01*
%TO.N,LED2W*%
X147000000Y-67100000D02*
X146800000Y-67100000D01*
X154700000Y-59400000D02*
X147000000Y-67100000D01*
X168050000Y-54200000D02*
X169650000Y-52600000D01*
X154700000Y-56700000D02*
X154700000Y-59400000D01*
X157097727Y-54200000D02*
X168050000Y-54200000D01*
X156797784Y-53900057D02*
X157097727Y-54200000D01*
%TO.N,LED2R*%
X148500000Y-62900000D02*
X146800000Y-62900000D01*
X150500000Y-55800000D02*
X150500000Y-60900000D01*
X150500000Y-60900000D02*
X148500000Y-62900000D01*
%TO.N,LED1W*%
X137600000Y-59600000D02*
X137600000Y-66700000D01*
X136800000Y-58800000D02*
X137600000Y-59600000D01*
X142743292Y-52781395D02*
X142724687Y-52800000D01*
X142724687Y-52800000D02*
X142000000Y-52800000D01*
X136300000Y-52800000D02*
X136000000Y-52800000D01*
X142724687Y-52800000D02*
X136000000Y-52800000D01*
X137600000Y-66700000D02*
X136264921Y-68035079D01*
%TO.N,LED3B*%
X162514512Y-62601000D02*
X163064570Y-62601000D01*
X146903338Y-76000789D02*
X160299127Y-62605000D01*
X163065570Y-62600000D02*
X163615631Y-62600000D01*
X160299127Y-62605000D02*
X160494710Y-62605000D01*
X161947826Y-62602000D02*
X162513512Y-62602000D01*
X160495710Y-62604000D02*
X161311396Y-62604000D01*
X178000000Y-69100000D02*
X180100000Y-69100000D01*
X180100000Y-69100000D02*
X180700000Y-68500000D01*
X161311396Y-62604000D02*
X161312396Y-62603000D01*
X163615631Y-62600000D02*
X167700006Y-58515625D01*
X167700006Y-58515625D02*
X167700006Y-58500000D01*
X163064570Y-62601000D02*
X163065570Y-62600000D01*
X162513512Y-62602000D02*
X162514512Y-62601000D01*
X160494710Y-62605000D02*
X160495710Y-62604000D01*
X161946826Y-62603000D02*
X161947826Y-62602000D01*
X161312396Y-62603000D02*
X161946826Y-62603000D01*
%TO.N,LED2B*%
X153300006Y-59899994D02*
X147500000Y-65700000D01*
X153300006Y-55800000D02*
X153300006Y-59899994D01*
X147500000Y-65700000D02*
X146800000Y-65700000D01*
%TO.N,LED3W*%
X162195768Y-63204000D02*
X162196768Y-63203000D01*
X161697884Y-63204000D02*
X162195768Y-63204000D01*
X147484372Y-77400000D02*
X161680372Y-63204000D01*
X207684372Y-78100000D02*
X205300000Y-75715628D01*
X162762454Y-63203000D02*
X162763454Y-63202000D01*
X163864573Y-63201000D02*
X163865573Y-63200000D01*
X209700000Y-78100000D02*
X207684372Y-78100000D01*
X205300000Y-75715628D02*
X205300000Y-75200000D01*
X162815628Y-63202000D02*
X163313512Y-63202000D01*
X162264570Y-63203000D02*
X162762454Y-63203000D01*
X169100009Y-58699991D02*
X169100009Y-58500000D01*
X162196768Y-63203000D02*
X162264570Y-63203000D01*
X164600000Y-63200000D02*
X169100009Y-58699991D01*
X211000000Y-79400000D02*
X209700000Y-78100000D01*
X163366689Y-63201000D02*
X163864573Y-63201000D01*
X163314512Y-63201000D02*
X163366689Y-63201000D01*
X163865573Y-63200000D02*
X164600000Y-63200000D01*
X146856261Y-77400000D02*
X147484372Y-77400000D01*
X163313512Y-63202000D02*
X163314512Y-63201000D01*
X161680372Y-63204000D02*
X161697884Y-63204000D01*
X162763454Y-63202000D02*
X162815628Y-63202000D01*
%TO.N,LED3R*%
X159250000Y-59600000D02*
X155700000Y-59600000D01*
X160350000Y-58500000D02*
X159250000Y-59600000D01*
X147801000Y-67499000D02*
X147801000Y-67514628D01*
X155700000Y-59600000D02*
X147801000Y-67499000D01*
X147214628Y-68101000D02*
X147199000Y-68101000D01*
X160600000Y-58500000D02*
X160350000Y-58500000D01*
X147199000Y-68101000D02*
X146800000Y-68500000D01*
X147801000Y-67514628D02*
X147214628Y-68101000D01*
%TO.N,LED1R*%
X129200000Y-50600000D02*
X129200000Y-52600000D01*
X129000000Y-59200000D02*
X128700000Y-59500000D01*
X129200000Y-52600000D02*
X129000000Y-52800000D01*
X128200000Y-49600000D02*
X129200000Y-50600000D01*
X128700000Y-59500000D02*
X128700000Y-68000000D01*
X127400000Y-37800000D02*
X127400000Y-38036931D01*
X127400000Y-38036931D02*
X125000000Y-40436931D01*
D29*
%TO.N,4V1*%
X142500000Y-51200000D02*
X144300000Y-49400000D01*
X134800000Y-28200000D02*
X137500000Y-25500000D01*
X133100000Y-40500000D02*
X141200000Y-40500000D01*
X132150000Y-39550000D02*
X133100000Y-40500000D01*
X124400000Y-32300000D02*
X128500000Y-28200000D01*
X144300000Y-43600000D02*
X141200000Y-40500000D01*
X128500000Y-28200000D02*
X134800000Y-28200000D01*
D28*
X152100000Y-103900000D02*
X151200000Y-103000000D01*
X152100000Y-109100000D02*
X152100000Y-103900000D01*
D29*
X144300000Y-49400000D02*
X144300000Y-43600000D01*
X137100000Y-51200000D02*
X142500000Y-51200000D01*
X124400000Y-38200000D02*
X124400000Y-32300000D01*
D27*
%TO.N,4V3*%
X201500000Y-68200000D02*
X198350000Y-71350000D01*
X202700000Y-68200000D02*
X201500000Y-68200000D01*
%TD*%
M02*
